<svg width="211" height="50" viewBox="0 0 211 50" fill="none" xmlns="http://www.w3.org/2000/svg">
<path d="M19 32.7143H10.8571V40H8.14286V32.7143H0V30.2857H8.14286V23H10.8571V30.2857H19V32.7143Z" fill="#79DAE8"/>
<path d="M35.332 30.064C35.332 28.024 35.74 26.236 36.556 24.7C37.396 23.14 38.548 21.94 40.012 21.1C41.476 20.26 43.156 19.84 45.052 19.84C47.452 19.84 49.432 20.416 50.992 21.568C52.576 22.696 53.644 24.316 54.196 26.428H49.768C49.408 25.444 48.832 24.676 48.04 24.124C47.248 23.572 46.252 23.296 45.052 23.296C43.372 23.296 42.028 23.896 41.02 25.096C40.036 26.272 39.544 27.928 39.544 30.064C39.544 32.2 40.036 33.868 41.02 35.068C42.028 36.268 43.372 36.868 45.052 36.868C47.428 36.868 49 35.824 49.768 33.736H54.196C53.62 35.752 52.54 37.36 50.956 38.56C49.372 39.736 47.404 40.324 45.052 40.324C43.156 40.324 41.476 39.904 40.012 39.064C38.548 38.2 37.396 37 36.556 35.464C35.74 33.904 35.332 32.104 35.332 30.064ZM66.8899 40.324C65.0179 40.324 63.3259 39.904 61.8139 39.064C60.3019 38.2 59.1139 37 58.2499 35.464C57.3859 33.904 56.9539 32.104 56.9539 30.064C56.9539 28.048 57.3979 26.26 58.2859 24.7C59.1739 23.14 60.3859 21.94 61.9219 21.1C63.4579 20.26 65.1739 19.84 67.0699 19.84C68.9659 19.84 70.6819 20.26 72.2179 21.1C73.7539 21.94 74.9659 23.14 75.8539 24.7C76.7419 26.26 77.1859 28.048 77.1859 30.064C77.1859 32.08 76.7299 33.868 75.8179 35.428C74.9059 36.988 73.6579 38.2 72.0739 39.064C70.5139 39.904 68.7859 40.324 66.8899 40.324ZM66.8899 36.76C67.9459 36.76 68.9299 36.508 69.8419 36.004C70.7779 35.5 71.5339 34.744 72.1099 33.736C72.6859 32.728 72.9739 31.504 72.9739 30.064C72.9739 28.624 72.6979 27.412 72.1459 26.428C71.5939 25.42 70.8619 24.664 69.9499 24.16C69.0379 23.656 68.0539 23.404 66.9979 23.404C65.9419 23.404 64.9579 23.656 64.0459 24.16C63.1579 24.664 62.4499 25.42 61.9219 26.428C61.3939 27.412 61.1299 28.624 61.1299 30.064C61.1299 32.2 61.6699 33.856 62.7499 35.032C63.8539 36.184 65.2339 36.76 66.8899 36.76ZM85.347 13.36V40H81.243V13.36H85.347ZM94.8392 13.36V40H90.7352V13.36H94.8392ZM118.407 29.596C118.407 30.34 118.359 31.012 118.263 31.612H103.107C103.227 33.196 103.815 34.468 104.871 35.428C105.927 36.388 107.223 36.868 108.759 36.868C110.967 36.868 112.527 35.944 113.439 34.096H117.867C117.267 35.92 116.175 37.42 114.591 38.596C113.031 39.748 111.087 40.324 108.759 40.324C106.863 40.324 105.159 39.904 103.647 39.064C102.159 38.2 100.983 37 100.119 35.464C99.2793 33.904 98.8593 32.104 98.8593 30.064C98.8593 28.024 99.2673 26.236 100.083 24.7C100.923 23.14 102.087 21.94 103.575 21.1C105.087 20.26 106.815 19.84 108.759 19.84C110.631 19.84 112.299 20.248 113.763 21.064C115.227 21.88 116.367 23.032 117.183 24.52C117.999 25.984 118.407 27.676 118.407 29.596ZM114.123 28.3C114.099 26.788 113.559 25.576 112.503 24.664C111.447 23.752 110.139 23.296 108.579 23.296C107.163 23.296 105.951 23.752 104.943 24.664C103.935 25.552 103.335 26.764 103.143 28.3H114.123ZM121.078 30.064C121.078 28.024 121.486 26.236 122.302 24.7C123.142 23.14 124.294 21.94 125.758 21.1C127.222 20.26 128.902 19.84 130.798 19.84C133.198 19.84 135.178 20.416 136.738 21.568C138.322 22.696 139.39 24.316 139.942 26.428H135.514C135.154 25.444 134.578 24.676 133.786 24.124C132.994 23.572 131.998 23.296 130.798 23.296C129.118 23.296 127.774 23.896 126.766 25.096C125.782 26.272 125.29 27.928 125.29 30.064C125.29 32.2 125.782 33.868 126.766 35.068C127.774 36.268 129.118 36.868 130.798 36.868C133.174 36.868 134.746 35.824 135.514 33.736H139.942C139.366 35.752 138.286 37.36 136.702 38.56C135.118 39.736 133.15 40.324 130.798 40.324C128.902 40.324 127.222 39.904 125.758 39.064C124.294 38.2 123.142 37 122.302 35.464C121.486 33.904 121.078 32.104 121.078 30.064ZM148.82 23.512V34.492C148.82 35.236 148.988 35.776 149.324 36.112C149.684 36.424 150.284 36.58 151.124 36.58H153.644V40H150.404C148.556 40 147.14 39.568 146.156 38.704C145.172 37.84 144.68 36.436 144.68 34.492V23.512H142.34V20.164H144.68V15.232H148.82V20.164H153.644V23.512H148.82ZM159.515 17.536C158.771 17.536 158.147 17.284 157.643 16.78C157.139 16.276 156.887 15.652 156.887 14.908C156.887 14.164 157.139 13.54 157.643 13.036C158.147 12.532 158.771 12.28 159.515 12.28C160.235 12.28 160.847 12.532 161.351 13.036C161.855 13.54 162.107 14.164 162.107 14.908C162.107 15.652 161.855 16.276 161.351 16.78C160.847 17.284 160.235 17.536 159.515 17.536ZM161.531 20.164V40H157.427V20.164H161.531ZM175.523 40.324C173.651 40.324 171.959 39.904 170.447 39.064C168.935 38.2 167.747 37 166.883 35.464C166.019 33.904 165.587 32.104 165.587 30.064C165.587 28.048 166.031 26.26 166.919 24.7C167.807 23.14 169.019 21.94 170.555 21.1C172.091 20.26 173.807 19.84 175.703 19.84C177.599 19.84 179.315 20.26 180.851 21.1C182.387 21.94 183.599 23.14 184.487 24.7C185.375 26.26 185.819 28.048 185.819 30.064C185.819 32.08 185.363 33.868 184.451 35.428C183.539 36.988 182.291 38.2 180.707 39.064C179.147 39.904 177.419 40.324 175.523 40.324ZM175.523 36.76C176.579 36.76 177.563 36.508 178.475 36.004C179.411 35.5 180.167 34.744 180.743 33.736C181.319 32.728 181.607 31.504 181.607 30.064C181.607 28.624 181.331 27.412 180.779 26.428C180.227 25.42 179.495 24.664 178.583 24.16C177.671 23.656 176.687 23.404 175.631 23.404C174.575 23.404 173.591 23.656 172.679 24.16C171.791 24.664 171.083 25.42 170.555 26.428C170.027 27.412 169.763 28.624 169.763 30.064C169.763 32.2 170.303 33.856 171.383 35.032C172.487 36.184 173.867 36.76 175.523 36.76ZM199.884 19.84C201.444 19.84 202.836 20.164 204.06 20.812C205.308 21.46 206.28 22.42 206.976 23.692C207.672 24.964 208.02 26.5 208.02 28.3V40H203.952V28.912C203.952 27.136 203.508 25.78 202.62 24.844C201.732 23.884 200.52 23.404 198.984 23.404C197.448 23.404 196.224 23.884 195.312 24.844C194.424 25.78 193.98 27.136 193.98 28.912V40H189.876V20.164H193.98V22.432C194.652 21.616 195.504 20.98 196.536 20.524C197.592 20.068 198.708 19.84 199.884 19.84Z" fill="#79DAE8"/>
</svg>
