<svg width="66" height="66" viewBox="0 0 66 66" fill="none" xmlns="http://www.w3.org/2000/svg">
<path d="M13.75 60.5C13.0207 60.5 12.3212 60.2103 11.8055 59.6945C11.2897 59.1788 11 58.4794 11 57.75V8.25C11 7.52065 11.2897 6.82118 11.8055 6.30546C12.3212 5.78973 13.0207 5.5 13.75 5.5H52.25C52.9793 5.5 53.6788 5.78973 54.1945 6.30546C54.7103 6.82118 55 7.52065 55 8.25V57.75C55 58.4794 54.7103 59.1788 54.1945 59.6945C53.6788 60.2103 52.9793 60.5 52.25 60.5H13.75ZM41.25 44L55 33L41.25 22V30.25H24.75V35.75H41.25V44Z" fill="#79DAE8"/>
</svg>
