<svg width="63" height="63" viewBox="0 0 63 63" fill="none" xmlns="http://www.w3.org/2000/svg">
<path d="M5.25 10.6333C5.25458 9.90383 5.51725 9.2056 5.98128 8.68949C6.44531 8.17338 7.07345 7.88082 7.73 7.875H52.77C54.14 7.875 55.25 9.11111 55.25 10.6333V55.1167C55.2454 55.8462 54.9827 56.5444 54.5187 57.0605C54.0547 57.5766 53.4265 57.8692 52.77 57.875H7.73C7.07203 57.8743 6.44124 57.5833 5.97622 57.0661C5.51121 56.5489 5.25 55.8477 5.25 55.1167V10.6333ZM15.25 41.2083V46.7639H45.25V41.2083H15.25ZM15.25 18.9861V35.6528H30.25V18.9861H15.25ZM35.25 18.9861V24.5417H45.25V18.9861H35.25ZM35.25 30.0972V35.6528H45.25V30.0972H35.25ZM20.25 24.5417H25.25V30.0972H20.25V24.5417Z" fill="#79DAE8"/>
</svg>
