<svg width="26" height="26" viewBox="0 0 26 26" fill="none" xmlns="http://www.w3.org/2000/svg">
<path d="M19 0V2H22.563L19.188 5.406C17.9817 4.4951 16.5116 4.00158 15 4C13.13 4 11.384 4.74 10.062 6.063C9.40857 6.70858 8.88977 7.47746 8.53571 8.32507C8.18166 9.17267 7.99939 10.0821 7.99949 11.0007C7.99958 11.9193 8.18203 12.8287 8.53625 13.6762C8.89048 14.5238 9.40944 15.2926 10.063 15.938C10.933 16.808 11.969 17.433 13.125 17.75C13.239 17.663 13.367 17.572 13.469 17.47C13.8882 17.0437 14.1894 16.5158 14.343 15.938C13.2543 15.8036 12.2421 15.3082 11.468 14.531C10.524 13.588 10 12.336 10 11C10 9.664 10.525 8.414 11.47 7.47C12.412 6.523 13.664 6 15 6C16.336 6 17.587 6.525 18.53 7.47C18.9966 7.93172 19.3668 8.48154 19.6192 9.08752C19.8715 9.6935 20.001 10.3436 20 11C20 11.865 19.755 12.67 19.344 13.406C19.44 13.922 19.5 14.464 19.5 15C19.5 15.498 19.458 15.99 19.375 16.47C19.575 16.307 19.753 16.122 19.938 15.938C21.26 14.614 22 12.87 22 11C22 9.47 21.496 8.016 20.594 6.812L24 3.438V7H26V0H19ZM12.875 8.25C12.761 8.337 12.633 8.428 12.531 8.53C12.099 8.964 11.817 9.49 11.657 10.063C12.747 10.203 13.742 10.679 14.532 11.469C15.477 12.412 16.002 13.664 16.002 14.999C16.002 16.334 15.477 17.585 14.532 18.529C13.588 19.477 12.336 20 11 20C9.66403 20 8.41303 19.475 7.47003 18.53C7.00308 18.0685 6.63263 17.5188 6.38025 16.9127C6.12788 16.3067 5.99863 15.6565 6.00003 15C6.00003 14.135 6.24503 13.33 6.65603 12.594C6.55562 12.0685 6.50341 11.535 6.50003 11C6.50003 10.502 6.54203 10.01 6.62503 9.53C6.42503 9.693 6.24803 9.878 6.06203 10.063C4.74203 11.384 4.00003 13.13 4.00003 15C4.00003 16.53 4.50403 17.984 5.40603 19.188L3.72003 20.875L1.72003 18.875L0.280029 20.281L2.28003 22.281L0.280029 24.281L1.72003 25.721L3.72003 23.721L5.72003 25.721L7.12503 24.281L5.12503 22.281L6.81303 20.595C8.01819 21.5073 9.48851 22.0007 11 22C12.87 22 14.616 21.26 15.938 19.937C17.26 18.616 18 16.87 18 15C18 13.13 17.26 11.386 15.937 10.062C15.067 9.192 14.031 8.567 12.875 8.25Z" fill="#79DAE8"/>
</svg>
