<svg width="32" height="20" viewBox="0 0 32 20" fill="none" xmlns="http://www.w3.org/2000/svg">
<path d="M22.3333 0.5H9.66663C7.14707 0.5 4.73071 1.50089 2.94911 3.28249C1.16752 5.06408 0.166626 7.48044 0.166626 10C0.166626 12.5196 1.16752 14.9359 2.94911 16.7175C4.73071 18.4991 7.14707 19.5 9.66663 19.5H22.3333C24.8528 19.5 27.2692 18.4991 29.0508 16.7175C30.8324 14.9359 31.8333 12.5196 31.8333 10C31.8333 7.48044 30.8324 5.06408 29.0508 3.28249C27.2692 1.50089 24.8528 0.5 22.3333 0.5ZM14.4166 11.5833H11.25V14.75H8.08329V11.5833H4.91663V8.41667H8.08329V5.25H11.25V8.41667H14.4166V11.5833ZM19.9583 14.75C19.3284 14.75 18.7243 14.4998 18.2789 14.0544C17.8335 13.609 17.5833 13.0049 17.5833 12.375C17.5833 11.7451 17.8335 11.141 18.2789 10.6956C18.7243 10.2502 19.3284 10 19.9583 10C20.5882 10 21.1923 10.2502 21.6377 10.6956C22.0831 11.141 22.3333 11.7451 22.3333 12.375C22.3333 13.0049 22.0831 13.609 21.6377 14.0544C21.1923 14.4998 20.5882 14.75 19.9583 14.75ZM24.7083 10C24.0784 10 23.4743 9.74978 23.0289 9.30438C22.5835 8.85898 22.3333 8.25489 22.3333 7.625C22.3333 6.99511 22.5835 6.39102 23.0289 5.94562C23.4743 5.50022 24.0784 5.25 24.7083 5.25C25.3382 5.25 25.9423 5.50022 26.3877 5.94562C26.8331 6.39102 27.0833 6.99511 27.0833 7.625C27.0833 8.25489 26.8331 8.85898 26.3877 9.30438C25.9423 9.74978 25.3382 10 24.7083 10Z" fill="#79DAE8"/>
</svg>
