<svg width="44" height="37" viewBox="0 0 44 37" fill="none" xmlns="http://www.w3.org/2000/svg">
<path d="M43.8281 26.8711L39.4375 9.30469C39.2684 8.6283 38.878 8.02788 38.3284 7.59894C37.7788 7.17 37.1015 6.93717 36.4043 6.9375H23.5625V3.8125C23.5625 2.9837 23.2333 2.18884 22.6472 1.60279C22.0612 1.01674 21.2663 0.6875 20.4375 0.6875H12.625C11.7962 0.6875 11.0013 1.01674 10.4153 1.60279C9.82924 2.18884 9.5 2.9837 9.5 3.8125V6.9375H7.5957C6.89851 6.93717 6.22123 7.17 5.6716 7.59894C5.12197 8.02788 4.73157 8.6283 4.5625 9.30469L0.171875 26.8711C0.140683 26.995 0.124939 27.1222 0.125 27.25V33.5C0.125 34.3288 0.45424 35.1237 1.04029 35.7097C1.62634 36.2958 2.4212 36.625 3.25 36.625H40.75C41.5788 36.625 42.3737 36.2958 42.9597 35.7097C43.5458 35.1237 43.875 34.3288 43.875 33.5V27.25C43.8751 27.1222 43.8593 26.995 43.8281 26.8711ZM29.8125 13.1875H32.9375C33.3519 13.1875 33.7493 13.3521 34.0424 13.6451C34.3354 13.9382 34.5 14.3356 34.5 14.75C34.5 15.1644 34.3354 15.5618 34.0424 15.8549C33.7493 16.1479 33.3519 16.3125 32.9375 16.3125H29.8125C29.3981 16.3125 29.0007 16.1479 28.7076 15.8549C28.4146 15.5618 28.25 15.1644 28.25 14.75C28.25 14.3356 28.4146 13.9382 28.7076 13.6451C29.0007 13.3521 29.3981 13.1875 29.8125 13.1875ZM29.8125 19.4375H32.9375C33.3519 19.4375 33.7493 19.6021 34.0424 19.8951C34.3354 20.1882 34.5 20.5856 34.5 21C34.5 21.4144 34.3354 21.8118 34.0424 22.1049C33.7493 22.3979 33.3519 22.5625 32.9375 22.5625H29.8125C29.3981 22.5625 29.0007 22.3979 28.7076 22.1049C28.4146 21.8118 28.25 21.4144 28.25 21C28.25 20.5856 28.4146 20.1882 28.7076 19.8951C29.0007 19.6021 29.3981 19.4375 29.8125 19.4375ZM23.5625 13.1875C23.9769 13.1875 24.3743 13.3521 24.6674 13.6451C24.9604 13.9382 25.125 14.3356 25.125 14.75C25.125 15.1644 24.9604 15.5618 24.6674 15.8549C24.3743 16.1479 23.9769 16.3125 23.5625 16.3125H20.4375C20.0231 16.3125 19.6257 16.1479 19.3326 15.8549C19.0396 15.5618 18.875 15.1644 18.875 14.75C18.875 14.3356 19.0396 13.9382 19.3326 13.6451C19.6257 13.3521 20.0231 13.1875 20.4375 13.1875H23.5625ZM25.125 21C25.125 21.4144 24.9604 21.8118 24.6674 22.1049C24.3743 22.3979 23.9769 22.5625 23.5625 22.5625H20.4375C20.0231 22.5625 19.6257 22.3979 19.3326 22.1049C19.0396 21.8118 18.875 21.4144 18.875 21C18.875 20.5856 19.0396 20.1882 19.3326 19.8951C19.6257 19.6021 20.0231 19.4375 20.4375 19.4375H23.5625C23.9769 19.4375 24.3743 19.6021 24.6674 19.8951C24.9604 20.1882 25.125 20.5856 25.125 21ZM12.625 3.8125H20.4375V6.9375H12.625V3.8125ZM11.0625 13.1875H14.1875C14.6019 13.1875 14.9993 13.3521 15.2924 13.6451C15.5854 13.9382 15.75 14.3356 15.75 14.75C15.75 15.1644 15.5854 15.5618 15.2924 15.8549C14.9993 16.1479 14.6019 16.3125 14.1875 16.3125H11.0625C10.6481 16.3125 10.2507 16.1479 9.95765 15.8549C9.66462 15.5618 9.5 15.1644 9.5 14.75C9.5 14.3356 9.66462 13.9382 9.95765 13.6451C10.2507 13.3521 10.6481 13.1875 11.0625 13.1875ZM11.0625 19.4375H14.1875C14.6019 19.4375 14.9993 19.6021 15.2924 19.8951C15.5854 20.1882 15.75 20.5856 15.75 21C15.75 21.4144 15.5854 21.8118 15.2924 22.1049C14.9993 22.3979 14.6019 22.5625 14.1875 22.5625H11.0625C10.6481 22.5625 10.2507 22.3979 9.95765 22.1049C9.66462 21.8118 9.5 21.4144 9.5 21C9.5 20.5856 9.66462 20.1882 9.95765 19.8951C10.2507 19.6021 10.6481 19.4375 11.0625 19.4375ZM40.75 33.5H3.25V28.8125H40.75V33.5Z" fill="#79DAE8"/>
</svg>
