<svg width="34" height="42" viewBox="0 0 34 42" fill="none" xmlns="http://www.w3.org/2000/svg">
<path d="M12.8333 18.9166H0.333313V2.24996C0.333313 1.69743 0.552807 1.16752 0.943508 0.77682C1.33421 0.386119 1.86411 0.166626 2.41665 0.166626H31.5833C32.1358 0.166626 32.6658 0.386119 33.0565 0.77682C33.4472 1.16752 33.6666 1.69743 33.6666 2.24996V39.75C33.6666 40.3025 33.4472 40.8324 33.0565 41.2231C32.6658 41.6138 32.1358 41.8333 31.5833 41.8333H2.41665C1.86411 41.8333 1.33421 41.6138 0.943508 41.2231C0.552807 40.8324 0.333313 40.3025 0.333313 39.75V23.0833H12.8333V29.3333L23.25 21L12.8333 12.6666V18.9166Z" fill="#79DAE8"/>
</svg>
