<svg width="49" height="49" viewBox="0 0 49 49" fill="none" xmlns="http://www.w3.org/2000/svg">
<path d="M24.5 0.125C25.2183 0.125 25.9072 0.410341 26.4151 0.918252C26.923 1.42616 27.2083 2.11504 27.2083 2.83333V19.0833C27.2083 19.8016 26.923 20.4905 26.4151 20.9984C25.9072 21.5063 25.2183 21.7917 24.5 21.7917H2.83333C2.11504 21.7917 1.42616 21.5063 0.918252 20.9984C0.410341 20.4905 0.125 19.8016 0.125 19.0833V2.83333C0.125 2.11504 0.410341 1.42616 0.918252 0.918252C1.42616 0.410341 2.11504 0.125 2.83333 0.125H24.5ZM46.1667 0.125C46.885 0.125 47.5738 0.410341 48.0817 0.918252C48.5897 1.42616 48.875 2.11504 48.875 2.83333V19.0833C48.875 19.8016 48.5897 20.4905 48.0817 20.9984C47.5738 21.5063 46.885 21.7917 46.1667 21.7917H35.3333C34.615 21.7917 33.9262 21.5063 33.4183 20.9984C32.9103 20.4905 32.625 19.8016 32.625 19.0833V2.83333C32.625 2.11504 32.9103 1.42616 33.4183 0.918252C33.9262 0.410341 34.615 0.125 35.3333 0.125H46.1667ZM46.1667 27.2083C46.885 27.2083 47.5738 27.4937 48.0817 28.0016C48.5897 28.5095 48.875 29.1984 48.875 29.9167V46.1667C48.875 46.885 48.5897 47.5738 48.0817 48.0817C47.5738 48.5897 46.885 48.875 46.1667 48.875H24.5C23.7817 48.875 23.0928 48.5897 22.5849 48.0817C22.077 47.5738 21.7917 46.885 21.7917 46.1667V29.9167C21.7917 29.1984 22.077 28.5095 22.5849 28.0016C23.0928 27.4937 23.7817 27.2083 24.5 27.2083H46.1667ZM0.125 29.9167C0.125 29.1984 0.410341 28.5095 0.918252 28.0016C1.42616 27.4937 2.11504 27.2083 2.83333 27.2083H13.6667C14.385 27.2083 15.0738 27.4937 15.5817 28.0016C16.0897 28.5095 16.375 29.1984 16.375 29.9167V46.1667C16.375 46.885 16.0897 47.5738 15.5817 48.0817C15.0738 48.5897 14.385 48.875 13.6667 48.875H2.83333C2.11504 48.875 1.42616 48.5897 0.918252 48.0817C0.410341 47.5738 0.125 46.885 0.125 46.1667V29.9167Z" fill="#79DAE8"/>
</svg>
