<svg width="93" height="93" viewBox="0 0 93 93" fill="none" xmlns="http://www.w3.org/2000/svg">
<path d="M21.6592 31.9345L39.8921 2.3159C40.3816 1.50332 40.9934 0.913384 41.7276 0.546097C42.4618 0.178811 43.2368 -0.00320756 44.0526 4.27675e-05C44.8684 4.27675e-05 45.6434 0.183687 46.3776 0.550974C47.1118 0.918261 47.7237 1.50657 48.2132 2.3159L66.4461 31.9345C66.9355 32.7471 67.1803 33.6003 67.1803 34.4941C67.1803 35.388 66.9763 36.2005 66.5684 36.9319C66.1605 37.6632 65.5895 38.2531 64.8553 38.7017C64.1211 39.1502 63.2645 39.3729 62.2855 39.3696H25.8197C24.8408 39.3696 23.9842 39.147 23.25 38.7017C22.5158 38.2564 21.9447 37.6664 21.5368 36.9319C21.1289 36.2005 20.925 35.388 20.925 34.4941C20.925 33.6003 21.1697 32.7471 21.6592 31.9345ZM70.9737 93C64.8553 93 59.6554 90.8678 55.3742 86.6033C51.0929 82.3389 48.9506 77.1579 48.9474 71.0603C48.9474 64.9659 51.0896 59.7865 55.3742 55.5221C59.6587 51.2577 64.8585 49.1238 70.9737 49.1206C77.0921 49.1206 82.2936 51.2544 86.5781 55.5221C90.8626 59.7898 93.0033 64.9692 93 71.0603C93 77.1547 90.8594 82.3357 86.5781 86.6033C82.2968 90.871 77.0954 93.0032 70.9737 93ZM0 85.6868V56.4338C0 55.0524 0.469895 53.8953 1.40968 52.9625C2.34947 52.0296 3.51116 51.5616 4.89474 51.5583H34.2632C35.65 51.5583 36.8133 52.0264 37.7531 52.9625C38.6929 53.8986 39.1612 55.0557 39.1579 56.4338V85.6868C39.1579 87.0681 38.688 88.2269 37.7482 89.163C36.8084 90.0991 35.6467 90.5655 34.2632 90.5622H4.89474C3.50789 90.5622 2.34621 90.0942 1.40968 89.1581C0.473158 88.222 0.00326316 87.0649 0 85.6868Z" fill="#79DAE8"/>
</svg>
