<svg width="97" height="97" viewBox="0 0 97 97" fill="none" xmlns="http://www.w3.org/2000/svg">
<path d="M48.5 38.25C50.8556 38.25 53.1881 37.786 55.3644 36.8846C57.5407 35.9831 59.5181 34.6619 61.1837 32.9962C62.8494 31.3306 64.1706 29.3532 65.0721 27.1769C65.9735 25.0006 66.4375 22.6681 66.4375 20.3125C66.4375 17.9569 65.9735 15.6244 65.0721 13.4481C64.1706 11.2718 62.8494 9.29442 61.1837 7.62877C59.5181 5.96312 57.5407 4.64185 55.3644 3.74041C53.1881 2.83897 50.8556 2.375 48.5 2.375C43.7427 2.375 39.1802 4.26484 35.8163 7.62877C32.4523 10.9927 30.5625 15.5552 30.5625 20.3125C30.5625 25.0698 32.4523 29.6323 35.8163 32.9962C39.1802 36.3602 43.7427 38.25 48.5 38.25ZM2.375 91.55V94.625H94.625V91.55C94.625 80.07 94.625 74.33 92.3905 69.943C90.4251 66.0858 87.2892 62.9499 83.432 60.9845C79.045 58.75 73.305 58.75 61.825 58.75H35.175C23.695 58.75 17.955 58.75 13.568 60.9845C9.71085 62.9499 6.57487 66.0858 4.6095 69.943C2.375 74.33 2.375 80.07 2.375 91.55Z" fill="#79DAE8" stroke="#666666" stroke-opacity="0.7" stroke-width="4" stroke-linecap="round" stroke-linejoin="round"/>
</svg>
