<svg width="90" height="54" viewBox="0 0 90 54" fill="none" xmlns="http://www.w3.org/2000/svg">
<path d="M9 54C6.525 54 4.407 53.1195 2.646 51.3585C0.885 49.5975 0.003 47.478 0 45V9C0 6.525 0.882 4.407 2.646 2.646C4.41 0.884999 6.528 0.003 9 0H81C83.475 0 85.5945 0.881999 87.3585 2.646C89.1225 4.41 90.003 6.528 90 9V45C90 47.475 89.1195 49.5945 87.3585 51.3585C85.5975 53.1225 83.478 54.003 81 54H9ZM22.5 40.5H31.5V31.5H40.5V22.5H31.5V13.5H22.5V22.5H13.5V31.5H22.5V40.5ZM56.25 40.5C58.125 40.5 59.7195 39.8445 61.0335 38.5335C62.3475 37.2225 63.003 35.628 63 33.75C63 31.875 62.3445 30.282 61.0335 28.971C59.7225 27.66 58.128 27.003 56.25 27C54.375 27 52.782 27.657 51.471 28.971C50.16 30.285 49.503 31.878 49.5 33.75C49.5 35.625 50.157 37.2195 51.471 38.5335C52.785 39.8475 54.378 40.503 56.25 40.5ZM69.75 27C71.625 27 73.2195 26.3445 74.5335 25.0335C75.8475 23.7225 76.503 22.128 76.5 20.25C76.5 18.375 75.8445 16.782 74.5335 15.471C73.2225 14.16 71.628 13.503 69.75 13.5C67.875 13.5 66.282 14.157 64.971 15.471C63.66 16.785 63.003 18.378 63 20.25C63 22.125 63.657 23.7195 64.971 25.0335C66.285 26.3475 67.878 27.003 69.75 27Z" fill="#79DAE8"/>
</svg>
