<svg width="149" height="29" viewBox="0 0 149 29" fill="none" xmlns="http://www.w3.org/2000/svg">
<path d="M89.776 9.248C89.776 8.544 89.64 8.072 89.368 7.832C89.112 7.592 88.48 7.416 87.472 7.304L87.616 6.368H93.256L93.352 7.304L91.864 7.592C91.576 7.656 91.424 7.768 91.408 7.928C91.392 7.992 91.384 8.088 91.384 8.216V16.832C91.384 18.8 90.848 20.36 89.776 21.512C88.704 22.648 87.096 23.216 84.952 23.216C80.824 23.216 78.76 21.152 78.76 17.024V8.792C78.76 8.296 78.664 7.96 78.472 7.784C78.296 7.608 77.784 7.448 76.936 7.304L77.08 6.368H82.96L83.056 7.304L81.568 7.592C81.248 7.656 81.088 7.864 81.088 8.216V16.664C81.088 18.296 81.424 19.528 82.096 20.36C82.768 21.192 83.856 21.608 85.36 21.608C86.88 21.608 87.992 21.16 88.696 20.264C89.416 19.368 89.776 18.288 89.776 17.024V9.248ZM96.8399 21.032C97.1119 21.224 97.5519 21.416 98.1599 21.608C98.7839 21.784 99.4799 21.872 100.248 21.872C101.016 21.872 101.656 21.64 102.168 21.176C102.68 20.712 102.936 20.088 102.936 19.304C102.936 18.088 102.248 17.096 100.872 16.328C100.52 16.152 99.9759 15.912 99.2399 15.608C98.5039 15.288 97.9839 15.056 97.6799 14.912C97.3759 14.752 97.0159 14.536 96.5999 14.264C96.1999 13.976 95.8879 13.688 95.6639 13.4C95.1039 12.712 94.8239 11.872 94.8239 10.88C94.8239 9.424 95.3599 8.272 96.4319 7.424C97.5199 6.576 98.9279 6.152 100.656 6.152C101.968 6.152 103.2 6.368 104.352 6.8C104.4 7.184 104.424 7.696 104.424 8.336C104.424 8.96 104.336 9.8 104.16 10.856L102.768 11.024C102.592 9.216 102.376 8.208 102.12 8C101.736 7.664 101.032 7.496 100.008 7.496C98.9999 7.496 98.2159 7.704 97.6559 8.12C97.0959 8.52 96.8159 9.112 96.8159 9.896C96.8159 10.344 96.9039 10.744 97.0799 11.096C97.2559 11.448 97.5759 11.776 98.0399 12.08C98.5039 12.384 98.8719 12.6 99.1439 12.728C99.5439 12.936 100.104 13.192 100.824 13.496C101.544 13.8 102.104 14.064 102.504 14.288C102.904 14.512 103.336 14.808 103.8 15.176C104.696 15.928 105.144 17.016 105.144 18.44C105.144 19.864 104.632 21.016 103.608 21.896C102.6 22.776 101.216 23.216 99.4559 23.216C98.5119 23.216 97.5679 23.104 96.6239 22.88C95.6959 22.64 95.0159 22.408 94.5839 22.184C94.5359 21.992 94.5119 21.536 94.5119 20.816C94.5119 20.096 94.6079 19.224 94.7999 18.2L96.1679 18.128C96.2959 19.28 96.3999 20.024 96.4799 20.36C96.5759 20.696 96.6959 20.92 96.8399 21.032ZM107.434 23L107.29 22.064C108.138 21.92 108.65 21.76 108.826 21.584C109.018 21.408 109.114 21.072 109.114 20.576V8.792C109.114 8.296 109.018 7.96 108.826 7.784C108.65 7.608 108.138 7.448 107.29 7.304L107.434 6.368H118.618C118.714 6.96 118.762 7.552 118.762 8.144C118.762 8.72 118.746 9.376 118.714 10.112L117.346 10.28C117.122 9.176 116.962 8.488 116.866 8.216C116.77 7.928 116.658 7.776 116.53 7.76C116.146 7.712 115.658 7.68 115.066 7.664L111.442 7.592V14.048H115.042C115.25 14.048 115.506 13.48 115.81 12.344L116.554 12.416C116.554 13.584 116.57 14.4 116.602 14.864C116.65 15.328 116.674 15.608 116.674 15.704C116.69 15.8 116.722 16.032 116.77 16.4C116.834 16.768 116.874 17.024 116.89 17.168L116.026 17.312C115.77 16.4 115.594 15.84 115.498 15.632C115.418 15.424 115.322 15.32 115.21 15.32H111.442V21.776L113.578 21.752C115.386 21.752 116.49 21.656 116.89 21.464C116.938 21.432 116.97 21.416 116.986 21.416C117.258 21.336 117.61 20.392 118.042 18.584L119.362 18.704C119.378 18.976 119.386 19.464 119.386 20.168C119.386 20.856 119.298 21.8 119.122 23H107.434ZM121.638 23L121.494 22.064C122.342 21.92 122.854 21.76 123.03 21.584C123.222 21.408 123.318 21.072 123.318 20.576V8.792C123.318 8.296 123.222 7.96 123.03 7.784C122.854 7.608 122.342 7.448 121.494 7.304L121.638 6.368H128.31C130.022 6.368 131.294 6.72 132.126 7.424C132.958 8.128 133.374 9.08 133.374 10.28C133.374 11.48 133.046 12.528 132.39 13.424C131.734 14.304 130.814 14.944 129.63 15.344V15.464C129.79 15.512 129.966 15.688 130.158 15.992L133.542 21.08C133.782 21.432 134.014 21.672 134.238 21.8C134.478 21.928 134.902 22.016 135.51 22.064L135.366 23H131.958L127.206 15.704H125.646V21.152C125.646 21.504 125.806 21.712 126.126 21.776L127.446 22.064L127.35 23H121.638ZM125.646 14.48H126.966C128.23 14.48 129.182 14.208 129.822 13.664C130.478 13.104 130.806 12.088 130.806 10.616C130.806 8.632 129.726 7.64 127.566 7.64H126.126C125.806 7.64 125.646 7.832 125.646 8.216V14.48ZM138.77 21.032C139.042 21.224 139.482 21.416 140.09 21.608C140.714 21.784 141.41 21.872 142.178 21.872C142.946 21.872 143.586 21.64 144.098 21.176C144.61 20.712 144.866 20.088 144.866 19.304C144.866 18.088 144.178 17.096 142.802 16.328C142.45 16.152 141.906 15.912 141.17 15.608C140.434 15.288 139.914 15.056 139.61 14.912C139.306 14.752 138.946 14.536 138.53 14.264C138.13 13.976 137.818 13.688 137.594 13.4C137.034 12.712 136.754 11.872 136.754 10.88C136.754 9.424 137.29 8.272 138.362 7.424C139.45 6.576 140.858 6.152 142.586 6.152C143.898 6.152 145.13 6.368 146.282 6.8C146.33 7.184 146.354 7.696 146.354 8.336C146.354 8.96 146.266 9.8 146.09 10.856L144.698 11.024C144.522 9.216 144.306 8.208 144.05 8C143.666 7.664 142.962 7.496 141.938 7.496C140.93 7.496 140.146 7.704 139.586 8.12C139.026 8.52 138.746 9.112 138.746 9.896C138.746 10.344 138.834 10.744 139.01 11.096C139.186 11.448 139.506 11.776 139.97 12.08C140.434 12.384 140.802 12.6 141.074 12.728C141.474 12.936 142.034 13.192 142.754 13.496C143.474 13.8 144.034 14.064 144.434 14.288C144.834 14.512 145.266 14.808 145.73 15.176C146.626 15.928 147.074 17.016 147.074 18.44C147.074 19.864 146.562 21.016 145.538 21.896C144.53 22.776 143.146 23.216 141.386 23.216C140.442 23.216 139.498 23.104 138.554 22.88C137.626 22.64 136.946 22.408 136.514 22.184C136.466 21.992 136.442 21.536 136.442 20.816C136.442 20.096 136.538 19.224 136.73 18.2L138.098 18.128C138.226 19.28 138.33 20.024 138.41 20.36C138.506 20.696 138.626 20.92 138.77 21.032Z" fill="#79DAE8"/>
<path d="M0.86 22L0.74 21.22C1.46 21.0867 1.91333 20.9467 2.1 20.8C2.3 20.6533 2.4 20.38 2.4 19.98V10.16C2.4 9.74667 2.32 9.46667 2.16 9.32C2.01333 9.17333 1.58667 9.04 0.88 8.92L1 8.14H5.2L9.04 18.66C9.10667 18.8733 9.15333 19.04 9.18 19.16H9.38C9.39333 19.0133 9.42667 18.88 9.48 18.76L13.38 8.14H17L17.08 8.92L16.24 9.16C15.9867 9.24 15.86 9.39333 15.86 9.62V20.46C15.86 20.7533 15.9933 20.9267 16.26 20.98L17.5 21.22L17.42 22H12.48L12.36 21.22C13.0133 21.1 13.4333 20.9733 13.62 20.84C13.82 20.6933 13.92 20.46 13.92 20.14V11C13.92 10.6933 13.94 10.44 13.98 10.24H13.82L9.6 21.6H8.16L3.9 10.2H3.74V20C3.74 20.32 3.8 20.56 3.92 20.72C4.05333 20.88 4.28667 20.9867 4.62 21.04L5.6 21.22L5.52 22H0.86ZM23.3817 22.18C21.9417 22.18 20.8351 21.7533 20.0617 20.9C19.2884 20.0467 18.9017 18.8533 18.9017 17.32C18.9017 15.7867 19.3084 14.56 20.1217 13.64C20.9484 12.7067 22.0817 12.24 23.5217 12.24C24.9751 12.24 26.0884 12.6733 26.8617 13.54C27.6351 14.3933 28.0217 15.5867 28.0217 17.12C28.0217 18.6533 27.6084 19.88 26.7817 20.8C25.9684 21.72 24.8351 22.18 23.3817 22.18ZM20.8417 17.06C20.8417 18.2467 21.0817 19.22 21.5617 19.98C22.0417 20.74 22.6951 21.12 23.5217 21.12C24.3484 21.12 24.9351 20.92 25.2817 20.52C25.5217 20.2533 25.7151 19.8333 25.8617 19.26C26.0084 18.6733 26.0817 18.04 26.0817 17.36C26.0817 16.1733 25.8417 15.2 25.3617 14.44C24.8817 13.68 24.2284 13.3 23.4017 13.3C22.5751 13.3 21.9884 13.5 21.6417 13.9C21.4017 14.1667 21.2084 14.5933 21.0617 15.18C20.9151 15.7533 20.8417 16.38 20.8417 17.06ZM35.8523 20.68C35.079 21.68 34.1523 22.18 33.0723 22.18C31.9923 22.18 31.1057 21.7533 30.4123 20.9C29.719 20.0333 29.3723 18.8533 29.3723 17.36C29.3723 15.8667 29.7657 14.64 30.5523 13.68C31.339 12.72 32.439 12.24 33.8523 12.24C34.8257 12.24 35.5457 12.4133 36.0123 12.76L36.1523 12.7C36.099 12.4867 36.0723 12.1933 36.0723 11.82V8.46C36.0723 8.18 35.9323 7.97333 35.6523 7.84C35.3857 7.69333 34.899 7.57333 34.1923 7.48L34.3123 6.84C35.739 6.65333 36.8523 6.56 37.6523 6.56L37.8723 6.76V20.04C37.8723 20.3867 37.9523 20.6333 38.1123 20.78C38.2857 20.9133 38.7123 21.0467 39.3923 21.18L39.2723 21.82L36.8723 22.08C36.739 22.08 36.5923 21.9467 36.4323 21.68C36.2723 21.4133 36.1923 21.1733 36.1923 20.96C36.1923 20.7467 36.199 20.5867 36.2123 20.48L36.0523 20.42L35.8523 20.68ZM31.3123 16.88C31.3123 18.2 31.519 19.1733 31.9323 19.8C32.359 20.4267 32.8923 20.74 33.5323 20.74C34.1723 20.74 34.839 20.5133 35.5323 20.06C35.8923 19.82 36.0723 19.5133 36.0723 19.14V14.36C35.5257 13.7067 34.6723 13.38 33.5123 13.38C32.939 13.38 32.4857 13.5667 32.1523 13.94C31.5923 14.5667 31.3123 15.5467 31.3123 16.88ZM41.8791 19.52V14.24C41.8791 13.96 41.7724 13.76 41.5591 13.64C41.3457 13.5067 40.9457 13.38 40.3591 13.26L40.4791 12.62C41.9057 12.4333 42.8991 12.34 43.4591 12.34L43.6791 12.54V18.66C43.6791 20.0467 44.2057 20.74 45.2591 20.74C45.9391 20.74 46.6457 20.48 47.3791 19.96C47.5524 19.84 47.6657 19.7267 47.7191 19.62C47.7724 19.5 47.7991 19.3067 47.7991 19.04V14.24C47.7991 13.96 47.6924 13.76 47.4791 13.64C47.2657 13.5067 46.8657 13.38 46.2791 13.26L46.3991 12.62C47.8257 12.4333 48.8191 12.34 49.3791 12.34L49.5991 12.54V20.02C49.5991 20.3667 49.6791 20.6133 49.8391 20.76C50.0124 20.8933 50.4391 21.0267 51.1191 21.16L50.9991 21.8L48.4191 22.08C48.3257 22.0933 48.2257 21.92 48.1191 21.56C48.0257 21.1867 47.9791 20.8667 47.9791 20.6V20.48L47.8191 20.42L47.5791 20.7C46.7391 21.6867 45.7124 22.18 44.4991 22.18C43.6857 22.18 43.0457 21.9667 42.5791 21.54C42.1124 21.1 41.8791 20.4267 41.8791 19.52ZM52.382 22L52.262 21.22C52.9154 21.0867 53.3087 20.9533 53.442 20.82C53.5887 20.6733 53.662 20.4267 53.662 20.08V8.46C53.662 8.18 53.5554 7.98 53.342 7.86C53.1287 7.72667 52.7287 7.6 52.142 7.48L52.262 6.84C53.6887 6.65333 54.682 6.56 55.242 6.56L55.462 6.76V20.56C55.462 20.72 55.4954 20.8267 55.562 20.88C55.642 20.92 55.742 20.9533 55.862 20.98L56.842 21.22L56.762 22H52.382ZM62.5567 22.18C61.2101 22.18 60.1634 21.72 59.4167 20.8C58.6834 19.88 58.3167 18.72 58.3167 17.32C58.3167 15.9067 58.7434 14.7067 59.5967 13.72C60.4501 12.7333 61.5767 12.24 62.9767 12.24C65.2434 12.24 66.4301 13.6333 66.5367 16.42L66.0167 16.8L60.2167 17.12C60.2167 19.5867 61.2701 20.82 63.3767 20.82C64.2967 20.82 65.1967 20.5933 66.0767 20.14L66.4967 20.8C66.0567 21.16 65.4834 21.48 64.7767 21.76C64.0701 22.04 63.3301 22.18 62.5567 22.18ZM60.2767 16.2L64.4167 15.84C64.5501 15.8267 64.6167 15.7 64.6167 15.46C64.6167 14.8733 64.4567 14.3667 64.1367 13.94C63.8301 13.5133 63.3034 13.3 62.5567 13.3C61.8101 13.3 61.2634 13.5533 60.9167 14.06C60.5834 14.5533 60.3701 15.2667 60.2767 16.2Z" fill="#79DAE8"/>
</svg>
