<svg width="92" height="38" viewBox="0 0 92 38" fill="none" xmlns="http://www.w3.org/2000/svg">
<path d="M4.804 24.688H13.264V28H0.7V2.98H4.804V24.688ZM25.3001 28.324C23.4281 28.324 21.7361 27.904 20.2241 27.064C18.7121 26.2 17.5241 25 16.6601 23.464C15.7961 21.904 15.3641 20.104 15.3641 18.064C15.3641 16.048 15.8081 14.26 16.6961 12.7C17.5841 11.14 18.7961 9.94 20.3321 9.1C21.8681 8.26 23.5841 7.84 25.4801 7.84C27.3761 7.84 29.0921 8.26 30.6281 9.1C32.1641 9.94 33.3761 11.14 34.2641 12.7C35.1521 14.26 35.5961 16.048 35.5961 18.064C35.5961 20.08 35.1401 21.868 34.2281 23.428C33.3161 24.988 32.0681 26.2 30.4841 27.064C28.9241 27.904 27.1961 28.324 25.3001 28.324ZM25.3001 24.76C26.3561 24.76 27.3401 24.508 28.2521 24.004C29.1881 23.5 29.9441 22.744 30.5201 21.736C31.0961 20.728 31.3841 19.504 31.3841 18.064C31.3841 16.624 31.1081 15.412 30.5561 14.428C30.0041 13.42 29.2721 12.664 28.3601 12.16C27.4481 11.656 26.4641 11.404 25.4081 11.404C24.3521 11.404 23.3681 11.656 22.4561 12.16C21.5681 12.664 20.8601 13.42 20.3321 14.428C19.8041 15.412 19.5401 16.624 19.5401 18.064C19.5401 20.2 20.0801 21.856 21.1601 23.032C22.2641 24.184 23.6441 24.76 25.3001 24.76ZM47.6451 7.84C49.1811 7.84 50.5371 8.152 51.7131 8.776C52.9131 9.376 53.8491 10.132 54.5211 11.044V8.164H58.6611V28.324C58.6611 30.148 58.2771 31.768 57.5091 33.184C56.7411 34.624 55.6251 35.752 54.1611 36.568C52.7211 37.384 50.9931 37.792 48.9771 37.792C46.2891 37.792 44.0571 37.156 42.2811 35.884C40.5051 34.636 39.4971 32.932 39.2571 30.772H43.3251C43.6371 31.804 44.2971 32.632 45.3051 33.256C46.3371 33.904 47.5611 34.228 48.9771 34.228C50.6331 34.228 51.9651 33.724 52.9731 32.716C54.0051 31.708 54.5211 30.244 54.5211 28.324V25.012C53.8251 25.948 52.8771 26.74 51.6771 27.388C50.5011 28.012 49.1571 28.324 47.6451 28.324C45.9171 28.324 44.3331 27.892 42.8931 27.028C41.4771 26.14 40.3491 24.916 39.5091 23.356C38.6931 21.772 38.2851 19.984 38.2851 17.992C38.2851 16 38.6931 14.236 39.5091 12.7C40.3491 11.164 41.4771 9.976 42.8931 9.136C44.3331 8.272 45.9171 7.84 47.6451 7.84ZM54.5211 18.064C54.5211 16.696 54.2331 15.508 53.6571 14.5C53.1051 13.492 52.3731 12.724 51.4611 12.196C50.5491 11.668 49.5651 11.404 48.5091 11.404C47.4531 11.404 46.4691 11.668 45.5571 12.196C44.6451 12.7 43.9011 13.456 43.3251 14.464C42.7731 15.448 42.4971 16.624 42.4971 17.992C42.4971 19.36 42.7731 20.56 43.3251 21.592C43.9011 22.624 44.6451 23.416 45.5571 23.968C46.4931 24.496 47.4771 24.76 48.5091 24.76C49.5651 24.76 50.5491 24.496 51.4611 23.968C52.3731 23.44 53.1051 22.672 53.6571 21.664C54.2331 20.632 54.5211 19.432 54.5211 18.064ZM66.1396 5.536C65.3956 5.536 64.7716 5.284 64.2676 4.78C63.7636 4.276 63.5116 3.652 63.5116 2.908C63.5116 2.164 63.7636 1.54 64.2676 1.036C64.7716 0.531999 65.3956 0.279999 66.1396 0.279999C66.8596 0.279999 67.4716 0.531999 67.9756 1.036C68.4796 1.54 68.7316 2.164 68.7316 2.908C68.7316 3.652 68.4796 4.276 67.9756 4.78C67.4716 5.284 66.8596 5.536 66.1396 5.536ZM68.1556 8.164V28H64.0516V8.164H68.1556ZM83.5518 7.84C85.1118 7.84 86.5038 8.164 87.7278 8.812C88.9758 9.46 89.9478 10.42 90.6438 11.692C91.3398 12.964 91.6878 14.5 91.6878 16.3V28H87.6198V16.912C87.6198 15.136 87.1758 13.78 86.2878 12.844C85.3998 11.884 84.1878 11.404 82.6518 11.404C81.1158 11.404 79.8918 11.884 78.9798 12.844C78.0918 13.78 77.6478 15.136 77.6478 16.912V28H73.5438V8.164H77.6478V10.432C78.3198 9.616 79.1718 8.98 80.2038 8.524C81.2598 8.068 82.3758 7.84 83.5518 7.84Z" fill="#79DAE8"/>
</svg>
