<svg width="84" height="106" viewBox="0 0 84 106" fill="none" xmlns="http://www.w3.org/2000/svg">
<path d="M42 33.1111C44.0428 33.1111 46.0656 32.7088 47.9529 31.927C49.8401 31.1453 51.555 29.9995 52.9994 28.555C54.4439 27.1105 55.5897 25.3957 56.3715 23.5084C57.1532 21.6211 57.5556 19.5983 57.5556 17.5556C57.5556 15.5128 57.1532 13.49 56.3715 11.6027C55.5897 9.71541 54.4439 8.00058 52.9994 6.55612C51.555 5.11165 49.8401 3.96584 47.9529 3.1841C46.0656 2.40236 44.0428 2 42 2C37.8744 2 33.9178 3.63889 31.0006 6.55612C28.0833 9.47335 26.4444 13.43 26.4444 17.5556C26.4444 21.6811 28.0833 25.6378 31.0006 28.555C33.9178 31.4722 37.8744 33.1111 42 33.1111ZM2 79.3333V82H82V79.3333C82 69.3778 82 64.4 80.0622 60.5956C78.3578 57.2506 75.6383 54.5311 72.2933 52.8267C68.4889 50.8889 63.5111 50.8889 53.5556 50.8889H30.4444C20.4889 50.8889 15.5111 50.8889 11.7067 52.8267C8.36171 54.5311 5.64217 57.2506 3.93778 60.5956C2 64.4 2 69.3778 2 79.3333Z" fill="#79DAE8" stroke="#666666" stroke-opacity="0.7" stroke-width="4" stroke-linecap="round" stroke-linejoin="round"/>
<path d="M8.14538 94.978C8.14538 94.5673 8.06604 94.292 7.90738 94.152C7.75804 94.012 7.38938 93.9093 6.80138 93.844L6.88538 93.298H10.1754L10.2314 93.844L9.36338 94.012C9.19538 94.0493 9.10671 94.1147 9.09738 94.208C9.08804 94.2453 9.08338 94.3013 9.08338 94.376V99.402C9.08338 100.55 8.77071 101.46 8.14538 102.132C7.52004 102.795 6.58204 103.126 5.33138 103.126C2.92338 103.126 1.71938 101.922 1.71938 99.514V94.712C1.71938 94.4227 1.66338 94.2267 1.55138 94.124C1.44871 94.0213 1.15004 93.928 0.655375 93.844L0.739375 93.298H4.16938L4.22537 93.844L3.35738 94.012C3.17071 94.0493 3.07738 94.1707 3.07738 94.376V99.304C3.07738 100.256 3.27338 100.975 3.66538 101.46C4.05738 101.945 4.69204 102.188 5.56938 102.188C6.45604 102.188 7.10471 101.927 7.51538 101.404C7.93538 100.881 8.14538 100.251 8.14538 99.514V94.978ZM11.762 104.596V97.624C11.762 97.3813 11.7013 97.2133 11.58 97.12C11.468 97.0173 11.174 96.9193 10.698 96.826L10.782 96.378C11.9393 96.2567 12.546 96.196 12.602 96.196C12.658 96.196 12.7233 96.322 12.798 96.574C12.882 96.8167 12.924 97.0313 12.924 97.218V97.358L13.036 97.4L13.176 97.218C13.7173 96.518 14.366 96.168 15.122 96.168C15.878 96.168 16.4986 96.4713 16.984 97.078C17.4693 97.6753 17.712 98.4967 17.712 99.542C17.712 100.587 17.4366 101.446 16.886 102.118C16.3353 102.79 15.5653 103.126 14.576 103.126C13.876 103.126 13.372 103.005 13.064 102.762L12.966 102.804C13.0033 103.009 13.022 103.215 13.022 103.42V104.932C13.022 105.053 13.0453 105.128 13.092 105.156C13.148 105.193 13.218 105.217 13.302 105.226L14.576 105.394L14.52 105.94H10.866L10.782 105.394C11.2393 105.301 11.5146 105.203 11.608 105.1C11.7106 105.007 11.762 104.839 11.762 104.596ZM13.022 101.642C13.4046 102.099 14.002 102.328 14.814 102.328C15.2153 102.328 15.5326 102.197 15.766 101.936C16.158 101.497 16.354 100.816 16.354 99.892C16.354 98.9587 16.2046 98.2727 15.906 97.834C15.6166 97.3953 15.248 97.176 14.8 97.176C14.352 97.176 13.8853 97.3347 13.4 97.652C13.148 97.82 13.022 98.0347 13.022 98.296V101.642ZM18.7709 103L18.6869 102.454C19.1443 102.361 19.4196 102.267 19.5129 102.174C19.6156 102.071 19.6669 101.899 19.6669 101.656V93.522C19.6669 93.326 19.5923 93.186 19.4429 93.102C19.2936 93.0087 19.0136 92.92 18.6029 92.836L18.6869 92.388C19.6856 92.2573 20.3809 92.192 20.7729 92.192L20.9269 92.332V101.992C20.9269 102.104 20.9503 102.179 20.9969 102.216C21.0529 102.244 21.1229 102.267 21.2069 102.286L21.8929 102.454L21.8369 103H18.7709ZM26.0332 103.126C25.0252 103.126 24.2506 102.827 23.7092 102.23C23.1679 101.633 22.8972 100.797 22.8972 99.724C22.8972 98.6507 23.1819 97.792 23.7512 97.148C24.3299 96.4947 25.1232 96.168 26.1312 96.168C27.1486 96.168 27.9279 96.4713 28.4692 97.078C29.0106 97.6753 29.2812 98.5107 29.2812 99.584C29.2812 100.657 28.9919 101.516 28.4132 102.16C27.8439 102.804 27.0506 103.126 26.0332 103.126ZM24.2552 99.542C24.2552 100.373 24.4232 101.054 24.7592 101.586C25.0952 102.118 25.5526 102.384 26.1312 102.384C26.7099 102.384 27.1206 102.244 27.3632 101.964C27.5312 101.777 27.6666 101.483 27.7692 101.082C27.8719 100.671 27.9232 100.228 27.9232 99.752C27.9232 98.9213 27.7552 98.24 27.4192 97.708C27.0832 97.176 26.6259 96.91 26.0472 96.91C25.4686 96.91 25.0579 97.05 24.8152 97.33C24.6472 97.5167 24.5119 97.8153 24.4092 98.226C24.3066 98.6273 24.2552 99.066 24.2552 99.542ZM30.3107 101.278C30.3107 100.578 30.6093 100.055 31.2067 99.71C31.804 99.3647 32.7747 99.1873 34.1187 99.178V98.73C34.1187 97.5167 33.68 96.91 32.8027 96.91C32.3827 96.91 32.1167 96.9707 32.0047 97.092C31.902 97.2133 31.79 97.61 31.6687 98.282L30.9127 98.198C30.838 97.9087 30.8007 97.61 30.8007 97.302C30.8007 96.9847 30.8053 96.7793 30.8147 96.686C31.3653 96.3407 32.0887 96.168 32.9847 96.168C33.8807 96.168 34.5013 96.3407 34.8467 96.686C35.2013 97.0313 35.3787 97.6007 35.3787 98.394V101.614C35.3787 101.857 35.4347 102.029 35.5467 102.132C35.668 102.225 35.9667 102.319 36.4427 102.412L36.3587 102.86L34.6787 103.042C34.5853 103.042 34.4873 102.953 34.3847 102.776C34.282 102.599 34.2307 102.435 34.2307 102.286C34.2307 102.127 34.2353 102.011 34.2447 101.936L34.1327 101.894L33.9647 102.146C33.526 102.799 32.924 103.126 32.1587 103.126C31.636 103.126 31.1973 102.963 30.8427 102.636C30.488 102.309 30.3107 101.857 30.3107 101.278ZM31.6687 101.152C31.6687 101.488 31.7573 101.745 31.9347 101.922C32.112 102.09 32.364 102.174 32.6907 102.174C33.0173 102.174 33.386 102.015 33.7967 101.698C34.0113 101.53 34.1187 101.353 34.1187 101.166V99.794C33.2787 99.8127 32.658 99.9247 32.2567 100.13C31.8647 100.335 31.6687 100.676 31.6687 101.152ZM41.9267 102.076C41.3854 102.776 40.7367 103.126 39.9807 103.126C39.2247 103.126 38.6041 102.827 38.1187 102.23C37.6334 101.623 37.3907 100.797 37.3907 99.752C37.3907 98.7067 37.6661 97.848 38.2167 97.176C38.7674 96.504 39.5374 96.168 40.5267 96.168C41.2081 96.168 41.7121 96.2893 42.0387 96.532L42.1367 96.49C42.0994 96.3407 42.0807 96.1353 42.0807 95.874V93.522C42.0807 93.326 41.9827 93.1813 41.7867 93.088C41.6001 92.9853 41.2594 92.9013 40.7647 92.836L40.8487 92.388C41.8474 92.2573 42.6267 92.192 43.1867 92.192L43.3407 92.332V101.628C43.3407 101.871 43.3967 102.043 43.5087 102.146C43.6301 102.239 43.9287 102.333 44.4047 102.426L44.3207 102.874L42.6407 103.056C42.5474 103.056 42.4447 102.963 42.3327 102.776C42.2207 102.589 42.1647 102.421 42.1647 102.272C42.1647 102.123 42.1694 102.011 42.1787 101.936L42.0667 101.894L41.9267 102.076ZM38.7487 99.416C38.7487 100.34 38.8934 101.021 39.1827 101.46C39.4814 101.899 39.8547 102.118 40.3027 102.118C40.7507 102.118 41.2174 101.959 41.7027 101.642C41.9547 101.474 42.0807 101.259 42.0807 100.998V97.652C41.6981 97.1947 41.1007 96.966 40.2887 96.966C39.8874 96.966 39.5701 97.0967 39.3367 97.358C38.9447 97.7967 38.7487 98.4827 38.7487 99.416ZM48.9891 103L48.9051 102.454C49.3997 102.37 49.6984 102.277 49.8011 102.174C49.9131 102.071 49.9691 101.875 49.9691 101.586V94.712C49.9691 94.4227 49.9131 94.2267 49.8011 94.124C49.6984 94.0213 49.3997 93.928 48.9051 93.844L48.9891 93.298H52.8951C53.8844 93.298 54.6264 93.5407 55.1211 94.026C55.6157 94.502 55.8631 95.1787 55.8631 96.056C55.8631 96.9333 55.5364 97.6847 54.8831 98.31C54.2391 98.9353 53.2964 99.248 52.0551 99.248H51.3271V101.922C51.3271 102.146 51.4204 102.267 51.6071 102.286L53.0211 102.454L52.9651 103H48.9891ZM51.3271 98.506H51.9431C52.5591 98.506 53.0957 98.3613 53.5531 98.072C54.0944 97.7267 54.3651 97.092 54.3651 96.168C54.3651 95.3093 54.1411 94.726 53.6931 94.418C53.3197 94.166 52.9137 94.04 52.4751 94.04H51.6071C51.4204 94.04 51.3271 94.152 51.3271 94.376V98.506ZM56.6694 103L56.5854 102.454C57.0427 102.361 57.318 102.267 57.4114 102.174C57.514 102.071 57.5654 101.899 57.5654 101.656V93.522C57.5654 93.326 57.4907 93.186 57.3414 93.102C57.192 93.0087 56.912 92.92 56.5014 92.836L56.5854 92.388C57.584 92.2573 58.2794 92.192 58.6714 92.192L58.8254 92.332V96.266C58.8254 96.7793 58.7927 97.1433 58.7274 97.358L58.8394 97.4L59.0074 97.204C59.586 96.5133 60.3094 96.168 61.1774 96.168C61.8027 96.168 62.288 96.35 62.6334 96.714C62.988 97.078 63.1654 97.5773 63.1654 98.212V101.992C63.1654 102.104 63.1887 102.179 63.2354 102.216C63.2914 102.244 63.3614 102.267 63.4454 102.286L64.1314 102.454L64.0754 103H61.0794L60.9954 102.454C61.4154 102.37 61.672 102.277 61.7654 102.174C61.8587 102.071 61.9054 101.899 61.9054 101.656V98.632C61.9054 98.184 61.8214 97.8293 61.6534 97.568C61.4947 97.3067 61.168 97.176 60.6734 97.176C60.188 97.176 59.6794 97.358 59.1474 97.722C59.026 97.806 58.942 97.89 58.8954 97.974C58.8487 98.0487 58.8254 98.1887 58.8254 98.394V101.992C58.8254 102.104 58.8487 102.179 58.8954 102.216C58.9514 102.244 59.0214 102.267 59.1054 102.286L59.7214 102.454L59.6654 103H56.6694ZM68.0332 103.126C67.0252 103.126 66.2506 102.827 65.7092 102.23C65.1679 101.633 64.8972 100.797 64.8972 99.724C64.8972 98.6507 65.1819 97.792 65.7512 97.148C66.3299 96.4947 67.1232 96.168 68.1312 96.168C69.1486 96.168 69.9279 96.4713 70.4692 97.078C71.0106 97.6753 71.2812 98.5107 71.2812 99.584C71.2812 100.657 70.9919 101.516 70.4132 102.16C69.8439 102.804 69.0506 103.126 68.0332 103.126ZM66.2552 99.542C66.2552 100.373 66.4232 101.054 66.7592 101.586C67.0952 102.118 67.5526 102.384 68.1312 102.384C68.7099 102.384 69.1206 102.244 69.3632 101.964C69.5312 101.777 69.6666 101.483 69.7692 101.082C69.8719 100.671 69.9232 100.228 69.9232 99.752C69.9232 98.9213 69.7552 98.24 69.4192 97.708C69.0832 97.176 68.6259 96.91 68.0472 96.91C67.4686 96.91 67.0579 97.05 66.8152 97.33C66.6472 97.5167 66.5119 97.8153 66.4092 98.226C66.3066 98.6273 66.2552 99.066 66.2552 99.542ZM72.9127 101.082V97.232H72.0027L71.9467 96.63L72.6327 96.462C72.81 96.4153 72.9267 96.3127 72.9827 96.154C73.048 95.986 73.16 95.4633 73.3187 94.586L74.1727 94.502V96.378H76.1187L76.0067 97.036L74.1727 97.246V100.662C74.1727 101.633 74.4713 102.118 75.0687 102.118C75.4047 102.118 75.7593 101.978 76.1327 101.698L76.4267 102.104C75.9227 102.785 75.3067 103.126 74.5787 103.126C74.056 103.126 73.6453 102.944 73.3467 102.58C73.0573 102.216 72.9127 101.717 72.9127 101.082ZM80.2012 103.126C79.1932 103.126 78.4185 102.827 77.8772 102.23C77.3359 101.633 77.0652 100.797 77.0652 99.724C77.0652 98.6507 77.3499 97.792 77.9192 97.148C78.4979 96.4947 79.2912 96.168 80.2992 96.168C81.3165 96.168 82.0959 96.4713 82.6372 97.078C83.1785 97.6753 83.4492 98.5107 83.4492 99.584C83.4492 100.657 83.1599 101.516 82.5812 102.16C82.0119 102.804 81.2185 103.126 80.2012 103.126ZM78.4232 99.542C78.4232 100.373 78.5912 101.054 78.9272 101.586C79.2632 102.118 79.7205 102.384 80.2992 102.384C80.8779 102.384 81.2885 102.244 81.5312 101.964C81.6992 101.777 81.8345 101.483 81.9372 101.082C82.0399 100.671 82.0912 100.228 82.0912 99.752C82.0912 98.9213 81.9232 98.24 81.5872 97.708C81.2512 97.176 80.7939 96.91 80.2152 96.91C79.6365 96.91 79.2259 97.05 78.9832 97.33C78.8152 97.5167 78.6799 97.8153 78.5772 98.226C78.4745 98.6273 78.4232 99.066 78.4232 99.542Z" fill="#79DAE8"/>
</svg>
