<svg width="143" height="44" viewBox="0 0 143 44" fill="none" xmlns="http://www.w3.org/2000/svg">
<g filter="url(#filter0_d_51_111)">
<rect x="6.5" y="7.05664" width="129.419" height="26.4433" rx="13.2216" fill="#2155CD" stroke="#79DAE8" stroke-width="5"/>
<mask id="path-2-outside-1_51_111" maskUnits="userSpaceOnUse" x="36.2892" y="5" width="56" height="22" fill="black">
<rect fill="white" x="36.2892" y="5" width="56" height="22"/>
<path d="M43.7752 25.234L39.6672 14.652C39.5459 14.3227 39.4245 14.1147 39.3032 14.028C39.1819 13.9413 38.8439 13.8373 38.2892 13.716L38.4452 12.702H43.8012L43.9052 13.716L42.3192 14.106C42.1979 14.1233 42.1372 14.1927 42.1372 14.314C42.1372 14.3313 42.1719 14.444 42.2412 14.652L44.5812 21.204C44.7892 21.8107 44.8932 22.2873 44.8932 22.634H45.1012L47.9872 15.25C48.0912 14.9727 48.1432 14.7473 48.1432 14.574C48.1432 14.3833 48.0132 14.2273 47.7532 14.106C47.5105 13.9847 47.0685 13.8547 46.4272 13.716L46.5832 12.702H51.2112L51.3152 13.716C50.7605 13.8547 50.4225 13.95 50.3012 14.002C50.1799 14.0367 50.1105 14.0887 50.0932 14.158L45.4652 25.234H43.7752ZM52.4096 25L52.2536 23.986C53.103 23.8127 53.6143 23.6393 53.7876 23.466C53.9783 23.2753 54.0736 22.9547 54.0736 22.504V15.042C54.0736 14.678 53.935 14.418 53.6576 14.262C53.3803 14.0887 52.8603 13.924 52.0976 13.768L52.2536 12.936C54.1083 12.6933 55.3996 12.572 56.1276 12.572L56.4136 12.832V23.128C56.4136 23.336 56.457 23.4747 56.5436 23.544C56.6476 23.596 56.7776 23.6393 56.9336 23.674L58.2076 23.986L58.1036 25H52.4096ZM56.4396 7.944C56.4396 8.37733 56.301 8.74133 56.0236 9.036C55.7636 9.33067 55.4083 9.478 54.9576 9.478C54.5243 9.478 54.1603 9.348 53.8656 9.088C53.5883 8.828 53.4496 8.47267 53.4496 8.022C53.4496 7.554 53.5796 7.18133 53.8396 6.904C54.117 6.62667 54.4896 6.488 54.9576 6.488C55.9456 6.488 56.4396 6.97333 56.4396 7.944ZM65.6325 25.234C63.8818 25.234 62.5211 24.636 61.5505 23.44C60.5971 22.244 60.1205 20.736 60.1205 18.916C60.1205 17.0787 60.6751 15.5187 61.7845 14.236C62.8938 12.9533 64.3585 12.312 66.1785 12.312C69.1251 12.312 70.6678 14.1233 70.8065 17.746L70.1305 18.24L62.5905 18.656C62.5905 21.8627 63.9598 23.466 66.6985 23.466C67.8945 23.466 69.0645 23.1713 70.2085 22.582L70.7545 23.44C70.1825 23.908 69.4371 24.324 68.5185 24.688C67.5998 25.052 66.6378 25.234 65.6325 25.234ZM62.6685 17.46L68.0505 16.992C68.2238 16.9747 68.3105 16.81 68.3105 16.498C68.3105 15.7353 68.1025 15.0767 67.6865 14.522C67.2878 13.9673 66.6031 13.69 65.6325 13.69C64.6618 13.69 63.9511 14.0193 63.5005 14.678C63.0671 15.3193 62.7898 16.2467 62.6685 17.46ZM77.0345 25.234L73.2645 14.652C73.1431 14.3227 73.0218 14.1147 72.9005 14.028C72.7791 13.9413 72.4325 13.8373 71.8605 13.716L72.0165 12.702H76.8265L76.9305 13.716L75.7865 14.08C75.6651 14.0973 75.6045 14.158 75.6045 14.262C75.6045 14.2793 75.6391 14.392 75.7085 14.6L78.1005 22.088C78.1698 22.2613 78.2045 22.4693 78.2045 22.712V22.816H78.4125C78.4125 22.6253 78.4818 22.3653 78.6205 22.036L80.9865 16.134L80.4925 14.652C80.3885 14.34 80.2758 14.1407 80.1545 14.054C80.0505 13.95 79.7818 13.8373 79.3485 13.716L79.5045 12.702H83.7685L83.8725 13.716L82.7285 14.08C82.6071 14.0973 82.5465 14.158 82.5465 14.262C82.5465 14.2793 82.5811 14.392 82.6505 14.6L85.0165 22.088C85.0858 22.296 85.1205 22.504 85.1205 22.712V22.816H85.3285C85.3285 22.712 85.3978 22.452 85.5365 22.036L87.9025 15.25C88.0065 14.9727 88.0585 14.7907 88.0585 14.704C88.0585 14.6 88.0498 14.5307 88.0325 14.496C88.0325 14.444 88.0151 14.4007 87.9805 14.366C87.9458 14.314 87.9111 14.2793 87.8765 14.262C87.8591 14.2273 87.8158 14.1927 87.7465 14.158C87.6945 14.1233 87.6425 14.0973 87.5905 14.08C87.5558 14.0453 87.4951 14.0107 87.4085 13.976C87.3218 13.9413 87.2438 13.9153 87.1745 13.898C87.1225 13.8807 87.0445 13.8547 86.9405 13.82C86.8365 13.768 86.7498 13.7333 86.6805 13.716L86.8365 12.702H91.1005L91.2045 13.716C90.6498 13.8547 90.3118 13.95 90.1905 14.002C90.0691 14.0367 89.9998 14.0887 89.9825 14.158L85.6665 25.234H83.9765L81.8445 18.682C81.7578 18.422 81.7145 18.188 81.7145 17.98H81.5065C81.5065 18.1707 81.4545 18.396 81.3505 18.656L78.7245 25.234H77.0345Z"/>
</mask>
<path d="M43.7752 25.234L39.6672 14.652C39.5459 14.3227 39.4245 14.1147 39.3032 14.028C39.1819 13.9413 38.8439 13.8373 38.2892 13.716L38.4452 12.702H43.8012L43.9052 13.716L42.3192 14.106C42.1979 14.1233 42.1372 14.1927 42.1372 14.314C42.1372 14.3313 42.1719 14.444 42.2412 14.652L44.5812 21.204C44.7892 21.8107 44.8932 22.2873 44.8932 22.634H45.1012L47.9872 15.25C48.0912 14.9727 48.1432 14.7473 48.1432 14.574C48.1432 14.3833 48.0132 14.2273 47.7532 14.106C47.5105 13.9847 47.0685 13.8547 46.4272 13.716L46.5832 12.702H51.2112L51.3152 13.716C50.7605 13.8547 50.4225 13.95 50.3012 14.002C50.1799 14.0367 50.1105 14.0887 50.0932 14.158L45.4652 25.234H43.7752ZM52.4096 25L52.2536 23.986C53.103 23.8127 53.6143 23.6393 53.7876 23.466C53.9783 23.2753 54.0736 22.9547 54.0736 22.504V15.042C54.0736 14.678 53.935 14.418 53.6576 14.262C53.3803 14.0887 52.8603 13.924 52.0976 13.768L52.2536 12.936C54.1083 12.6933 55.3996 12.572 56.1276 12.572L56.4136 12.832V23.128C56.4136 23.336 56.457 23.4747 56.5436 23.544C56.6476 23.596 56.7776 23.6393 56.9336 23.674L58.2076 23.986L58.1036 25H52.4096ZM56.4396 7.944C56.4396 8.37733 56.301 8.74133 56.0236 9.036C55.7636 9.33067 55.4083 9.478 54.9576 9.478C54.5243 9.478 54.1603 9.348 53.8656 9.088C53.5883 8.828 53.4496 8.47267 53.4496 8.022C53.4496 7.554 53.5796 7.18133 53.8396 6.904C54.117 6.62667 54.4896 6.488 54.9576 6.488C55.9456 6.488 56.4396 6.97333 56.4396 7.944ZM65.6325 25.234C63.8818 25.234 62.5211 24.636 61.5505 23.44C60.5971 22.244 60.1205 20.736 60.1205 18.916C60.1205 17.0787 60.6751 15.5187 61.7845 14.236C62.8938 12.9533 64.3585 12.312 66.1785 12.312C69.1251 12.312 70.6678 14.1233 70.8065 17.746L70.1305 18.24L62.5905 18.656C62.5905 21.8627 63.9598 23.466 66.6985 23.466C67.8945 23.466 69.0645 23.1713 70.2085 22.582L70.7545 23.44C70.1825 23.908 69.4371 24.324 68.5185 24.688C67.5998 25.052 66.6378 25.234 65.6325 25.234ZM62.6685 17.46L68.0505 16.992C68.2238 16.9747 68.3105 16.81 68.3105 16.498C68.3105 15.7353 68.1025 15.0767 67.6865 14.522C67.2878 13.9673 66.6031 13.69 65.6325 13.69C64.6618 13.69 63.9511 14.0193 63.5005 14.678C63.0671 15.3193 62.7898 16.2467 62.6685 17.46ZM77.0345 25.234L73.2645 14.652C73.1431 14.3227 73.0218 14.1147 72.9005 14.028C72.7791 13.9413 72.4325 13.8373 71.8605 13.716L72.0165 12.702H76.8265L76.9305 13.716L75.7865 14.08C75.6651 14.0973 75.6045 14.158 75.6045 14.262C75.6045 14.2793 75.6391 14.392 75.7085 14.6L78.1005 22.088C78.1698 22.2613 78.2045 22.4693 78.2045 22.712V22.816H78.4125C78.4125 22.6253 78.4818 22.3653 78.6205 22.036L80.9865 16.134L80.4925 14.652C80.3885 14.34 80.2758 14.1407 80.1545 14.054C80.0505 13.95 79.7818 13.8373 79.3485 13.716L79.5045 12.702H83.7685L83.8725 13.716L82.7285 14.08C82.6071 14.0973 82.5465 14.158 82.5465 14.262C82.5465 14.2793 82.5811 14.392 82.6505 14.6L85.0165 22.088C85.0858 22.296 85.1205 22.504 85.1205 22.712V22.816H85.3285C85.3285 22.712 85.3978 22.452 85.5365 22.036L87.9025 15.25C88.0065 14.9727 88.0585 14.7907 88.0585 14.704C88.0585 14.6 88.0498 14.5307 88.0325 14.496C88.0325 14.444 88.0151 14.4007 87.9805 14.366C87.9458 14.314 87.9111 14.2793 87.8765 14.262C87.8591 14.2273 87.8158 14.1927 87.7465 14.158C87.6945 14.1233 87.6425 14.0973 87.5905 14.08C87.5558 14.0453 87.4951 14.0107 87.4085 13.976C87.3218 13.9413 87.2438 13.9153 87.1745 13.898C87.1225 13.8807 87.0445 13.8547 86.9405 13.82C86.8365 13.768 86.7498 13.7333 86.6805 13.716L86.8365 12.702H91.1005L91.2045 13.716C90.6498 13.8547 90.3118 13.95 90.1905 14.002C90.0691 14.0367 89.9998 14.0887 89.9825 14.158L85.6665 25.234H83.9765L81.8445 18.682C81.7578 18.422 81.7145 18.188 81.7145 17.98H81.5065C81.5065 18.1707 81.4545 18.396 81.3505 18.656L78.7245 25.234H77.0345Z" fill="#E8F9FD"/>
<path d="M43.7752 25.234L42.843 25.5959L43.0907 26.234H43.7752V25.234ZM39.6672 14.652L38.7288 14.9977L38.7318 15.0058L38.735 15.0139L39.6672 14.652ZM39.3032 14.028L38.7219 14.8417H38.7219L39.3032 14.028ZM38.2892 13.716L37.3008 13.5639L37.158 14.4922L38.0755 14.6929L38.2892 13.716ZM38.4452 12.702V11.702H37.5873L37.4568 12.5499L38.4452 12.702ZM43.8012 12.702L44.796 12.6L44.7039 11.702H43.8012V12.702ZM43.9052 13.716L44.144 14.6871L44.9887 14.4793L44.9 13.614L43.9052 13.716ZM42.3192 14.106L42.4606 15.0959L42.5098 15.0889L42.558 15.0771L42.3192 14.106ZM42.2412 14.652L41.2925 14.9682L41.2959 14.9783L41.2994 14.9883L42.2412 14.652ZM44.5812 21.204L45.5272 20.8797L45.5229 20.8677L44.5812 21.204ZM44.8932 22.634H43.8932V23.634H44.8932V22.634ZM45.1012 22.634V23.634H45.784L46.0326 22.998L45.1012 22.634ZM47.9872 15.25L48.9187 15.6141L48.9235 15.6011L47.9872 15.25ZM47.7532 14.106L47.306 15.0004L47.3181 15.0065L47.3303 15.0122L47.7532 14.106ZM46.4272 13.716L45.4388 13.5639L45.2957 14.4945L46.2159 14.6934L46.4272 13.716ZM46.5832 12.702V11.702H45.7253L45.5948 12.5499L46.5832 12.702ZM51.2112 12.702L52.206 12.6L52.1139 11.702H51.2112V12.702ZM51.3152 13.716L51.5577 14.6861L52.3984 14.476L52.31 13.614L51.3152 13.716ZM50.3012 14.002L50.5759 14.9635L50.6368 14.9461L50.6951 14.9211L50.3012 14.002ZM50.0932 14.158L51.0159 14.5435L51.045 14.4738L51.0633 14.4005L50.0932 14.158ZM45.4652 25.234V26.234H46.1311L46.3879 25.6195L45.4652 25.234ZM44.7074 24.8721L40.5994 14.2901L38.735 15.0139L42.843 25.5959L44.7074 24.8721ZM40.6055 14.3063C40.5329 14.1093 40.449 13.9167 40.349 13.7451C40.2557 13.5853 40.1094 13.375 39.8844 13.2143L38.7219 14.8417C38.6646 14.8008 38.6328 14.7642 38.6223 14.7515C38.611 14.7378 38.6115 14.7358 38.6214 14.7529C38.6427 14.7893 38.6801 14.8654 38.7288 14.9977L40.6055 14.3063ZM39.8844 13.2143C39.6786 13.0672 39.4222 12.9813 39.2528 12.9292C39.0464 12.8657 38.7932 12.8026 38.5029 12.7391L38.0755 14.6929C38.3398 14.7507 38.533 14.8003 38.6646 14.8408C38.7303 14.861 38.7693 14.8755 38.7882 14.8833C38.8154 14.8947 38.7804 14.8835 38.7219 14.8417L39.8844 13.2143ZM39.2776 13.8681L39.4336 12.8541L37.4568 12.5499L37.3008 13.5639L39.2776 13.8681ZM38.4452 13.702H43.8012V11.702H38.4452V13.702ZM42.8064 12.804L42.9104 13.818L44.9 13.614L44.796 12.6L42.8064 12.804ZM43.6664 12.7449L42.0804 13.1349L42.558 15.0771L44.144 14.6871L43.6664 12.7449ZM42.1778 13.116C41.9594 13.1472 41.6636 13.2456 41.4301 13.5125C41.1954 13.7807 41.1372 14.0892 41.1372 14.314H43.1372C43.1372 14.4174 43.1093 14.6306 42.9353 14.8295C42.7624 15.0271 42.5576 15.0821 42.4606 15.0959L42.1778 13.116ZM41.1372 14.314C41.1372 14.4314 41.1594 14.5267 41.1603 14.531C41.1665 14.5605 41.1731 14.5861 41.1774 14.6025C41.1866 14.6368 41.1973 14.6728 41.2074 14.7056C41.2282 14.7731 41.2571 14.862 41.2925 14.9682L43.1899 14.3358C43.156 14.234 43.1329 14.1626 43.119 14.1174C43.1156 14.1066 43.1132 14.0985 43.1115 14.0928C43.1098 14.0868 43.1094 14.0853 43.1099 14.0872C43.1102 14.0883 43.111 14.0913 43.1121 14.0959C43.1132 14.1003 43.1151 14.1083 43.1174 14.119C43.1194 14.1286 43.1232 14.1474 43.1268 14.1718C43.1287 14.1844 43.131 14.202 43.133 14.2233C43.1349 14.2435 43.1372 14.2751 43.1372 14.314H41.1372ZM41.2994 14.9883L43.6394 21.5403L45.5229 20.8677L43.1829 14.3157L41.2994 14.9883ZM43.6352 21.5283C43.8325 22.1035 43.8932 22.4548 43.8932 22.634H45.8932C45.8932 22.1199 45.7459 21.5178 45.5271 20.8797L43.6352 21.5283ZM44.8932 23.634H45.1012V21.634H44.8932V23.634ZM46.0326 22.998L48.9186 15.614L47.0558 14.886L44.1698 22.27L46.0326 22.998ZM48.9235 15.6011C49.0441 15.2795 49.1432 14.9231 49.1432 14.574H47.1432C47.1432 14.5647 47.144 14.5864 47.1298 14.6481C47.116 14.708 47.0915 14.7906 47.0509 14.8989L48.9235 15.6011ZM49.1432 14.574C49.1432 13.8138 48.5875 13.3918 48.1761 13.1998L47.3303 15.0122C47.3784 15.0346 47.3372 15.0258 47.2775 14.9542C47.245 14.9153 47.2093 14.8601 47.1825 14.7886C47.1554 14.7163 47.1432 14.6426 47.1432 14.574H49.1432ZM48.2004 13.2116C47.8331 13.0279 47.2788 12.877 46.6385 12.7386L46.2159 14.6934C46.8582 14.8323 47.1879 14.9414 47.306 15.0004L48.2004 13.2116ZM47.4156 13.8681L47.5716 12.8541L45.5948 12.5499L45.4388 13.5639L47.4156 13.8681ZM46.5832 13.702H51.2112V11.702H46.5832V13.702ZM50.2164 12.804L50.3204 13.818L52.31 13.614L52.206 12.6L50.2164 12.804ZM51.0727 12.7459C50.5514 12.8762 50.1199 12.9917 49.9073 13.0829L50.6951 14.9211C50.6879 14.9242 50.7433 14.903 50.9171 14.8539C51.0725 14.8101 51.2849 14.7544 51.5577 14.6861L51.0727 12.7459ZM50.0265 13.0405C49.8274 13.0973 49.2779 13.296 49.123 13.9155L51.0633 14.4005C51.0052 14.6332 50.8668 14.7855 50.7582 14.867C50.6615 14.9395 50.5838 14.9613 50.5759 14.9635L50.0265 13.0405ZM49.1705 13.7725L44.5425 24.8485L46.3879 25.6195L51.0159 14.5435L49.1705 13.7725ZM45.4652 24.234H43.7752V26.234H45.4652V24.234ZM52.4096 25L51.4213 25.1521L51.5517 26H52.4096V25ZM52.2536 23.986L52.0537 23.0062L51.1204 23.1967L51.2653 24.1381L52.2536 23.986ZM53.7876 23.466L53.0805 22.7589L53.0805 22.7589L53.7876 23.466ZM53.6576 14.262L53.1276 15.11L53.1472 15.1222L53.1674 15.1336L53.6576 14.262ZM52.0976 13.768L51.1147 13.5837L50.9335 14.5506L51.8972 14.7477L52.0976 13.768ZM52.2536 12.936L52.1239 11.9445L51.4045 12.0386L51.2708 12.7517L52.2536 12.936ZM56.1276 12.572L56.8003 11.8321L56.5142 11.572H56.1276V12.572ZM56.4136 12.832H57.4136V12.3896L57.0863 12.0921L56.4136 12.832ZM56.5436 23.544L55.9189 24.3249L56.0017 24.391L56.0964 24.4384L56.5436 23.544ZM56.9336 23.674L57.1715 22.7027L57.161 22.7001L57.1506 22.6978L56.9336 23.674ZM58.2076 23.986L59.2024 24.088L59.2912 23.2218L58.4455 23.0147L58.2076 23.986ZM58.1036 25V26H59.0063L59.0984 25.102L58.1036 25ZM56.0236 9.036L55.2954 8.35064L55.2844 8.36233L55.2738 8.37438L56.0236 9.036ZM53.8656 9.088L53.1817 9.81754L53.1927 9.82785L53.204 9.83784L53.8656 9.088ZM53.8396 6.904L53.1325 6.19689L53.1211 6.20829L53.1101 6.22006L53.8396 6.904ZM53.398 24.8479L53.242 23.8339L51.2653 24.1381L51.4213 25.1521L53.398 24.8479ZM52.4536 24.9658C52.8979 24.8751 53.2835 24.7787 53.5952 24.6731C53.8618 24.5827 54.2308 24.437 54.4947 24.1731L53.0805 22.7589C53.1419 22.6975 53.1808 22.6845 53.1425 22.7038C53.1123 22.7192 53.0526 22.7452 52.9531 22.7789C52.7534 22.8466 52.4587 22.9235 52.0537 23.0062L52.4536 24.9658ZM54.4947 24.1731C54.9654 23.7025 55.0736 23.0517 55.0736 22.504H53.0736C53.0736 22.664 53.0561 22.7554 53.0436 22.7975C53.0321 22.8362 53.0332 22.8062 53.0805 22.7589L54.4947 24.1731ZM55.0736 22.504V15.042H53.0736V22.504H55.0736ZM55.0736 15.042C55.0736 14.3794 54.7911 13.7523 54.1479 13.3904L53.1674 15.1336C53.1637 15.1315 53.15 15.1231 53.1325 15.1056C53.1146 15.0877 53.0989 15.0665 53.0873 15.0446C53.0632 14.9995 53.0736 14.9861 53.0736 15.042H55.0736ZM54.1876 13.414C53.742 13.1355 53.0602 12.9442 52.298 12.7883L51.8972 14.7477C52.6604 14.9038 53.0186 15.0419 53.1276 15.11L54.1876 13.414ZM53.0805 13.9523L53.2365 13.1203L51.2708 12.7517L51.1147 13.5837L53.0805 13.9523ZM52.3834 13.9275C54.2413 13.6845 55.4729 13.572 56.1276 13.572V11.572C55.3264 11.572 53.9753 11.7022 52.1239 11.9445L52.3834 13.9275ZM55.455 13.3119L55.7409 13.5719L57.0863 12.0921L56.8003 11.8321L55.455 13.3119ZM55.4136 12.832V23.128H57.4136V12.832H55.4136ZM55.4136 23.128C55.4136 23.3935 55.4532 23.9523 55.9189 24.3249L57.1683 22.7631C57.322 22.8861 57.381 23.0269 57.4006 23.0897C57.419 23.1487 57.4136 23.1706 57.4136 23.128H55.4136ZM56.0964 24.4384C56.295 24.5377 56.5083 24.6039 56.7167 24.6502L57.1506 22.6978C57.0469 22.6748 57.0002 22.6543 56.9908 22.6496L56.0964 24.4384ZM56.6958 24.6453L57.9698 24.9573L58.4455 23.0147L57.1715 22.7027L56.6958 24.6453ZM57.2128 23.884L57.1088 24.898L59.0984 25.102L59.2024 24.088L57.2128 23.884ZM58.1036 24H52.4096V26H58.1036V24ZM55.4396 7.944C55.4396 8.1424 55.3851 8.2554 55.2954 8.35064L56.7518 9.72136C57.2169 9.22727 57.4396 8.61227 57.4396 7.944H55.4396ZM55.2738 8.37438C55.2324 8.42123 55.168 8.478 54.9576 8.478V10.478C55.6485 10.478 56.2948 10.2401 56.7735 9.69762L55.2738 8.37438ZM54.9576 8.478C54.741 8.478 54.62 8.41997 54.5272 8.33816L53.204 9.83784C53.7006 10.276 54.3076 10.478 54.9576 10.478V8.478ZM54.5496 8.35846C54.5112 8.32248 54.4496 8.25192 54.4496 8.022H52.4496C52.4496 8.69341 52.6654 9.33352 53.1817 9.81754L54.5496 8.35846ZM54.4496 8.022C54.4496 7.74634 54.521 7.63934 54.5692 7.58794L53.1101 6.22006C52.6383 6.72333 52.4496 7.36166 52.4496 8.022H54.4496ZM54.5467 7.61111C54.6009 7.55689 54.6999 7.488 54.9576 7.488V5.488C54.2794 5.488 53.633 5.69644 53.1325 6.19689L54.5467 7.61111ZM54.9576 7.488C55.1258 7.488 55.2327 7.509 55.2948 7.52934C55.3522 7.54815 55.3678 7.56487 55.3683 7.56534C55.3684 7.56543 55.3829 7.5779 55.4 7.6283C55.4188 7.68373 55.4396 7.78323 55.4396 7.944H57.4396C57.4396 7.29999 57.2745 6.63433 56.7699 6.13866C56.2687 5.64621 55.6014 5.488 54.9576 5.488V7.488ZM61.5504 23.44L60.7684 24.0633L60.774 24.0702L61.5504 23.44ZM61.7845 14.236L61.0281 13.5818L61.7845 14.236ZM70.8064 17.746L71.3965 18.5534L71.8261 18.2395L71.8057 17.7078L70.8064 17.746ZM70.1305 18.24L70.1855 19.2385L70.4813 19.2222L70.7205 19.0474L70.1305 18.24ZM62.5905 18.656L62.5354 17.6575L61.5905 17.7097V18.656H62.5905ZM70.2085 22.582L71.0521 22.0451L70.562 21.275L69.7505 21.693L70.2085 22.582ZM70.7545 23.44L71.3877 24.214L72.0746 23.6519L71.5981 22.9031L70.7545 23.44ZM68.5185 24.688L68.1501 23.7583L68.5185 24.688ZM62.6684 17.46L61.6734 17.3605L61.5534 18.5607L62.7551 18.4562L62.6684 17.46ZM68.0505 16.992L68.1371 17.9883L68.15 17.987L68.0505 16.992ZM67.6865 14.522L66.8744 15.1056L66.8804 15.1139L66.8864 15.122L67.6865 14.522ZM63.5005 14.678L62.6751 14.1133L62.6719 14.1181L63.5005 14.678ZM65.6325 24.234C64.1367 24.234 63.0803 23.7381 62.3269 22.8098L60.774 24.0702C61.962 25.5339 63.6268 26.234 65.6325 26.234V24.234ZM62.3324 22.8167C61.5458 21.8298 61.1205 20.5542 61.1205 18.916H59.1205C59.1205 20.9178 59.6484 22.6582 60.7685 24.0633L62.3324 22.8167ZM61.1205 18.916C61.1205 17.2973 61.6022 15.9754 62.5408 14.8902L61.0281 13.5818C59.748 15.0619 59.1205 16.8601 59.1205 18.916H61.1205ZM62.5408 14.8902C63.445 13.8447 64.6247 13.312 66.1785 13.312V11.312C64.0922 11.312 62.3426 12.062 61.0281 13.5818L62.5408 14.8902ZM66.1785 13.312C67.4348 13.312 68.2471 13.6883 68.7841 14.3189C69.3511 14.9846 69.7422 16.0856 69.8072 17.7842L71.8057 17.7078C71.7321 15.7837 71.2825 14.1678 70.3068 13.0221C69.3011 11.8413 67.8688 11.312 66.1785 11.312V13.312ZM70.2164 16.9386L69.5404 17.4326L70.7205 19.0474L71.3965 18.5534L70.2164 16.9386ZM70.0754 17.2415L62.5354 17.6575L62.6455 19.6545L70.1855 19.2385L70.0754 17.2415ZM61.5905 18.656C61.5905 20.3783 61.9548 21.8566 62.857 22.9129C63.785 23.9995 65.1301 24.466 66.6985 24.466V22.466C65.5281 22.466 64.8192 22.1308 64.3779 21.6141C63.9107 21.0671 63.5905 20.1404 63.5905 18.656H61.5905ZM66.6985 24.466C68.0657 24.466 69.3918 24.1276 70.6664 23.471L69.7505 21.693C68.7371 22.2151 67.7232 22.466 66.6985 22.466V24.466ZM69.3648 23.1189L69.9108 23.9769L71.5981 22.9031L71.0521 22.0451L69.3648 23.1189ZM70.1212 22.666C69.6507 23.051 69.0031 23.4203 68.1501 23.7583L68.8868 25.6177C69.8711 25.2277 70.7142 24.765 71.3877 24.214L70.1212 22.666ZM68.1501 23.7583C67.3507 24.075 66.5139 24.234 65.6325 24.234V26.234C66.7617 26.234 67.8488 26.029 68.8868 25.6177L68.1501 23.7583ZM62.7551 18.4562L68.1371 17.9882L67.9638 15.9958L62.5818 16.4638L62.7551 18.4562ZM68.15 17.987C68.5969 17.9423 68.9434 17.6765 69.1304 17.3212C69.2841 17.0291 69.3104 16.7198 69.3104 16.498H67.3104C67.3104 16.5882 67.2934 16.5172 67.3605 16.3898C67.4003 16.3143 67.472 16.2153 67.5907 16.1321C67.712 16.0473 67.8409 16.008 67.9509 15.997L68.15 17.987ZM69.3104 16.498C69.3104 15.5418 69.0453 14.6672 68.4865 13.922L66.8864 15.122C67.1596 15.4861 67.3104 15.9289 67.3104 16.498H69.3104ZM68.4985 13.9384C67.841 13.0236 66.7804 12.69 65.6325 12.69V14.69C66.4258 14.69 66.7346 14.9111 66.8744 15.1056L68.4985 13.9384ZM65.6325 12.69C64.413 12.69 63.3538 13.1214 62.6751 14.1133L64.3258 15.2427C64.5484 14.9173 64.9106 14.69 65.6325 14.69V12.69ZM62.6719 14.1181C62.1072 14.9538 61.8027 16.0679 61.6734 17.3605L63.6635 17.5595C63.7769 16.4254 64.027 15.6849 64.329 15.2379L62.6719 14.1181ZM77.0345 25.234L76.0925 25.5696L76.3292 26.234H77.0345V25.234ZM73.2645 14.652L74.2065 14.3164L74.2028 14.3063L73.2645 14.652ZM72.9005 14.028L72.3192 14.8417L72.9005 14.028ZM71.8605 13.716L70.8721 13.5639L70.7284 14.4981L71.653 14.6942L71.8605 13.716ZM72.0165 12.702V11.702H71.1585L71.0281 12.5499L72.0165 12.702ZM76.8265 12.702L77.8212 12.6L77.7291 11.702H76.8265V12.702ZM76.9305 13.716L77.2337 14.6689L78.0082 14.4225L77.9252 13.614L76.9305 13.716ZM75.7865 14.08L75.9279 15.0699L76.0103 15.0582L76.0897 15.0329L75.7865 14.08ZM75.7085 14.6L76.6611 14.2957L76.6572 14.2838L75.7085 14.6ZM78.1005 22.088L77.1479 22.3923L77.1587 22.4263L77.172 22.4594L78.1005 22.088ZM78.2045 22.816H77.2045V23.816H78.2045V22.816ZM78.4125 22.816V23.816H79.4125V22.816H78.4125ZM78.6205 22.036L79.5421 22.4241L79.5454 22.4161L79.5487 22.4081L78.6205 22.036ZM80.9865 16.134L81.9147 16.5061L82.0511 16.1657L81.9352 15.8178L80.9865 16.134ZM80.4925 14.652L79.5438 14.9682V14.9682L80.4925 14.652ZM80.1545 14.054L79.4474 14.7611L79.5059 14.8196L79.5732 14.8677L80.1545 14.054ZM79.3485 13.716L78.3601 13.5639L78.2253 14.44L79.0788 14.679L79.3485 13.716ZM79.5045 12.702V11.702H78.6465L78.5161 12.5499L79.5045 12.702ZM83.7685 12.702L84.7632 12.6L84.6711 11.702H83.7685V12.702ZM83.8725 13.716L84.1757 14.6689L84.9502 14.4225L84.8672 13.614L83.8725 13.716ZM82.7285 14.08L82.8699 15.0699L82.9523 15.0582L83.0317 15.0329L82.7285 14.08ZM82.6505 14.6L83.604 14.2987L83.6016 14.2912L83.5992 14.2838L82.6505 14.6ZM85.0165 22.088L84.0629 22.3893L84.0653 22.3968L84.0678 22.4042L85.0165 22.088ZM85.1205 22.816H84.1205V23.816H85.1205V22.816ZM85.3285 22.816V23.816H86.3285V22.816H85.3285ZM85.5365 22.036L84.5921 21.7067L84.5878 21.7198L85.5365 22.036ZM87.9025 15.25L86.9661 14.8989L86.962 14.9098L86.9582 14.9208L87.9025 15.25ZM88.0325 14.496H87.0325V14.7321L87.138 14.9432L88.0325 14.496ZM87.9805 14.366L87.1484 14.9207L87.2033 15.0031L87.2734 15.0731L87.9805 14.366ZM87.8765 14.262L86.982 14.7092L87.1311 15.0074L87.4293 15.1564L87.8765 14.262ZM87.7465 14.158L87.1918 14.99L87.2436 15.0246L87.2993 15.0524L87.7465 14.158ZM87.5905 14.08L86.8834 14.7871L87.0503 14.954L87.2742 15.0287L87.5905 14.08ZM87.1745 13.898L86.8582 14.8467L86.8947 14.8588L86.9319 14.8681L87.1745 13.898ZM86.9405 13.82L86.4932 14.7144L86.5568 14.7462L86.6242 14.7687L86.9405 13.82ZM86.6805 13.716L85.6921 13.5639L85.5535 14.465L86.4379 14.6861L86.6805 13.716ZM86.8365 12.702V11.702H85.9785L85.8481 12.5499L86.8365 12.702ZM91.1005 12.702L92.0952 12.6L92.0031 11.702H91.1005V12.702ZM91.2045 13.716L91.447 14.6861L92.2877 14.476L92.1992 13.614L91.2045 13.716ZM90.1905 14.002L90.4652 14.9635L90.5261 14.9461L90.5844 14.9211L90.1905 14.002ZM89.9825 14.158L90.9142 14.5211L90.9372 14.462L90.9526 14.4005L89.9825 14.158ZM85.6665 25.234V26.234H86.35L86.5982 25.5971L85.6665 25.234ZM83.9765 25.234L83.0255 25.5434L83.2503 26.234H83.9765V25.234ZM81.8445 18.682L82.7954 18.3726L82.7931 18.3658L81.8445 18.682ZM81.7145 17.98H82.7145V16.98H81.7145V17.98ZM81.5065 17.98V16.98H80.5065V17.98H81.5065ZM81.3505 18.656L80.422 18.2846L80.4217 18.2852L81.3505 18.656ZM78.7245 25.234V26.234H79.402L79.6532 25.6048L78.7245 25.234ZM77.9765 24.8984L74.2065 14.3164L72.3225 14.9876L76.0925 25.5696L77.9765 24.8984ZM74.2028 14.3063C74.1302 14.1093 74.0463 13.9167 73.9462 13.7451C73.853 13.5853 73.7067 13.375 73.4817 13.2143L72.3192 14.8417C72.2619 14.8008 72.2301 14.7642 72.2195 14.7515C72.2083 14.7378 72.2087 14.7358 72.2187 14.7529C72.2399 14.7893 72.2774 14.8654 72.3261 14.9977L74.2028 14.3063ZM73.4817 13.2143C73.2716 13.0642 73.0076 12.9784 72.8368 12.9272C72.6262 12.864 72.3667 12.8011 72.068 12.7378L71.653 14.6942C71.9262 14.7522 72.1261 14.802 72.2621 14.8428C72.3301 14.8632 72.3704 14.8779 72.3899 14.8858C72.4187 14.8976 72.381 14.8859 72.3192 14.8417L73.4817 13.2143ZM72.8488 13.8681L73.0048 12.8541L71.0281 12.5499L70.8721 13.5639L72.8488 13.8681ZM72.0165 13.702H76.8265V11.702H72.0165V13.702ZM75.8317 12.804L75.9357 13.818L77.9252 13.614L77.8212 12.6L75.8317 12.804ZM76.6273 12.7631L75.4833 13.1271L76.0897 15.0329L77.2337 14.6689L76.6273 12.7631ZM75.645 13.09C75.4591 13.1166 75.1794 13.1948 74.9429 13.4314C74.6864 13.6878 74.6045 14.0048 74.6045 14.262H76.6045C76.6045 14.4152 76.5528 14.6498 76.3571 14.8456C76.1812 15.0215 75.9925 15.0607 75.9279 15.0699L75.645 13.09ZM74.6045 14.262C74.6045 14.3794 74.6266 14.4747 74.6275 14.479C74.6338 14.5085 74.6404 14.5341 74.6447 14.5505C74.6539 14.5848 74.6646 14.6208 74.6747 14.6536C74.6955 14.7211 74.7244 14.81 74.7598 14.9162L76.6572 14.2838C76.6232 14.182 76.6001 14.1106 76.5862 14.0654C76.5829 14.0546 76.5805 14.0465 76.5788 14.0408C76.5771 14.0348 76.5767 14.0333 76.5772 14.0352C76.5775 14.0363 76.5783 14.0393 76.5794 14.0439C76.5805 14.0483 76.5824 14.0563 76.5846 14.067C76.5867 14.0766 76.5905 14.0954 76.5941 14.1198C76.5959 14.1324 76.5983 14.15 76.6003 14.1713C76.6021 14.1915 76.6045 14.2231 76.6045 14.262H74.6045ZM74.7559 14.9043L77.1479 22.3923L79.053 21.7837L76.661 14.2957L74.7559 14.9043ZM77.172 22.4594C77.1822 22.485 77.2045 22.5602 77.2045 22.712H79.2045C79.2045 22.3784 79.1574 22.0376 79.0289 21.7166L77.172 22.4594ZM77.2045 22.712V22.816H79.2045V22.712H77.2045ZM78.2045 23.816H78.4125V21.816H78.2045V23.816ZM79.4125 22.816C79.4125 22.8351 79.41 22.8131 79.4307 22.7357C79.4504 22.6618 79.4852 22.5592 79.5421 22.4241L77.6988 21.6479C77.5457 22.0116 77.4125 22.4213 77.4125 22.816H79.4125ZM79.5487 22.4081L81.9147 16.5061L80.0583 15.7619L77.6923 21.6639L79.5487 22.4081ZM81.9352 15.8178L81.4412 14.3358L79.5438 14.9682L80.0378 16.4502L81.9352 15.8178ZM81.4412 14.3358C81.3768 14.1427 81.2989 13.9504 81.2005 13.7764C81.1071 13.6112 80.9616 13.4016 80.7357 13.2403L79.5732 14.8677C79.5169 14.8275 79.4839 14.7904 79.4699 14.7734C79.4556 14.7559 79.453 14.7492 79.4594 14.7606C79.4655 14.7713 79.4768 14.7932 79.4921 14.8293C79.5072 14.865 79.5246 14.9108 79.5438 14.9682L81.4412 14.3358ZM80.8616 13.3469C80.6659 13.1512 80.4216 13.0363 80.2617 12.9693C80.0746 12.8908 79.8557 12.8196 79.6181 12.753L79.0788 14.679C79.2746 14.7338 79.4067 14.7795 79.4882 14.8137C79.5284 14.8305 79.5441 14.8395 79.543 14.8389C79.5418 14.8382 79.5324 14.8327 79.5174 14.8218C79.5029 14.8111 79.4776 14.7914 79.4474 14.7611L80.8616 13.3469ZM80.3368 13.8681L80.4928 12.8541L78.5161 12.5499L78.3601 13.5639L80.3368 13.8681ZM79.5045 13.702H83.7685V11.702H79.5045V13.702ZM82.7737 12.804L82.8777 13.818L84.8672 13.614L84.7632 12.6L82.7737 12.804ZM83.5693 12.7631L82.4253 13.1271L83.0317 15.0329L84.1757 14.6689L83.5693 12.7631ZM82.587 13.09C82.4011 13.1166 82.1214 13.1948 81.8849 13.4314C81.6284 13.6878 81.5465 14.0048 81.5465 14.262H83.5465C83.5465 14.4152 83.4948 14.6498 83.2991 14.8456C83.1232 15.0215 82.9345 15.0607 82.8699 15.0699L82.587 13.09ZM81.5465 14.262C81.5465 14.3794 81.5686 14.4747 81.5695 14.479C81.5758 14.5085 81.5823 14.5341 81.5867 14.5505C81.5959 14.5848 81.6066 14.6208 81.6167 14.6536C81.6375 14.7211 81.6664 14.81 81.7018 14.9162L83.5992 14.2838C83.5652 14.182 83.5421 14.1106 83.5282 14.0654C83.5249 14.0546 83.5225 14.0465 83.5208 14.0408C83.5191 14.0348 83.5187 14.0333 83.5192 14.0352C83.5195 14.0363 83.5203 14.0393 83.5214 14.0439C83.5225 14.0483 83.5244 14.0563 83.5266 14.067C83.5287 14.0766 83.5325 14.0954 83.5361 14.1198C83.5379 14.1324 83.5403 14.15 83.5423 14.1713C83.5441 14.1915 83.5465 14.2231 83.5465 14.262H81.5465ZM81.6969 14.9013L84.0629 22.3893L85.97 21.7867L83.604 14.2987L81.6969 14.9013ZM84.0678 22.4042C84.105 22.5158 84.1205 22.6172 84.1205 22.712H86.1205C86.1205 22.3908 86.0666 22.0762 85.9651 21.7718L84.0678 22.4042ZM84.1205 22.712V22.816H86.1205V22.712H84.1205ZM85.1205 23.816H85.3285V21.816H85.1205V23.816ZM86.3285 22.816C86.3285 22.8833 86.3193 22.9195 86.3238 22.8959C86.3264 22.882 86.3331 22.8518 86.3467 22.8007C86.3739 22.6987 86.4188 22.5513 86.4851 22.3522L84.5878 21.7198C84.5155 21.9367 84.4564 22.1273 84.4142 22.2853C84.3816 22.4075 84.3285 22.6164 84.3285 22.816H86.3285ZM86.4807 22.3652L88.8467 15.5792L86.9582 14.9208L84.5922 21.7068L86.4807 22.3652ZM88.8388 15.6011C88.8956 15.4496 88.9447 15.3071 88.981 15.1802C89.0097 15.0797 89.0585 14.8973 89.0585 14.704H87.0585C87.0585 14.6667 87.0611 14.6388 87.0629 14.6241C87.0647 14.6086 87.0665 14.599 87.0669 14.5969C87.0676 14.5935 87.0657 14.6035 87.0579 14.6308C87.0422 14.6859 87.0133 14.773 86.9661 14.8989L88.8388 15.6011ZM89.0585 14.704C89.0585 14.6285 89.0555 14.5404 89.0442 14.45C89.0352 14.378 89.0117 14.2183 88.9269 14.0488L87.138 14.9432C87.1 14.8672 87.0819 14.804 87.0737 14.771C87.0648 14.7354 87.0611 14.7094 87.0597 14.698C87.0571 14.6769 87.0585 14.6755 87.0585 14.704H89.0585ZM89.0325 14.496C89.0325 14.1966 88.922 13.8933 88.6876 13.6589L87.2734 15.0731C87.1999 14.9996 87.1351 14.9063 87.091 14.7959C87.0473 14.6867 87.0325 14.5827 87.0325 14.496H89.0325ZM88.8125 13.8113C88.7344 13.6942 88.5817 13.4966 88.3237 13.3676L87.4293 15.1564C87.3289 15.1062 87.2608 15.0476 87.2214 15.0081C87.1815 14.9682 87.1582 14.9353 87.1484 14.9207L88.8125 13.8113ZM88.7709 13.8148C88.5989 13.4708 88.2947 13.3141 88.1937 13.2636L87.2993 15.0524C87.2937 15.0496 87.2564 15.031 87.2063 14.9909C87.1602 14.954 87.0598 14.8647 86.982 14.7092L88.7709 13.8148ZM88.3012 13.326C88.1854 13.2487 88.0538 13.1804 87.9067 13.1313L87.2742 15.0287C87.2311 15.0143 87.2036 14.9979 87.1918 14.99L88.3012 13.326ZM88.2976 13.3729C88.1153 13.1906 87.8992 13.0952 87.7799 13.0475L87.0371 14.9045C87.0508 14.91 87.0434 14.908 87.0228 14.8962C87.0058 14.8865 86.9492 14.853 86.8834 14.7871L88.2976 13.3729ZM87.7799 13.0475C87.6631 13.0008 87.5411 12.9589 87.417 12.9279L86.9319 14.8681C86.9465 14.8718 86.9804 14.8818 87.0371 14.9045L87.7799 13.0475ZM87.4907 12.9493C87.4387 12.932 87.3607 12.906 87.2567 12.8713L86.6242 14.7687C86.7282 14.8034 86.8062 14.8293 86.8582 14.8467L87.4907 12.9493ZM87.3877 12.9256C87.2536 12.8585 87.0931 12.7884 86.923 12.7459L86.4379 14.6861C86.4179 14.6811 86.4128 14.6782 86.4261 14.6835C86.4383 14.6884 86.4603 14.698 86.4932 14.7144L87.3877 12.9256ZM87.6688 13.8681L87.8248 12.8541L85.8481 12.5499L85.6921 13.5639L87.6688 13.8681ZM86.8365 13.702H91.1005V11.702H86.8365V13.702ZM90.1057 12.804L90.2097 13.818L92.1992 13.614L92.0952 12.6L90.1057 12.804ZM90.9619 12.7459C90.4407 12.8762 90.0092 12.9917 89.7965 13.0829L90.5844 14.9211C90.5772 14.9242 90.6326 14.903 90.8064 14.8539C90.9618 14.8101 91.1742 14.7544 91.447 14.6861L90.9619 12.7459ZM89.9158 13.0405C89.7167 13.0973 89.1672 13.296 89.0123 13.9155L90.9526 14.4005C90.8944 14.6332 90.7561 14.7855 90.6475 14.867C90.5508 14.9395 90.4731 14.9613 90.4652 14.9635L89.9158 13.0405ZM89.0507 13.7949L84.7347 24.8709L86.5982 25.5971L90.9142 14.5211L89.0507 13.7949ZM85.6665 24.234H83.9765V26.234H85.6665V24.234ZM84.9274 24.9246L82.7954 18.3726L80.8935 18.9914L83.0255 25.5434L84.9274 24.9246ZM82.7931 18.3658C82.7303 18.1773 82.7145 18.0525 82.7145 17.98H80.7145C80.7145 18.3235 80.7853 18.6667 80.8958 18.9982L82.7931 18.3658ZM81.7145 16.98H81.5065V18.98H81.7145V16.98ZM80.5065 17.98C80.5065 17.9985 80.4989 18.0923 80.422 18.2846L82.2789 19.0274C82.41 18.6997 82.5065 18.3428 82.5065 17.98H80.5065ZM80.4217 18.2852L77.7957 24.8632L79.6532 25.6048L82.2792 19.0268L80.4217 18.2852ZM78.7245 24.234H77.0345V26.234H78.7245V24.234Z" fill="#79DAE8" mask="url(#path-2-outside-1_51_111)"/>
</g>
<defs>
<filter id="filter0_d_51_111" x="0" y="4.55664" width="142.419" height="39.4432" filterUnits="userSpaceOnUse" color-interpolation-filters="sRGB">
<feFlood flood-opacity="0" result="BackgroundImageFix"/>
<feColorMatrix in="SourceAlpha" type="matrix" values="0 0 0 0 0 0 0 0 0 0 0 0 0 0 0 0 0 0 127 0" result="hardAlpha"/>
<feOffset dy="4"/>
<feGaussianBlur stdDeviation="2"/>
<feComposite in2="hardAlpha" operator="out"/>
<feColorMatrix type="matrix" values="0 0 0 0 0 0 0 0 0 0 0 0 0 0 0 0 0 0 0.25 0"/>
<feBlend mode="normal" in2="BackgroundImageFix" result="effect1_dropShadow_51_111"/>
<feBlend mode="normal" in="SourceGraphic" in2="effect1_dropShadow_51_111" result="shape"/>
</filter>
</defs>
</svg>
