<svg width="64" height="29" viewBox="0 0 64 29" fill="none" xmlns="http://www.w3.org/2000/svg">
<path d="M4.804 6.292V13.636H13.444V16.984H4.804V24.652H14.524V28H0.7V2.944H14.524V6.292H4.804ZM18.2109 17.992C18.2109 16 18.6189 14.236 19.4349 12.7C20.2749 11.164 21.4029 9.976 22.8189 9.136C24.2589 8.272 25.8549 7.84 27.6069 7.84C28.9029 7.84 30.1749 8.128 31.4229 8.704C32.6949 9.256 33.7029 10 34.4469 10.936V1.36H38.5869V28H34.4469V25.012C33.7749 25.972 32.8389 26.764 31.6389 27.388C30.4629 28.012 29.1069 28.324 27.5709 28.324C25.8429 28.324 24.2589 27.892 22.8189 27.028C21.4029 26.14 20.2749 24.916 19.4349 23.356C18.6189 21.772 18.2109 19.984 18.2109 17.992ZM34.4469 18.064C34.4469 16.696 34.1589 15.508 33.5829 14.5C33.0309 13.492 32.2989 12.724 31.3869 12.196C30.4749 11.668 29.4909 11.404 28.4349 11.404C27.3789 11.404 26.3949 11.668 25.4829 12.196C24.5709 12.7 23.8269 13.456 23.2509 14.464C22.6989 15.448 22.4229 16.624 22.4229 17.992C22.4229 19.36 22.6989 20.56 23.2509 21.592C23.8269 22.624 24.5709 23.416 25.4829 23.968C26.4189 24.496 27.4029 24.76 28.4349 24.76C29.4909 24.76 30.4749 24.496 31.3869 23.968C32.2989 23.44 33.0309 22.672 33.5829 21.664C34.1589 20.632 34.4469 19.432 34.4469 18.064ZM46.0653 5.536C45.3213 5.536 44.6973 5.284 44.1933 4.78C43.6893 4.276 43.4373 3.652 43.4373 2.908C43.4373 2.164 43.6893 1.54 44.1933 1.036C44.6973 0.531999 45.3213 0.279999 46.0653 0.279999C46.7853 0.279999 47.3973 0.531999 47.9013 1.036C48.4053 1.54 48.6573 2.164 48.6573 2.908C48.6573 3.652 48.4053 4.276 47.9013 4.78C47.3973 5.284 46.7853 5.536 46.0653 5.536ZM48.0813 8.164V28H43.9773V8.164H48.0813ZM58.2575 11.512V22.492C58.2575 23.236 58.4255 23.776 58.7615 24.112C59.1215 24.424 59.7215 24.58 60.5615 24.58H63.0815V28H59.8415C57.9935 28 56.5775 27.568 55.5935 26.704C54.6095 25.84 54.1175 24.436 54.1175 22.492V11.512H51.7775V8.164H54.1175V3.232H58.2575V8.164H63.0815V11.512H58.2575Z" fill="#79DAE8"/>
</svg>
