<svg width="108" height="42" viewBox="0 0 108 42" fill="none" xmlns="http://www.w3.org/2000/svg">
<path d="M51.784 34.888H41.308L39.508 40H35.224L44.188 14.944H48.94L57.904 40H53.584L51.784 34.888ZM50.632 31.54L46.564 19.912L42.46 31.54H50.632ZM60.4336 29.992C60.4336 28 60.8416 26.236 61.6576 24.7C62.4976 23.164 63.6256 21.976 65.0416 21.136C66.4816 20.272 68.0776 19.84 69.8296 19.84C71.1256 19.84 72.3976 20.128 73.6456 20.704C74.9176 21.256 75.9256 22 76.6696 22.936V13.36H80.8096V40H76.6696V37.012C75.9976 37.972 75.0616 38.764 73.8616 39.388C72.6856 40.012 71.3296 40.324 69.7936 40.324C68.0656 40.324 66.4816 39.892 65.0416 39.028C63.6256 38.14 62.4976 36.916 61.6576 35.356C60.8416 33.772 60.4336 31.984 60.4336 29.992ZM76.6696 30.064C76.6696 28.696 76.3816 27.508 75.8056 26.5C75.2536 25.492 74.5216 24.724 73.6096 24.196C72.6976 23.668 71.7136 23.404 70.6576 23.404C69.6016 23.404 68.6176 23.668 67.7056 24.196C66.7936 24.7 66.0496 25.456 65.4736 26.464C64.9216 27.448 64.6456 28.624 64.6456 29.992C64.6456 31.36 64.9216 32.56 65.4736 33.592C66.0496 34.624 66.7936 35.416 67.7056 35.968C68.6416 36.496 69.6256 36.76 70.6576 36.76C71.7136 36.76 72.6976 36.496 73.6096 35.968C74.5216 35.44 75.2536 34.672 75.8056 33.664C76.3816 32.632 76.6696 31.432 76.6696 30.064ZM84.832 29.992C84.832 28 85.24 26.236 86.056 24.7C86.896 23.164 88.024 21.976 89.44 21.136C90.88 20.272 92.476 19.84 94.228 19.84C95.524 19.84 96.796 20.128 98.044 20.704C99.316 21.256 100.324 22 101.068 22.936V13.36H105.208V40H101.068V37.012C100.396 37.972 99.46 38.764 98.26 39.388C97.084 40.012 95.728 40.324 94.192 40.324C92.464 40.324 90.88 39.892 89.44 39.028C88.024 38.14 86.896 36.916 86.056 35.356C85.24 33.772 84.832 31.984 84.832 29.992ZM101.068 30.064C101.068 28.696 100.78 27.508 100.204 26.5C99.652 25.492 98.92 24.724 98.008 24.196C97.096 23.668 96.112 23.404 95.056 23.404C94 23.404 93.016 23.668 92.104 24.196C91.192 24.7 90.448 25.456 89.872 26.464C89.32 27.448 89.044 28.624 89.044 29.992C89.044 31.36 89.32 32.56 89.872 33.592C90.448 34.624 91.192 35.416 92.104 35.968C93.04 36.496 94.024 36.76 95.056 36.76C96.112 36.76 97.096 36.496 98.008 35.968C98.92 35.44 99.652 34.672 100.204 33.664C100.78 32.632 101.068 31.432 101.068 30.064Z" fill="#79DAE8"/>
<path d="M19 30.7143H10.8571V38H8.14286V30.7143H0V28.2857H8.14286V21H10.8571V28.2857H19V30.7143Z" fill="#79DAE8"/>
</svg>
