<svg width="28" height="29" viewBox="0 0 28 29" fill="none" xmlns="http://www.w3.org/2000/svg">
<path d="M8.16665 4.83329C8.16665 4.19235 8.41248 3.57766 8.85006 3.12445C9.28765 2.67124 9.88114 2.41663 10.5 2.41663H17.5C18.1188 2.41663 18.7123 2.67124 19.1499 3.12445C19.5875 3.57766 19.8333 4.19235 19.8333 4.83329V7.24996H24.5C24.8094 7.24996 25.1061 7.37727 25.3249 7.60387C25.5437 7.83048 25.6666 8.13782 25.6666 8.45829C25.6666 8.77876 25.5437 9.08611 25.3249 9.31271C25.1061 9.53932 24.8094 9.66663 24.5 9.66663H23.2528L22.2413 24.3382C22.1994 24.9479 21.936 25.5185 21.5041 25.9351C21.0722 26.3517 20.504 26.5833 19.9138 26.5833H8.08498C7.49481 26.5833 6.92656 26.3517 6.49468 25.9351C6.0628 25.5185 5.79938 24.9479 5.75748 24.3382L4.74831 9.66663H3.49998C3.19056 9.66663 2.89381 9.53932 2.67502 9.31271C2.45623 9.08611 2.33331 8.77876 2.33331 8.45829C2.33331 8.13782 2.45623 7.83048 2.67502 7.60387C2.89381 7.37727 3.19056 7.24996 3.49998 7.24996H8.16665V4.83329ZM10.5 7.24996H17.5V4.83329H10.5V7.24996ZM7.08631 9.66663L8.08615 24.1666H19.915L20.9148 9.66663H7.08631ZM11.6666 12.0833C11.9761 12.0833 12.2728 12.2106 12.4916 12.4372C12.7104 12.6638 12.8333 12.9712 12.8333 13.2916V20.5416C12.8333 20.8621 12.7104 21.1694 12.4916 21.396C12.2728 21.6227 11.9761 21.75 11.6666 21.75C11.3572 21.75 11.0605 21.6227 10.8417 21.396C10.6229 21.1694 10.5 20.8621 10.5 20.5416V13.2916C10.5 12.9712 10.6229 12.6638 10.8417 12.4372C11.0605 12.2106 11.3572 12.0833 11.6666 12.0833ZM16.3333 12.0833C16.6427 12.0833 16.9395 12.2106 17.1583 12.4372C17.3771 12.6638 17.5 12.9712 17.5 13.2916V20.5416C17.5 20.8621 17.3771 21.1694 17.1583 21.396C16.9395 21.6227 16.6427 21.75 16.3333 21.75C16.0239 21.75 15.7271 21.6227 15.5084 21.396C15.2896 21.1694 15.1666 20.8621 15.1666 20.5416V13.2916C15.1666 12.9712 15.2896 12.6638 15.5084 12.4372C15.7271 12.2106 16.0239 12.0833 16.3333 12.0833Z" fill="white"/>
</svg>
