<svg width="27" height="27" viewBox="0 0 27 27" fill="none" xmlns="http://www.w3.org/2000/svg">
<path d="M3.375 22.5V19.35C3.375 18.7125 3.53925 18.1267 3.86775 17.5927C4.19625 17.0587 4.632 16.6508 5.175 16.3688C6.3375 15.7875 7.51875 15.3517 8.71875 15.0615C9.91875 14.7712 11.1375 14.6257 12.375 14.625C12.75 14.625 13.125 14.6392 13.5 14.6678C13.875 14.6962 14.25 14.7382 14.625 14.7937C14.55 15.8812 14.7469 16.908 15.2156 17.874C15.6844 18.84 16.3688 19.632 17.2688 20.25V22.5H3.375ZM21.375 25.875L19.6875 24.1875V18.9563C18.8625 18.7125 18.1875 18.2486 17.6625 17.5646C17.1375 16.8806 16.875 16.0883 16.875 15.1875C16.875 14.1 17.2594 13.1719 18.0281 12.4031C18.7969 11.6344 19.725 11.25 20.8125 11.25C21.9 11.25 22.8281 11.6344 23.5969 12.4031C24.3656 13.1719 24.75 14.1 24.75 15.1875C24.75 16.0312 24.5107 16.7812 24.0322 17.4375C23.5537 18.0938 22.9492 18.5625 22.2188 18.8438L23.625 20.25L21.9375 21.9375L23.625 23.625L21.375 25.875ZM12.375 13.5C11.1375 13.5 10.0781 13.0594 9.19688 12.1781C8.31563 11.2969 7.875 10.2375 7.875 9C7.875 7.7625 8.31563 6.70313 9.19688 5.82188C10.0781 4.94063 11.1375 4.5 12.375 4.5C13.6125 4.5 14.6719 4.94063 15.5531 5.82188C16.4344 6.70313 16.875 7.7625 16.875 9C16.875 10.2375 16.4344 11.2969 15.5531 12.1781C14.6719 13.0594 13.6125 13.5 12.375 13.5ZM20.8125 15.75C21.1313 15.75 21.3986 15.642 21.6146 15.426C21.8306 15.21 21.9382 14.943 21.9375 14.625C21.9375 14.3062 21.8295 14.0393 21.6135 13.824C21.3975 13.6088 21.1305 13.5007 20.8125 13.5C20.4937 13.5 20.2267 13.608 20.0115 13.824C19.7962 14.04 19.6882 14.307 19.6875 14.625C19.6875 14.9438 19.7955 15.2111 20.0115 15.4271C20.2275 15.6431 20.4945 15.7507 20.8125 15.75Z" fill="#79DAE8"/>
</svg>
