<svg width="24" height="24" viewBox="0 0 24 24" fill="none" xmlns="http://www.w3.org/2000/svg">
<path d="M22.1333 23.25L13.7333 15.375C13.0667 15.875 12.3 16.2708 11.4333 16.5625C10.5667 16.8542 9.64444 17 8.66667 17C6.24444 17 4.19467 16.2133 2.51733 14.64C0.84 13.0667 0.000888889 11.145 0 8.875C0 6.60417 0.839111 4.6825 2.51733 3.11C4.19556 1.5375 6.24533 0.750833 8.66667 0.75C11.0889 0.75 13.1391 1.53667 14.8173 3.11C16.4956 4.68333 17.3342 6.605 17.3333 8.875C17.3333 9.79167 17.1778 10.6562 16.8667 11.4688C16.5556 12.2812 16.1333 13 15.6 13.625L24 21.5L22.1333 23.25ZM8.66667 14.5C10.3333 14.5 11.7502 13.9533 12.9173 12.86C14.0844 11.7667 14.6676 10.4383 14.6667 8.875C14.6667 7.3125 14.0836 5.98458 12.9173 4.89125C11.7511 3.79792 10.3342 3.25083 8.66667 3.25C7 3.25 5.58356 3.79708 4.41733 4.89125C3.25111 5.98542 2.66756 7.31333 2.66667 8.875C2.66667 10.4375 3.25022 11.7658 4.41733 12.86C5.58444 13.9542 7.00089 14.5008 8.66667 14.5Z" fill="white"/>
</svg>
