<svg width="27" height="25" viewBox="0 0 27 25" fill="none" xmlns="http://www.w3.org/2000/svg">
<path d="M22.0909 25C20.7409 25 19.5852 24.5104 18.6239 23.5312C17.6625 22.5521 17.1818 21.375 17.1818 20V14.375C17.1818 13.5 17.4784 12.7604 18.0716 12.1562C18.6648 11.5521 19.3909 11.25 20.25 11.25C21.1091 11.25 21.8352 11.5521 22.4284 12.1562C23.0216 12.7604 23.3182 13.5 23.3182 14.375V20H20.8636V14.375C20.8636 14.2083 20.8023 14.0625 20.6795 13.9375C20.5568 13.8125 20.4136 13.75 20.25 13.75C20.0864 13.75 19.9432 13.8125 19.8205 13.9375C19.6977 14.0625 19.6364 14.2083 19.6364 14.375V20C19.6364 20.6875 19.8769 21.2763 20.358 21.7663C20.8391 22.2563 21.4167 22.5008 22.0909 22.5C22.7659 22.5 23.344 22.2554 23.825 21.7663C24.3061 21.2771 24.5463 20.6883 24.5455 20V15H27V20C27 21.375 26.5193 22.5521 25.558 23.5312C24.5966 24.5104 23.4409 25 22.0909 25ZM2.45455 20C1.77955 20 1.20191 19.7554 0.721636 19.2663C0.241364 18.7771 0.000818182 18.1883 0 17.5V2.5C0 1.8125 0.240546 1.22417 0.721636 0.735C1.20273 0.245833 1.78036 0.000833333 2.45455 0H22.0909C22.7659 0 23.344 0.245 23.825 0.735C24.3061 1.225 24.5463 1.81333 24.5455 2.5V10H20.25C19.0636 10 18.0511 10.4271 17.2125 11.2812C16.3739 12.1354 15.9545 13.1667 15.9545 14.375V20H2.45455ZM12.2727 11.25L22.0909 5V2.5L12.2727 8.75L2.45455 2.5V5L12.2727 11.25Z" fill="#79DAE8"/>
</svg>
