<svg width="24" height="24" viewBox="0 0 24 24" fill="none" xmlns="http://www.w3.org/2000/svg">
<path opacity="0.3" d="M12 6.50005C10.1613 6.49394 8.35812 7.00684 6.79787 7.97978C5.23763 8.95272 3.98361 10.3462 3.17999 12.0001C4.82999 15.3701 8.19999 17.5001 12 17.5001C15.8 17.5001 19.17 15.3701 20.82 12.0001C20.0164 10.3462 18.7624 8.95272 17.2021 7.97978C15.6419 7.00684 13.8387 6.49394 12 6.50005ZM12 16.5001C9.51999 16.5001 7.49999 14.4801 7.49999 12.0001C7.49999 9.52005 9.51999 7.50005 12 7.50005C14.48 7.50005 16.5 9.52005 16.5 12.0001C16.5 14.4801 14.48 16.5001 12 16.5001Z" fill="#0AA1DD"/>
<path d="M12 4.5C7 4.5 2.73 7.61 1 12C2.73 16.39 7 19.5 12 19.5C17 19.5 21.27 16.39 23 12C21.27 7.61 17 4.5 12 4.5ZM12 17.5C10.1613 17.5061 8.35813 16.9932 6.79788 16.0203C5.23763 15.0473 3.98362 13.6538 3.18 12C4.83 8.63 8.21 6.5 12 6.5C15.79 6.5 19.17 8.63 20.82 12C20.0164 13.6538 18.7624 15.0473 17.2021 16.0203C15.6419 16.9932 13.8387 17.5061 12 17.5ZM12 7.5C9.52 7.5 7.5 9.52 7.5 12C7.5 14.48 9.52 16.5 12 16.5C14.48 16.5 16.5 14.48 16.5 12C16.5 9.52 14.48 7.5 12 7.5ZM12 14.5C11.337 14.5 10.7011 14.2366 10.2322 13.7678C9.76339 13.2989 9.5 12.663 9.5 12C9.5 11.337 9.76339 10.7011 10.2322 10.2322C10.7011 9.76339 11.337 9.5 12 9.5C12.663 9.5 13.2989 9.76339 13.7678 10.2322C14.2366 10.7011 14.5 11.337 14.5 12C14.5 12.663 14.2366 13.2989 13.7678 13.7678C13.2989 14.2366 12.663 14.5 12 14.5Z" fill="#0AA1DD"/>
</svg>
