<svg width="115" height="127" viewBox="0 0 115 127" fill="none" xmlns="http://www.w3.org/2000/svg">
<path d="M19.8615 73.5492C20.0394 75.4301 19.0357 77.0614 17.6335 77.1742C16.2314 77.2854 14.949 75.8525 14.7729 73.9716C14.595 72.089 15.5987 70.4594 17.0009 70.3466C18.403 70.2217 19.6854 71.6529 19.8615 73.5492ZM27.8947 94.2716C29.2968 94.1604 30.2988 92.5309 30.121 90.6483C29.9449 88.752 28.6607 87.3208 27.2603 87.4473C25.8582 87.5585 24.8545 89.188 25.0323 91.0706C25.2084 92.9515 26.4943 94.3844 27.8947 94.2716ZM50.1235 70.3466C51.5256 70.4577 52.5276 72.0873 52.3497 73.9699C52.1736 75.8661 50.8895 77.2973 49.4874 77.1725C48.0852 77.0597 47.0832 75.4301 47.2611 73.5475C47.4372 71.6666 48.7213 70.2337 50.1235 70.3466ZM47.22 82.5194C47.3979 80.6385 46.3941 79.0072 44.9937 78.8944C43.5916 78.7832 42.3092 80.2161 42.1313 82.097C41.9535 83.9796 42.9572 85.6092 44.3576 85.722C45.7598 85.8469 47.0422 84.4157 47.22 82.5194ZM39.864 87.4456C41.2661 87.5568 42.2681 89.1863 42.0903 91.0689C41.9142 92.9652 40.6301 94.3964 39.2279 94.2699C37.8258 94.1587 36.8238 92.5292 37.0016 90.6466C37.1778 88.7657 38.4619 87.3328 39.864 87.4456Z" fill="#0AA1DD"/>
<path d="M29.9415 54.0118L13.8872 60.9421C13.5127 61.1096 13.1759 61.3353 12.8783 61.6089C11.9486 61.8365 11.1222 62.3699 10.5318 63.1233C9.94146 63.8768 9.62129 64.8068 9.62269 65.764V89.9933C9.6228 90.9898 9.91313 91.9646 10.4582 92.7988C11.0032 93.6329 11.7794 94.2902 12.692 94.6905L29.2798 101.963C29.7876 102.185 30.3057 102.301 30.8187 102.322C32.5859 102.994 34.5386 102.994 36.3058 102.322C36.8153 102.301 37.3351 102.185 37.843 101.963L54.4291 94.6905C55.3422 94.2904 56.1189 93.6329 56.6643 92.7984C57.2097 91.9639 57.5001 90.9886 57.5 89.9916V65.7623C57.5016 64.8422 57.2058 63.9462 56.6567 63.2079C56.1076 62.4696 55.3346 61.9285 54.453 61.6653C54.153 61.3619 53.7993 61.1166 53.4099 60.9421L37.1829 54.0118C36.0436 53.5031 34.8099 53.2402 33.5622 53.2402C32.3145 53.2402 31.0808 53.5031 29.9415 54.0118ZM31.8515 75.1445V98.0504C31.8511 98.1922 31.8155 98.3317 31.7478 98.4563C31.6802 98.5809 31.5826 98.6867 31.4639 98.7642C31.3452 98.8417 31.209 98.8884 31.0678 98.9003C30.9265 98.9121 30.7845 98.8886 30.6545 98.8319L14.0633 91.5596C13.7592 91.4257 13.5007 91.2061 13.3194 90.9276C13.1381 90.6492 13.0419 90.3239 13.0425 89.9916V65.7623C13.0427 65.6195 13.0786 65.4789 13.1471 65.3536C13.2155 65.2282 13.3143 65.122 13.4343 65.0446C13.5544 64.9673 13.6919 64.9212 13.8343 64.9107C13.9767 64.9001 14.1196 64.9254 14.2497 64.9843L29.8389 72.0257C30.439 72.2966 30.9481 72.735 31.3051 73.2883C31.6621 73.8415 31.8518 74.4861 31.8515 75.1445ZM35.2713 98.0504V75.1411C35.2712 74.483 35.4611 73.8388 35.8181 73.2859C36.175 72.7329 36.684 72.2948 37.2838 72.0239L52.873 64.9826C53.0033 64.9237 53.1463 64.8984 53.2888 64.909C53.4314 64.9196 53.569 64.9658 53.6891 65.0434C53.8092 65.121 53.908 65.2274 53.9763 65.353C54.0446 65.4786 54.0803 65.6193 54.0802 65.7623V89.9916C54.08 90.3235 53.9832 90.6482 53.8017 90.926C53.6201 91.2038 53.3616 91.4228 53.0577 91.5562L36.4682 98.8301C36.3382 98.8872 36.196 98.911 36.0545 98.8994C35.913 98.8878 35.7766 98.8411 35.6576 98.7635C35.5387 98.686 35.4409 98.58 35.3731 98.4552C35.3054 98.3304 35.2698 98.1907 35.2696 98.0487M33.5614 62.6451C30.7281 62.6451 28.4316 61.8791 28.4316 60.9352C28.4316 59.9913 30.7281 59.2253 33.5614 59.2253C36.3947 59.2253 38.6911 59.9913 38.6911 60.9352C38.6911 61.8791 36.3947 62.6451 33.5614 62.6451Z" fill="#0AA1DD"/>
<path d="M67.7389 71.4973C67.9167 73.3782 66.913 75.0095 65.5109 75.1223C64.1087 75.2335 62.8263 73.8006 62.6502 71.9197C62.4724 70.0371 63.4761 68.4075 64.8782 68.2947C66.2803 68.1699 67.5627 69.6011 67.7389 71.4973ZM75.772 92.2197C77.1741 92.1085 78.1761 90.479 77.9983 88.5964C77.8222 86.7001 76.538 85.2689 75.1376 85.3955C73.7355 85.5066 72.7318 87.1361 72.9096 89.0187C73.0857 90.8996 74.3716 92.3325 75.772 92.2197ZM98.0008 68.2947C99.4029 68.4058 100.405 70.0354 100.227 71.918C100.051 73.8143 98.7668 75.2455 97.3647 75.1206C95.9626 75.0078 94.9606 73.3782 95.1384 71.4956C95.3145 69.6147 96.5986 68.1818 98.0008 68.2947ZM95.0974 80.4675C95.2752 78.5866 94.2715 76.9554 92.8711 76.8425C91.4689 76.7314 90.1865 78.1643 90.0087 80.0452C89.8308 81.9278 90.8346 83.5573 92.235 83.6702C93.6371 83.795 94.9195 82.3638 95.0974 80.4675ZM87.7413 85.3937C89.1435 85.5049 90.1455 87.1344 89.9676 89.017C89.7915 90.9133 88.5074 92.3445 87.1052 92.218C85.7031 92.1068 84.7011 90.4773 84.879 88.5947C85.0551 86.7138 86.3392 85.2809 87.7413 85.3937Z" fill="#79DAE8"/>
<path d="M77.8188 51.9599L61.7645 58.8902C61.39 59.0577 61.0532 59.2834 60.7557 59.557C59.8259 59.7847 58.9995 60.318 58.4092 61.0715C57.8188 61.8249 57.4986 62.7549 57.5 63.7121V87.9415C57.5001 88.9379 57.7904 89.9127 58.3355 90.7469C58.8806 91.581 59.6568 92.2383 60.5693 92.6386L77.1571 99.9108C77.6649 100.133 78.183 100.249 78.696 100.27C80.4632 100.942 82.4159 100.942 84.1831 100.27C84.6926 100.249 85.2124 100.133 85.7203 99.9108L102.306 92.6386C103.219 92.2385 103.996 91.581 104.542 90.7465C105.087 89.912 105.377 88.9367 105.377 87.9398V63.7104C105.379 62.7903 105.083 61.8943 104.534 61.156C103.985 60.4177 103.212 59.8767 102.33 59.6135C102.03 59.31 101.677 59.0648 101.287 58.8902L85.0603 51.9599C83.9209 51.4513 82.6872 51.1884 81.4395 51.1884C80.1918 51.1884 78.9581 51.4513 77.8188 51.9599ZM79.7288 73.0926V95.9985C79.7284 96.1403 79.6928 96.2798 79.6252 96.4044C79.5575 96.529 79.4599 96.6348 79.3412 96.7123C79.2225 96.7898 79.0864 96.8366 78.9451 96.8484C78.8038 96.8602 78.6618 96.8367 78.5318 96.78L61.9406 89.5077C61.6365 89.3738 61.378 89.1542 61.1967 88.8758C61.0154 88.5973 60.9192 88.272 60.9198 87.9398V63.7104C60.92 63.5676 60.9559 63.4271 61.0244 63.3017C61.0928 63.1764 61.1916 63.0701 61.3116 62.9928C61.4317 62.9154 61.5692 62.8693 61.7116 62.8588C61.8541 62.8482 61.9969 62.8735 62.127 62.9324L77.7162 69.9738C78.3163 70.2447 78.8255 70.6832 79.1825 71.2364C79.5395 71.7897 79.7292 72.4342 79.7288 73.0926ZM83.1486 95.9985V73.0892C83.1485 72.4311 83.3384 71.7869 83.6954 71.234C84.0524 70.6811 84.5613 70.2429 85.1611 69.9721L100.75 62.9307C100.881 62.8718 101.024 62.8465 101.166 62.8571C101.309 62.8677 101.446 62.914 101.566 62.9915C101.687 63.0691 101.785 63.1755 101.854 63.3011C101.922 63.4267 101.958 63.5674 101.958 63.7104V87.9398C101.957 88.2716 101.861 88.5963 101.679 88.8741C101.497 89.1519 101.239 89.3709 100.935 89.5043L84.3455 96.7783C84.2155 96.8353 84.0733 96.8591 83.9318 96.8475C83.7903 96.8359 83.6539 96.7892 83.5349 96.7116C83.416 96.6341 83.3182 96.5281 83.2505 96.4033C83.1827 96.2785 83.1471 96.1388 83.1469 95.9968M81.4387 60.5932C78.6054 60.5932 76.309 59.8272 76.309 58.8833C76.309 57.9395 78.6054 57.1734 81.4387 57.1734C84.272 57.1734 86.5684 57.9395 86.5684 58.8833C86.5684 59.8272 84.272 60.5932 81.4387 60.5932Z" fill="#79DAE8"/>
<path d="M43.8001 32.5114C43.978 34.3923 42.9743 36.0235 41.5721 36.1364C40.17 36.2475 38.8876 34.8146 38.7115 32.9337C38.5336 31.0511 39.5373 29.4216 40.9395 29.3087C42.3416 29.1839 43.624 30.6151 43.8001 32.5114ZM51.8333 53.2337C53.2354 53.1226 54.2374 51.493 54.0596 49.6104C53.8835 47.7142 52.5993 46.283 51.1989 46.4095C49.7968 46.5206 48.7931 48.1502 48.9709 50.0328C49.147 51.9137 50.4329 53.3466 51.8333 53.2337ZM74.062 29.3087C75.4642 29.4199 76.4662 31.0494 76.2883 32.932C76.1122 34.8283 74.8281 36.2595 73.426 36.1347C72.0238 36.0218 71.0218 34.3923 71.1997 32.5097C71.3758 30.6288 72.6599 29.1959 74.062 29.3087ZM71.1586 41.4815C71.3365 39.6007 70.3327 37.9694 68.9323 37.8565C67.5302 37.7454 66.2478 39.1783 66.0699 41.0592C65.8921 42.9418 66.8958 44.5713 68.2962 44.6842C69.6984 44.809 70.9808 43.3778 71.1586 41.4815ZM63.8026 46.4078C65.2047 46.5189 66.2067 48.1485 66.0289 50.0311C65.8528 51.9274 64.5686 53.3586 63.1665 53.232C61.7644 53.1209 60.7624 51.4913 60.9402 49.6087C61.1164 47.7278 62.4005 46.2949 63.8026 46.4078Z" fill="#E8F9FD"/>
<path d="M53.8801 12.974L37.8258 19.9042C37.4513 20.0718 37.1145 20.2975 36.8169 20.5711C35.8872 20.7987 35.0608 21.332 34.4704 22.0855C33.8801 22.839 33.5599 23.7689 33.5613 24.7261V48.9555C33.5614 49.9519 33.8517 50.9268 34.3968 51.7609C34.9418 52.595 35.718 53.2524 36.6306 53.6526L53.2184 60.9248C53.7262 61.1471 54.2443 61.2634 54.7573 61.2839C56.5245 61.9565 58.4772 61.9565 60.2444 61.2839C60.7539 61.2634 61.2737 61.1471 61.7816 60.9248L78.3676 53.6526C79.2808 53.2525 80.0575 52.595 80.6029 51.7605C81.1483 50.926 81.4387 49.9507 81.4386 48.9538V24.7244C81.4402 23.8043 81.1444 22.9084 80.5953 22.1701C80.0462 21.4318 79.2732 20.8907 78.3916 20.6275C78.0916 20.324 77.7379 20.0788 77.3485 19.9042L61.1215 12.974C59.9822 12.4653 58.7485 12.2024 57.5008 12.2024C56.2531 12.2024 55.0194 12.4653 53.8801 12.974ZM55.7901 34.1067V57.0126C55.7897 57.1544 55.7541 57.2938 55.6864 57.4184C55.6188 57.543 55.5212 57.6488 55.4025 57.7263C55.2838 57.8038 55.1476 57.8506 55.0064 57.8624C54.8651 57.8742 54.7231 57.8507 54.5931 57.794L38.0019 50.5218C37.6978 50.3879 37.4393 50.1683 37.258 49.8898C37.0767 49.6113 36.9805 49.2861 36.9811 48.9538V24.7244C36.9813 24.5816 37.0172 24.4411 37.0857 24.3157C37.1541 24.1904 37.2529 24.0842 37.3729 24.0068C37.493 23.9294 37.6305 23.8834 37.7729 23.8728C37.9153 23.8623 38.0581 23.8876 38.1883 23.9464L53.7775 30.9878C54.3776 31.2588 54.8867 31.6972 55.2437 32.2504C55.6007 32.8037 55.7904 33.4482 55.7901 34.1067ZM59.2099 57.0126V34.1033C59.2098 33.4451 59.3997 32.8009 59.7566 32.248C60.1136 31.6951 60.6226 31.2569 61.2224 30.9861L76.8116 23.9447C76.9419 23.8858 77.0849 23.8605 77.2274 23.8711C77.37 23.8818 77.5076 23.928 77.6277 24.0056C77.7478 24.0831 77.8466 24.1896 77.9149 24.3152C77.9832 24.4407 78.0189 24.5815 78.0188 24.7244V48.9538C78.0186 49.2857 77.9218 49.6103 77.7403 49.8882C77.5587 50.166 77.3002 50.3849 76.9963 50.5184L60.4068 57.7923C60.2768 57.8494 60.1346 57.8732 59.9931 57.8615C59.8515 57.8499 59.7152 57.8032 59.5962 57.7257C59.4772 57.6481 59.3795 57.5422 59.3117 57.4174C59.244 57.2926 59.2084 57.1529 59.2082 57.0109M57.5 21.6073C54.6666 21.6073 52.3702 20.8412 52.3702 19.8974C52.3702 18.9535 54.6666 18.1875 57.5 18.1875C60.3333 18.1875 62.6297 18.9535 62.6297 19.8974C62.6297 20.8412 60.3333 21.6073 57.5 21.6073Z" fill="#E8F9FD"/>
<path d="M57.5 123.917V63.5M57.5 63.5L110.244 33.05M57.5 63.5L4.75625 33.05M111.875 87.715V39.2729C111.871 37.1648 111.311 35.0951 110.25 33.2734C109.189 31.4517 107.665 29.9428 105.833 28.8994L63.5417 4.68438C61.7008 3.63554 59.6187 3.08398 57.5 3.08398C55.3813 3.08398 53.2992 3.63554 51.4583 4.68438L9.16667 28.8994C5.42687 31.0442 3.125 35.0015 3.125 39.279V87.7211C3.125 92.0046 5.42687 95.9558 9.16667 98.0946L51.4583 122.31C53.2992 123.358 55.3813 123.91 57.5 123.91C59.6187 123.91 61.7008 123.358 63.5417 122.31L105.833 98.0946C109.573 95.9498 111.875 91.9925 111.875 87.715Z" stroke="#79DAE8" stroke-width="6" stroke-linecap="round" stroke-linejoin="round"/>
</svg>
