<svg width="300" height="53" viewBox="0 0 300 53" fill="none" xmlns="http://www.w3.org/2000/svg">
<rect x="3" y="3" width="294" height="46.1739" rx="23.087" fill="#E8F9FD" stroke="#79DAE8" stroke-width="6"/>
<path d="M275 26V33.88C275.04 34.18 274.94 34.5 274.71 34.71C274.617 34.8027 274.508 34.8762 274.387 34.9264C274.266 34.9766 274.136 35.0024 274.005 35.0024C273.874 35.0024 273.744 34.9766 273.623 34.9264C273.502 34.8762 273.393 34.8027 273.3 34.71L271.29 32.7C271.181 32.5934 271.098 32.463 271.048 32.319C270.997 32.175 270.981 32.0213 271 31.87V26H270.97L265.21 18.62C265.048 18.4115 264.974 18.1473 265.006 17.8849C265.038 17.6226 265.172 17.3835 265.38 17.22C265.57 17.08 265.78 17 266 17H280C280.22 17 280.43 17.08 280.62 17.22C280.828 17.3835 280.962 17.6226 280.994 17.8849C281.026 18.1473 280.952 18.4115 280.79 18.62L275.03 26H275Z" fill="#2155CD"/>
</svg>
