<svg width="174" height="38" viewBox="0 0 174 38" fill="none" xmlns="http://www.w3.org/2000/svg">
<path d="M27.052 2.98V28H22.948V10.864L15.316 28H12.472L4.804 10.864V28H0.7V2.98H5.128L13.912 22.6L22.66 2.98H27.052ZM50.3021 8.164L38.1341 37.324H33.8861L37.9181 27.676L30.1061 8.164H34.6781L40.2581 23.284L46.0541 8.164H50.3021ZM66.8548 11.08C67.5508 10.168 68.4988 9.4 69.6988 8.776C70.8988 8.152 72.2548 7.84 73.7668 7.84C75.4948 7.84 77.0668 8.272 78.4828 9.136C79.9228 9.976 81.0508 11.164 81.8668 12.7C82.6828 14.236 83.0908 16 83.0908 17.992C83.0908 19.984 82.6828 21.772 81.8668 23.356C81.0508 24.916 79.9228 26.14 78.4828 27.028C77.0668 27.892 75.4948 28.324 73.7668 28.324C72.2548 28.324 70.9108 28.024 69.7348 27.424C68.5588 26.8 67.5988 26.032 66.8548 25.12V37.432H62.7508V8.164H66.8548V11.08ZM78.9148 17.992C78.9148 16.624 78.6268 15.448 78.0508 14.464C77.4988 13.456 76.7548 12.7 75.8188 12.196C74.9068 11.668 73.9228 11.404 72.8668 11.404C71.8348 11.404 70.8508 11.668 69.9148 12.196C69.0028 12.724 68.2588 13.492 67.6828 14.5C67.1308 15.508 66.8548 16.696 66.8548 18.064C66.8548 19.432 67.1308 20.632 67.6828 21.664C68.2588 22.672 69.0028 23.44 69.9148 23.968C70.8508 24.496 71.8348 24.76 72.8668 24.76C73.9228 24.76 74.9068 24.496 75.8188 23.968C76.7548 23.416 77.4988 22.624 78.0508 21.592C78.6268 20.56 78.9148 19.36 78.9148 17.992ZM91.2532 11.044C91.8532 10.036 92.6452 9.256 93.6292 8.704C94.6372 8.128 95.8252 7.84 97.1932 7.84V12.088H96.1492C94.5412 12.088 93.3172 12.496 92.4772 13.312C91.6612 14.128 91.2532 15.544 91.2532 17.56V28H87.1492V8.164H91.2532V11.044ZM109.57 28.324C107.698 28.324 106.006 27.904 104.494 27.064C102.982 26.2 101.794 25 100.93 23.464C100.066 21.904 99.6336 20.104 99.6336 18.064C99.6336 16.048 100.078 14.26 100.966 12.7C101.854 11.14 103.066 9.94 104.602 9.1C106.138 8.26 107.854 7.84 109.75 7.84C111.646 7.84 113.362 8.26 114.898 9.1C116.434 9.94 117.646 11.14 118.534 12.7C119.422 14.26 119.866 16.048 119.866 18.064C119.866 20.08 119.41 21.868 118.498 23.428C117.586 24.988 116.338 26.2 114.754 27.064C113.194 27.904 111.466 28.324 109.57 28.324ZM109.57 24.76C110.626 24.76 111.61 24.508 112.522 24.004C113.458 23.5 114.214 22.744 114.79 21.736C115.366 20.728 115.654 19.504 115.654 18.064C115.654 16.624 115.378 15.412 114.826 14.428C114.274 13.42 113.542 12.664 112.63 12.16C111.718 11.656 110.734 11.404 109.678 11.404C108.622 11.404 107.638 11.656 106.726 12.16C105.838 12.664 105.13 13.42 104.602 14.428C104.074 15.412 103.81 16.624 103.81 18.064C103.81 20.2 104.35 21.856 105.43 23.032C106.534 24.184 107.914 24.76 109.57 24.76ZM132.239 11.512H128.567V28H124.427V11.512H122.087V8.164H124.427V6.76C124.427 4.48 125.027 2.824 126.227 1.792C127.451 0.735999 129.359 0.207999 131.951 0.207999V3.628C130.703 3.628 129.827 3.868 129.323 4.348C128.819 4.804 128.567 5.608 128.567 6.76V8.164H132.239V11.512ZM137.964 5.536C137.22 5.536 136.596 5.284 136.092 4.78C135.588 4.276 135.336 3.652 135.336 2.908C135.336 2.164 135.588 1.54 136.092 1.036C136.596 0.531999 137.22 0.279999 137.964 0.279999C138.684 0.279999 139.296 0.531999 139.8 1.036C140.304 1.54 140.556 2.164 140.556 2.908C140.556 3.652 140.304 4.276 139.8 4.78C139.296 5.284 138.684 5.536 137.964 5.536ZM139.98 8.164V28H135.876V8.164H139.98ZM149.472 1.36V28H145.368V1.36H149.472ZM173.04 17.596C173.04 18.34 172.992 19.012 172.896 19.612H157.74C157.86 21.196 158.448 22.468 159.504 23.428C160.56 24.388 161.856 24.868 163.392 24.868C165.6 24.868 167.16 23.944 168.072 22.096H172.5C171.9 23.92 170.808 25.42 169.224 26.596C167.664 27.748 165.72 28.324 163.392 28.324C161.496 28.324 159.792 27.904 158.28 27.064C156.792 26.2 155.616 25 154.752 23.464C153.912 21.904 153.492 20.104 153.492 18.064C153.492 16.024 153.9 14.236 154.716 12.7C155.556 11.14 156.72 9.94 158.208 9.1C159.72 8.26 161.448 7.84 163.392 7.84C165.264 7.84 166.932 8.248 168.396 9.064C169.86 9.88 171 11.032 171.816 12.52C172.632 13.984 173.04 15.676 173.04 17.596ZM168.756 16.3C168.732 14.788 168.192 13.576 167.136 12.664C166.08 11.752 164.772 11.296 163.212 11.296C161.796 11.296 160.584 11.752 159.576 12.664C158.568 13.552 157.968 14.764 157.776 16.3H168.756Z" fill="#79DAE8"/>
</svg>
