<svg width="145" height="38" viewBox="0 0 145 38" fill="none" xmlns="http://www.w3.org/2000/svg">
<path d="M13.696 28L7.936 17.992H4.804V28H0.7V2.98H9.34C11.26 2.98 12.88 3.316 14.2 3.988C15.544 4.66 16.54 5.56 17.188 6.688C17.86 7.816 18.196 9.076 18.196 10.468C18.196 12.1 17.716 13.588 16.756 14.932C15.82 16.252 14.368 17.152 12.4 17.632L18.592 28H13.696ZM4.804 14.716H9.34C10.876 14.716 12.028 14.332 12.796 13.564C13.588 12.796 13.984 11.764 13.984 10.468C13.984 9.172 13.6 8.164 12.832 7.444C12.064 6.7 10.9 6.328 9.34 6.328H4.804V14.716ZM41.6261 17.596C41.6261 18.34 41.5781 19.012 41.4821 19.612H26.3261C26.4461 21.196 27.0341 22.468 28.0901 23.428C29.1461 24.388 30.4421 24.868 31.9781 24.868C34.1861 24.868 35.7461 23.944 36.6581 22.096H41.0861C40.4861 23.92 39.3941 25.42 37.8101 26.596C36.2501 27.748 34.3061 28.324 31.9781 28.324C30.0821 28.324 28.3781 27.904 26.8661 27.064C25.3781 26.2 24.2021 25 23.3381 23.464C22.4981 21.904 22.0781 20.104 22.0781 18.064C22.0781 16.024 22.4861 14.236 23.3021 12.7C24.1421 11.14 25.3061 9.94 26.7941 9.1C28.3061 8.26 30.0341 7.84 31.9781 7.84C33.8501 7.84 35.5181 8.248 36.9821 9.064C38.4461 9.88 39.5861 11.032 40.4021 12.52C41.2181 13.984 41.6261 15.676 41.6261 17.596ZM37.3421 16.3C37.3181 14.788 36.7781 13.576 35.7221 12.664C34.6661 11.752 33.3581 11.296 31.7981 11.296C30.3821 11.296 29.1701 11.752 28.1621 12.664C27.1541 13.552 26.5541 14.764 26.3621 16.3H37.3421ZM53.6568 7.84C55.1928 7.84 56.5488 8.152 57.7248 8.776C58.9248 9.376 59.8608 10.132 60.5328 11.044V8.164H64.6728V28.324C64.6728 30.148 64.2888 31.768 63.5208 33.184C62.7528 34.624 61.6368 35.752 60.1728 36.568C58.7328 37.384 57.0048 37.792 54.9888 37.792C52.3008 37.792 50.0688 37.156 48.2928 35.884C46.5168 34.636 45.5088 32.932 45.2688 30.772H49.3368C49.6488 31.804 50.3088 32.632 51.3168 33.256C52.3488 33.904 53.5728 34.228 54.9888 34.228C56.6448 34.228 57.9768 33.724 58.9848 32.716C60.0168 31.708 60.5328 30.244 60.5328 28.324V25.012C59.8368 25.948 58.8888 26.74 57.6888 27.388C56.5128 28.012 55.1688 28.324 53.6568 28.324C51.9288 28.324 50.3448 27.892 48.9048 27.028C47.4888 26.14 46.3608 24.916 45.5208 23.356C44.7048 21.772 44.2968 19.984 44.2968 17.992C44.2968 16 44.7048 14.236 45.5208 12.7C46.3608 11.164 47.4888 9.976 48.9048 9.136C50.3448 8.272 51.9288 7.84 53.6568 7.84ZM60.5328 18.064C60.5328 16.696 60.2448 15.508 59.6688 14.5C59.1168 13.492 58.3848 12.724 57.4728 12.196C56.5608 11.668 55.5768 11.404 54.5208 11.404C53.4648 11.404 52.4808 11.668 51.5688 12.196C50.6568 12.7 49.9128 13.456 49.3368 14.464C48.7848 15.448 48.5088 16.624 48.5088 17.992C48.5088 19.36 48.7848 20.56 49.3368 21.592C49.9128 22.624 50.6568 23.416 51.5688 23.968C52.5048 24.496 53.4888 24.76 54.5208 24.76C55.5768 24.76 56.5608 24.496 57.4728 23.968C58.3848 23.44 59.1168 22.672 59.6688 21.664C60.2448 20.632 60.5328 19.432 60.5328 18.064ZM72.1513 5.536C71.4073 5.536 70.7833 5.284 70.2793 4.78C69.7753 4.276 69.5233 3.652 69.5233 2.908C69.5233 2.164 69.7753 1.54 70.2793 1.036C70.7833 0.531999 71.4073 0.279999 72.1513 0.279999C72.8713 0.279999 73.4833 0.531999 73.9873 1.036C74.4913 1.54 74.7433 2.164 74.7433 2.908C74.7433 3.652 74.4913 4.276 73.9873 4.78C73.4833 5.284 72.8713 5.536 72.1513 5.536ZM74.1673 8.164V28H70.0633V8.164H74.1673ZM86.7555 28.324C85.1955 28.324 83.7915 28.048 82.5435 27.496C81.3195 26.92 80.3475 26.152 79.6275 25.192C78.9075 24.208 78.5235 23.116 78.4755 21.916H82.7235C82.7955 22.756 83.1915 23.464 83.9115 24.04C84.6555 24.592 85.5795 24.868 86.6835 24.868C87.8355 24.868 88.7235 24.652 89.3475 24.22C89.9955 23.764 90.3195 23.188 90.3195 22.492C90.3195 21.748 89.9595 21.196 89.2395 20.836C88.5435 20.476 87.4275 20.08 85.8915 19.648C84.4035 19.24 83.1915 18.844 82.2555 18.46C81.3195 18.076 80.5035 17.488 79.8075 16.696C79.1355 15.904 78.7995 14.86 78.7995 13.564C78.7995 12.508 79.1115 11.548 79.7355 10.684C80.3595 9.796 81.2475 9.1 82.3995 8.596C83.5755 8.092 84.9195 7.84 86.4315 7.84C88.6875 7.84 90.4995 8.416 91.8675 9.568C93.2595 10.696 94.0035 12.244 94.0995 14.212H89.9955C89.9235 13.324 89.5635 12.616 88.9155 12.088C88.2675 11.56 87.3915 11.296 86.2875 11.296C85.2075 11.296 84.3795 11.5 83.8035 11.908C83.2275 12.316 82.9395 12.856 82.9395 13.528C82.9395 14.056 83.1315 14.5 83.5155 14.86C83.8995 15.22 84.3675 15.508 84.9195 15.724C85.4715 15.916 86.2875 16.168 87.3675 16.48C88.8075 16.864 89.9835 17.26 90.8955 17.668C91.8315 18.052 92.6355 18.628 93.3075 19.396C93.9795 20.164 94.3275 21.184 94.3515 22.456C94.3515 23.584 94.0395 24.592 93.4155 25.48C92.7915 26.368 91.9035 27.064 90.7515 27.568C89.6235 28.072 88.2915 28.324 86.7555 28.324ZM103.574 11.512V22.492C103.574 23.236 103.742 23.776 104.078 24.112C104.438 24.424 105.038 24.58 105.878 24.58H108.398V28H105.158C103.31 28 101.894 27.568 100.91 26.704C99.9259 25.84 99.4339 24.436 99.4339 22.492V11.512H97.0939V8.164H99.4339V3.232H103.574V8.164H108.398V11.512H103.574ZM130.36 17.596C130.36 18.34 130.312 19.012 130.216 19.612H115.06C115.18 21.196 115.768 22.468 116.824 23.428C117.88 24.388 119.176 24.868 120.712 24.868C122.92 24.868 124.48 23.944 125.392 22.096H129.82C129.22 23.92 128.128 25.42 126.544 26.596C124.984 27.748 123.04 28.324 120.712 28.324C118.816 28.324 117.112 27.904 115.6 27.064C114.112 26.2 112.936 25 112.072 23.464C111.232 21.904 110.812 20.104 110.812 18.064C110.812 16.024 111.22 14.236 112.036 12.7C112.876 11.14 114.04 9.94 115.528 9.1C117.04 8.26 118.768 7.84 120.712 7.84C122.584 7.84 124.252 8.248 125.716 9.064C127.18 9.88 128.32 11.032 129.136 12.52C129.952 13.984 130.36 15.676 130.36 17.596ZM126.076 16.3C126.052 14.788 125.512 13.576 124.456 12.664C123.4 11.752 122.092 11.296 120.532 11.296C119.116 11.296 117.904 11.752 116.896 12.664C115.888 13.552 115.288 14.764 115.096 16.3H126.076ZM138.503 11.044C139.103 10.036 139.895 9.256 140.879 8.704C141.887 8.128 143.075 7.84 144.443 7.84V12.088H143.399C141.791 12.088 140.567 12.496 139.727 13.312C138.911 14.128 138.503 15.544 138.503 17.56V28H134.399V8.164H138.503V11.044Z" fill="#79DAE8"/>
</svg>
