<svg width="221" height="31" viewBox="0 0 221 31" fill="none" xmlns="http://www.w3.org/2000/svg">
<path d="M78.84 15.056C78.84 13.232 79.216 11.608 79.968 10.184C80.848 8.504 82.168 7.336 83.928 6.68C84.904 6.328 85.92 6.152 86.976 6.152C88.032 6.152 89.048 6.232 90.024 6.392C91 6.552 91.64 6.696 91.944 6.824C92.04 7.416 92.088 8.04 92.088 8.696C92.088 9.336 92.072 10.056 92.04 10.856L90.672 11.048C90.32 9.192 90.008 8.168 89.736 7.976C89.592 7.864 89.216 7.744 88.608 7.616C88.016 7.488 87.424 7.424 86.832 7.424C85.072 7.424 83.744 8.072 82.848 9.368C81.952 10.664 81.504 12.368 81.504 14.48C81.504 16.976 82.072 18.832 83.208 20.048C84.344 21.264 85.752 21.872 87.432 21.872C88.04 21.872 88.608 21.8 89.136 21.656C89.68 21.512 90.032 21.376 90.192 21.248C90.368 21.12 90.632 20.104 90.984 18.2L92.304 18.248C92.304 19.464 92.216 20.76 92.04 22.136C91.544 22.408 90.792 22.656 89.784 22.88C88.792 23.104 87.776 23.216 86.736 23.216C84.128 23.216 82.16 22.448 80.832 20.912C79.504 19.376 78.84 17.424 78.84 15.056ZM93.2188 23L93.0508 22.04C93.6588 21.88 94.0268 21.752 94.1548 21.656C94.2988 21.56 94.4348 21.344 94.5628 21.008L99.9388 6.152H101.931L107.427 21.392C107.507 21.632 107.979 21.832 108.843 21.992L108.747 23H103.155L103.011 22.04C104.131 21.816 104.691 21.552 104.691 21.248C104.691 21.12 104.659 20.952 104.595 20.744L103.539 17.624H97.3228L96.0988 21.032C96.0348 21.224 96.0028 21.36 96.0028 21.44C96.0028 21.504 96.0508 21.544 96.1468 21.56L97.8508 22.016L97.7548 23H93.2188ZM97.7788 16.352H103.131L100.779 9.608C100.667 9.272 100.611 9.04 100.611 8.912H100.371L97.7788 16.352ZM112.537 22.064C113.545 21.904 114.161 21.744 114.385 21.584C114.609 21.408 114.721 21.072 114.721 20.576V7.616C112.657 7.648 111.553 7.696 111.409 7.76C111.265 7.824 111.153 7.896 111.073 7.976C110.881 8.232 110.649 9.136 110.377 10.688L109.153 10.592C109.137 10.352 109.129 9.888 109.129 9.2C109.129 8.496 109.201 7.552 109.345 6.368H122.425C122.569 7.552 122.641 8.496 122.641 9.2C122.641 9.888 122.633 10.352 122.617 10.592L121.393 10.688C121.121 9.136 120.881 8.232 120.673 7.976C120.609 7.896 120.505 7.824 120.361 7.76C120.217 7.696 119.113 7.648 117.049 7.616V21.152C117.049 21.52 117.209 21.728 117.529 21.776L119.377 22.064L119.281 23H112.681L112.537 22.064ZM124.013 23L123.869 22.064C124.717 21.92 125.229 21.76 125.405 21.584C125.597 21.408 125.693 21.072 125.693 20.576V8.792C125.693 8.296 125.597 7.96 125.405 7.784C125.229 7.608 124.717 7.448 123.869 7.304L124.013 6.368H135.197C135.293 6.96 135.341 7.552 135.341 8.144C135.341 8.72 135.325 9.376 135.293 10.112L133.925 10.28C133.701 9.176 133.541 8.488 133.445 8.216C133.349 7.928 133.237 7.776 133.109 7.76C132.725 7.712 132.237 7.68 131.645 7.664L128.021 7.592V14.048H131.621C131.829 14.048 132.085 13.48 132.389 12.344L133.133 12.416C133.133 13.584 133.149 14.4 133.181 14.864C133.229 15.328 133.253 15.608 133.253 15.704C133.269 15.8 133.301 16.032 133.349 16.4C133.413 16.768 133.453 17.024 133.469 17.168L132.605 17.312C132.349 16.4 132.173 15.84 132.077 15.632C131.997 15.424 131.901 15.32 131.789 15.32H128.021V21.776L130.157 21.752C131.965 21.752 133.069 21.656 133.469 21.464C133.517 21.432 133.549 21.416 133.565 21.416C133.837 21.336 134.189 20.392 134.621 18.584L135.941 18.704C135.957 18.976 135.965 19.464 135.965 20.168C135.965 20.856 135.877 21.8 135.701 23H124.013ZM151.104 22.112C150.576 22.384 149.808 22.64 148.8 22.88C147.808 23.104 146.792 23.216 145.752 23.216C143.144 23.216 141.176 22.448 139.848 20.912C138.52 19.376 137.856 17.424 137.856 15.056C137.856 13.232 138.232 11.608 138.984 10.184C139.864 8.504 141.184 7.336 142.944 6.68C143.92 6.328 144.936 6.152 145.992 6.152C147.048 6.152 148.064 6.232 149.04 6.392C150.016 6.552 150.656 6.696 150.96 6.824C151.056 7.416 151.104 8.04 151.104 8.696C151.104 9.336 151.088 10.056 151.056 10.856L149.688 11.048C149.336 9.192 149.024 8.168 148.752 7.976C148.608 7.864 148.232 7.744 147.624 7.616C147.032 7.488 146.44 7.424 145.848 7.424C144.088 7.424 142.76 8.072 141.864 9.368C140.968 10.664 140.52 12.368 140.52 14.48C140.52 16.976 141.088 18.832 142.224 20.048C143.36 21.264 144.768 21.872 146.448 21.872C147.328 21.872 148.104 21.744 148.776 21.488V18.152C148.776 17.656 148.68 17.32 148.488 17.144C148.312 16.968 147.8 16.808 146.952 16.664L147.096 15.728H152.712L152.808 16.664L151.584 16.952C151.264 17.016 151.104 17.224 151.104 17.576V22.112ZM161.752 23.216C159.336 23.216 157.472 22.472 156.16 20.984C154.848 19.48 154.192 17.432 154.192 14.84C154.192 12.232 154.888 10.136 156.28 8.552C157.672 6.952 159.576 6.152 161.992 6.152C164.424 6.152 166.296 6.888 167.608 8.36C168.92 9.816 169.576 11.848 169.576 14.456C169.576 17.048 168.88 19.16 167.488 20.792C166.096 22.408 164.184 23.216 161.752 23.216ZM162.088 21.944C162.952 21.944 163.704 21.744 164.344 21.344C165 20.944 165.512 20.392 165.88 19.688C166.568 18.328 166.912 16.616 166.912 14.552C166.912 12.488 166.456 10.784 165.544 9.44C164.648 8.096 163.36 7.424 161.68 7.424C160.816 7.424 160.056 7.624 159.4 8.024C158.76 8.408 158.264 8.944 157.912 9.632C157.208 10.96 156.856 12.656 156.856 14.72C156.856 16.768 157.304 18.488 158.2 19.88C159.096 21.256 160.392 21.944 162.088 21.944ZM171.614 23L171.47 22.064C172.318 21.92 172.83 21.76 173.006 21.584C173.198 21.408 173.294 21.072 173.294 20.576V8.792C173.294 8.296 173.198 7.96 173.006 7.784C172.83 7.608 172.318 7.448 171.47 7.304L171.614 6.368H178.286C179.998 6.368 181.27 6.72 182.102 7.424C182.934 8.128 183.35 9.08 183.35 10.28C183.35 11.48 183.022 12.528 182.366 13.424C181.71 14.304 180.79 14.944 179.606 15.344V15.464C179.766 15.512 179.942 15.688 180.134 15.992L183.518 21.08C183.758 21.432 183.99 21.672 184.214 21.8C184.454 21.928 184.878 22.016 185.486 22.064L185.342 23H181.934L177.182 15.704H175.622V21.152C175.622 21.504 175.782 21.712 176.102 21.776L177.422 22.064L177.326 23H171.614ZM175.622 14.48H176.942C178.206 14.48 179.158 14.208 179.798 13.664C180.454 13.104 180.782 12.088 180.782 10.616C180.782 8.632 179.702 7.64 177.542 7.64H176.102C175.782 7.64 175.622 7.832 175.622 8.216V14.48ZM186.778 23L186.634 22.064C187.482 21.92 187.994 21.76 188.17 21.584C188.362 21.408 188.458 21.072 188.458 20.576V8.792C188.458 8.296 188.362 7.96 188.17 7.784C187.994 7.608 187.482 7.448 186.634 7.304L186.778 6.368H192.658L192.754 7.304L191.266 7.592C190.946 7.656 190.786 7.864 190.786 8.216V21.152C190.786 21.504 190.946 21.712 191.266 21.776L192.754 22.064L192.658 23H186.778ZM194.864 23L194.72 22.064C195.568 21.92 196.08 21.76 196.256 21.584C196.448 21.408 196.544 21.072 196.544 20.576V8.792C196.544 8.296 196.448 7.96 196.256 7.784C196.08 7.608 195.568 7.448 194.72 7.304L194.864 6.368H206.048C206.144 6.96 206.192 7.552 206.192 8.144C206.192 8.72 206.176 9.376 206.144 10.112L204.776 10.28C204.552 9.176 204.392 8.488 204.296 8.216C204.2 7.928 204.088 7.776 203.96 7.76C203.576 7.712 203.088 7.68 202.496 7.664L198.872 7.592V14.048H202.472C202.68 14.048 202.936 13.48 203.24 12.344L203.984 12.416C203.984 13.584 204 14.4 204.032 14.864C204.08 15.328 204.104 15.608 204.104 15.704C204.12 15.8 204.152 16.032 204.2 16.4C204.264 16.768 204.304 17.024 204.32 17.168L203.456 17.312C203.2 16.4 203.024 15.84 202.928 15.632C202.848 15.424 202.752 15.32 202.64 15.32H198.872V21.776L201.008 21.752C202.816 21.752 203.92 21.656 204.32 21.464C204.368 21.432 204.4 21.416 204.416 21.416C204.688 21.336 205.04 20.392 205.472 18.584L206.792 18.704C206.808 18.976 206.816 19.464 206.816 20.168C206.816 20.856 206.728 21.8 206.552 23H194.864ZM211.035 21.032C211.307 21.224 211.747 21.416 212.355 21.608C212.979 21.784 213.675 21.872 214.443 21.872C215.211 21.872 215.851 21.64 216.363 21.176C216.875 20.712 217.131 20.088 217.131 19.304C217.131 18.088 216.443 17.096 215.067 16.328C214.715 16.152 214.171 15.912 213.435 15.608C212.699 15.288 212.179 15.056 211.875 14.912C211.571 14.752 211.211 14.536 210.795 14.264C210.395 13.976 210.083 13.688 209.859 13.4C209.299 12.712 209.019 11.872 209.019 10.88C209.019 9.424 209.555 8.272 210.627 7.424C211.715 6.576 213.123 6.152 214.851 6.152C216.163 6.152 217.395 6.368 218.547 6.8C218.595 7.184 218.619 7.696 218.619 8.336C218.619 8.96 218.531 9.8 218.355 10.856L216.963 11.024C216.787 9.216 216.571 8.208 216.315 8C215.931 7.664 215.227 7.496 214.203 7.496C213.195 7.496 212.411 7.704 211.851 8.12C211.291 8.52 211.011 9.112 211.011 9.896C211.011 10.344 211.099 10.744 211.275 11.096C211.451 11.448 211.771 11.776 212.235 12.08C212.699 12.384 213.067 12.6 213.339 12.728C213.739 12.936 214.299 13.192 215.019 13.496C215.739 13.8 216.299 14.064 216.699 14.288C217.099 14.512 217.531 14.808 217.995 15.176C218.891 15.928 219.339 17.016 219.339 18.44C219.339 19.864 218.827 21.016 217.803 21.896C216.795 22.776 215.411 23.216 213.651 23.216C212.707 23.216 211.763 23.104 210.819 22.88C209.891 22.64 209.211 22.408 208.779 22.184C208.731 21.992 208.707 21.536 208.707 20.816C208.707 20.096 208.803 19.224 208.995 18.2L210.363 18.128C210.491 19.28 210.595 20.024 210.675 20.36C210.771 20.696 210.891 20.92 211.035 21.032Z" fill="#79DAE8"/>
<path d="M0.86 26L0.74 25.22C1.46 25.0867 1.91333 24.9467 2.1 24.8C2.3 24.6533 2.4 24.38 2.4 23.98V14.16C2.4 13.7467 2.32 13.4667 2.16 13.32C2.01333 13.1733 1.58667 13.04 0.88 12.92L1 12.14H5.2L9.04 22.66C9.10667 22.8733 9.15333 23.04 9.18 23.16H9.38C9.39333 23.0133 9.42667 22.88 9.48 22.76L13.38 12.14H17L17.08 12.92L16.24 13.16C15.9867 13.24 15.86 13.3933 15.86 13.62V24.46C15.86 24.7533 15.9933 24.9267 16.26 24.98L17.5 25.22L17.42 26H12.48L12.36 25.22C13.0133 25.1 13.4333 24.9733 13.62 24.84C13.82 24.6933 13.92 24.46 13.92 24.14V15C13.92 14.6933 13.94 14.44 13.98 14.24H13.82L9.6 25.6H8.16L3.9 14.2H3.74V24C3.74 24.32 3.8 24.56 3.92 24.72C4.05333 24.88 4.28667 24.9867 4.62 25.04L5.6 25.22L5.52 26H0.86ZM23.3817 26.18C21.9417 26.18 20.8351 25.7533 20.0617 24.9C19.2884 24.0467 18.9017 22.8533 18.9017 21.32C18.9017 19.7867 19.3084 18.56 20.1217 17.64C20.9484 16.7067 22.0817 16.24 23.5217 16.24C24.9751 16.24 26.0884 16.6733 26.8617 17.54C27.6351 18.3933 28.0217 19.5867 28.0217 21.12C28.0217 22.6533 27.6084 23.88 26.7817 24.8C25.9684 25.72 24.8351 26.18 23.3817 26.18ZM20.8417 21.06C20.8417 22.2467 21.0817 23.22 21.5617 23.98C22.0417 24.74 22.6951 25.12 23.5217 25.12C24.3484 25.12 24.9351 24.92 25.2817 24.52C25.5217 24.2533 25.7151 23.8333 25.8617 23.26C26.0084 22.6733 26.0817 22.04 26.0817 21.36C26.0817 20.1733 25.8417 19.2 25.3617 18.44C24.8817 17.68 24.2284 17.3 23.4017 17.3C22.5751 17.3 21.9884 17.5 21.6417 17.9C21.4017 18.1667 21.2084 18.5933 21.0617 19.18C20.9151 19.7533 20.8417 20.38 20.8417 21.06ZM35.8523 24.68C35.079 25.68 34.1523 26.18 33.0723 26.18C31.9923 26.18 31.1057 25.7533 30.4123 24.9C29.719 24.0333 29.3723 22.8533 29.3723 21.36C29.3723 19.8667 29.7657 18.64 30.5523 17.68C31.339 16.72 32.439 16.24 33.8523 16.24C34.8257 16.24 35.5457 16.4133 36.0123 16.76L36.1523 16.7C36.099 16.4867 36.0723 16.1933 36.0723 15.82V12.46C36.0723 12.18 35.9323 11.9733 35.6523 11.84C35.3857 11.6933 34.899 11.5733 34.1923 11.48L34.3123 10.84C35.739 10.6533 36.8523 10.56 37.6523 10.56L37.8723 10.76V24.04C37.8723 24.3867 37.9523 24.6333 38.1123 24.78C38.2857 24.9133 38.7123 25.0467 39.3923 25.18L39.2723 25.82L36.8723 26.08C36.739 26.08 36.5923 25.9467 36.4323 25.68C36.2723 25.4133 36.1923 25.1733 36.1923 24.96C36.1923 24.7467 36.199 24.5867 36.2123 24.48L36.0523 24.42L35.8523 24.68ZM31.3123 20.88C31.3123 22.2 31.519 23.1733 31.9323 23.8C32.359 24.4267 32.8923 24.74 33.5323 24.74C34.1723 24.74 34.839 24.5133 35.5323 24.06C35.8923 23.82 36.0723 23.5133 36.0723 23.14V18.36C35.5257 17.7067 34.6723 17.38 33.5123 17.38C32.939 17.38 32.4857 17.5667 32.1523 17.94C31.5923 18.5667 31.3123 19.5467 31.3123 20.88ZM41.8791 23.52V18.24C41.8791 17.96 41.7724 17.76 41.5591 17.64C41.3457 17.5067 40.9457 17.38 40.3591 17.26L40.4791 16.62C41.9057 16.4333 42.8991 16.34 43.4591 16.34L43.6791 16.54V22.66C43.6791 24.0467 44.2057 24.74 45.2591 24.74C45.9391 24.74 46.6457 24.48 47.3791 23.96C47.5524 23.84 47.6657 23.7267 47.7191 23.62C47.7724 23.5 47.7991 23.3067 47.7991 23.04V18.24C47.7991 17.96 47.6924 17.76 47.4791 17.64C47.2657 17.5067 46.8657 17.38 46.2791 17.26L46.3991 16.62C47.8257 16.4333 48.8191 16.34 49.3791 16.34L49.5991 16.54V24.02C49.5991 24.3667 49.6791 24.6133 49.8391 24.76C50.0124 24.8933 50.4391 25.0267 51.1191 25.16L50.9991 25.8L48.4191 26.08C48.3257 26.0933 48.2257 25.92 48.1191 25.56C48.0257 25.1867 47.9791 24.8667 47.9791 24.6V24.48L47.8191 24.42L47.5791 24.7C46.7391 25.6867 45.7124 26.18 44.4991 26.18C43.6857 26.18 43.0457 25.9667 42.5791 25.54C42.1124 25.1 41.8791 24.4267 41.8791 23.52ZM52.382 26L52.262 25.22C52.9154 25.0867 53.3087 24.9533 53.442 24.82C53.5887 24.6733 53.662 24.4267 53.662 24.08V12.46C53.662 12.18 53.5554 11.98 53.342 11.86C53.1287 11.7267 52.7287 11.6 52.142 11.48L52.262 10.84C53.6887 10.6533 54.682 10.56 55.242 10.56L55.462 10.76V24.56C55.462 24.72 55.4954 24.8267 55.562 24.88C55.642 24.92 55.742 24.9533 55.862 24.98L56.842 25.22L56.762 26H52.382ZM62.5567 26.18C61.2101 26.18 60.1634 25.72 59.4167 24.8C58.6834 23.88 58.3167 22.72 58.3167 21.32C58.3167 19.9067 58.7434 18.7067 59.5967 17.72C60.4501 16.7333 61.5767 16.24 62.9767 16.24C65.2434 16.24 66.4301 17.6333 66.5367 20.42L66.0167 20.8L60.2167 21.12C60.2167 23.5867 61.2701 24.82 63.3767 24.82C64.2967 24.82 65.1967 24.5933 66.0767 24.14L66.4967 24.8C66.0567 25.16 65.4834 25.48 64.7767 25.76C64.0701 26.04 63.3301 26.18 62.5567 26.18ZM60.2767 20.2L64.4167 19.84C64.5501 19.8267 64.6167 19.7 64.6167 19.46C64.6167 18.8733 64.4567 18.3667 64.1367 17.94C63.8301 17.5133 63.3034 17.3 62.5567 17.3C61.8101 17.3 61.2634 17.5533 60.9167 18.06C60.5834 18.5533 60.3701 19.2667 60.2767 20.2Z" fill="#79DAE8"/>
</svg>
