<svg width="198" height="28" viewBox="0 0 198 28" fill="none" xmlns="http://www.w3.org/2000/svg">
<path d="M8.872 1.98C11.536 1.98 13.864 2.496 15.856 3.528C17.872 4.536 19.42 6 20.5 7.92C21.604 9.816 22.156 12.036 22.156 14.58C22.156 17.124 21.604 19.332 20.5 21.204C19.42 23.076 17.872 24.516 15.856 25.524C13.864 26.508 11.536 27 8.872 27H0.7V1.98H8.872ZM8.872 23.652C11.8 23.652 14.044 22.86 15.604 21.276C17.164 19.692 17.944 17.46 17.944 14.58C17.944 11.676 17.164 9.408 15.604 7.776C14.044 6.144 11.8 5.328 8.872 5.328H4.804V23.652H8.872ZM24.8554 16.992C24.8554 15 25.2634 13.236 26.0794 11.7C26.9194 10.164 28.0474 8.976 29.4634 8.136C30.9034 7.272 32.4874 6.84 34.2154 6.84C35.7754 6.84 37.1314 7.152 38.2834 7.776C39.4594 8.376 40.3954 9.132 41.0914 10.044V7.164H45.2314V27H41.0914V24.048C40.3954 24.984 39.4474 25.764 38.2474 26.388C37.0474 27.012 35.6794 27.324 34.1434 27.324C32.4394 27.324 30.8794 26.892 29.4634 26.028C28.0474 25.14 26.9194 23.916 26.0794 22.356C25.2634 20.772 24.8554 18.984 24.8554 16.992ZM41.0914 17.064C41.0914 15.696 40.8034 14.508 40.2274 13.5C39.6754 12.492 38.9434 11.724 38.0314 11.196C37.1194 10.668 36.1354 10.404 35.0794 10.404C34.0234 10.404 33.0394 10.668 32.1274 11.196C31.2154 11.7 30.4714 12.456 29.8954 13.464C29.3434 14.448 29.0674 15.624 29.0674 16.992C29.0674 18.36 29.3434 19.56 29.8954 20.592C30.4714 21.624 31.2154 22.416 32.1274 22.968C33.0634 23.496 34.0474 23.76 35.0794 23.76C36.1354 23.76 37.1194 23.496 38.0314 22.968C38.9434 22.44 39.6754 21.672 40.2274 20.664C40.8034 19.632 41.0914 18.432 41.0914 17.064ZM57.8219 27.324C56.2619 27.324 54.8579 27.048 53.6099 26.496C52.3859 25.92 51.4139 25.152 50.6939 24.192C49.9739 23.208 49.5899 22.116 49.5419 20.916H53.7899C53.8619 21.756 54.2579 22.464 54.9779 23.04C55.7219 23.592 56.6459 23.868 57.7499 23.868C58.9019 23.868 59.7899 23.652 60.4139 23.22C61.0619 22.764 61.3859 22.188 61.3859 21.492C61.3859 20.748 61.0259 20.196 60.3059 19.836C59.6099 19.476 58.4939 19.08 56.9579 18.648C55.4699 18.24 54.2579 17.844 53.3219 17.46C52.3859 17.076 51.5699 16.488 50.8739 15.696C50.2019 14.904 49.8659 13.86 49.8659 12.564C49.8659 11.508 50.1779 10.548 50.8019 9.684C51.4259 8.796 52.3139 8.1 53.4659 7.596C54.6419 7.092 55.9859 6.84 57.4979 6.84C59.7539 6.84 61.5659 7.416 62.9339 8.568C64.3259 9.696 65.0699 11.244 65.1659 13.212H61.0619C60.9899 12.324 60.6299 11.616 59.9819 11.088C59.3339 10.56 58.4579 10.296 57.3539 10.296C56.2739 10.296 55.4459 10.5 54.8699 10.908C54.2939 11.316 54.0059 11.856 54.0059 12.528C54.0059 13.056 54.1979 13.5 54.5819 13.86C54.9659 14.22 55.4339 14.508 55.9859 14.724C56.5379 14.916 57.3539 15.168 58.4339 15.48C59.8739 15.864 61.0499 16.26 61.9619 16.668C62.8979 17.052 63.7019 17.628 64.3739 18.396C65.0459 19.164 65.3939 20.184 65.4179 21.456C65.4179 22.584 65.1059 23.592 64.4819 24.48C63.8579 25.368 62.9699 26.064 61.8179 26.568C60.6899 27.072 59.3579 27.324 57.8219 27.324ZM80.1123 6.84C81.6243 6.84 82.9683 7.164 84.1443 7.812C85.3443 8.46 86.2803 9.42 86.9523 10.692C87.6483 11.964 87.9963 13.5 87.9963 15.3V27H83.9283V15.912C83.9283 14.136 83.4843 12.78 82.5963 11.844C81.7083 10.884 80.4963 10.404 78.9603 10.404C77.4243 10.404 76.2003 10.884 75.2883 11.844C74.4003 12.78 73.9563 14.136 73.9563 15.912V27H69.8523V0.36H73.9563V9.468C74.6523 8.628 75.5283 7.98 76.5843 7.524C77.6643 7.068 78.8403 6.84 80.1123 6.84ZM97.3353 10.116C98.0313 9.156 98.9793 8.376 100.179 7.776C101.403 7.152 102.759 6.84 104.247 6.84C105.999 6.84 107.583 7.26 108.999 8.1C110.415 8.94 111.531 10.14 112.347 11.7C113.163 13.236 113.571 15 113.571 16.992C113.571 18.984 113.163 20.772 112.347 22.356C111.531 23.916 110.403 25.14 108.963 26.028C107.547 26.892 105.975 27.324 104.247 27.324C102.711 27.324 101.343 27.024 100.143 26.424C98.9673 25.824 98.0313 25.056 97.3353 24.12V27H93.2313V0.36H97.3353V10.116ZM109.395 16.992C109.395 15.624 109.107 14.448 108.531 13.464C107.979 12.456 107.235 11.7 106.299 11.196C105.387 10.668 104.403 10.404 103.347 10.404C102.315 10.404 101.331 10.668 100.395 11.196C99.4833 11.724 98.7393 12.492 98.1633 13.5C97.6113 14.508 97.3353 15.696 97.3353 17.064C97.3353 18.432 97.6113 19.632 98.1633 20.664C98.7393 21.672 99.4833 22.44 100.395 22.968C101.331 23.496 102.315 23.76 103.347 23.76C104.403 23.76 105.387 23.496 106.299 22.968C107.235 22.416 107.979 21.624 108.531 20.592C109.107 19.56 109.395 18.36 109.395 16.992ZM126.234 27.324C124.362 27.324 122.67 26.904 121.158 26.064C119.646 25.2 118.458 24 117.594 22.464C116.73 20.904 116.298 19.104 116.298 17.064C116.298 15.048 116.742 13.26 117.63 11.7C118.518 10.14 119.73 8.94 121.266 8.1C122.802 7.26 124.518 6.84 126.414 6.84C128.31 6.84 130.026 7.26 131.562 8.1C133.098 8.94 134.31 10.14 135.198 11.7C136.086 13.26 136.53 15.048 136.53 17.064C136.53 19.08 136.074 20.868 135.162 22.428C134.25 23.988 133.002 25.2 131.418 26.064C129.858 26.904 128.13 27.324 126.234 27.324ZM126.234 23.76C127.29 23.76 128.274 23.508 129.186 23.004C130.122 22.5 130.878 21.744 131.454 20.736C132.03 19.728 132.318 18.504 132.318 17.064C132.318 15.624 132.042 14.412 131.49 13.428C130.938 12.42 130.206 11.664 129.294 11.16C128.382 10.656 127.398 10.404 126.342 10.404C125.286 10.404 124.302 10.656 123.39 11.16C122.502 11.664 121.794 12.42 121.266 13.428C120.738 14.412 120.474 15.624 120.474 17.064C120.474 19.2 121.014 20.856 122.094 22.032C123.198 23.184 124.578 23.76 126.234 23.76ZM139.219 16.992C139.219 15 139.627 13.236 140.443 11.7C141.283 10.164 142.411 8.976 143.827 8.136C145.267 7.272 146.851 6.84 148.579 6.84C150.139 6.84 151.495 7.152 152.647 7.776C153.823 8.376 154.759 9.132 155.455 10.044V7.164H159.595V27H155.455V24.048C154.759 24.984 153.811 25.764 152.611 26.388C151.411 27.012 150.043 27.324 148.507 27.324C146.803 27.324 145.243 26.892 143.827 26.028C142.411 25.14 141.283 23.916 140.443 22.356C139.627 20.772 139.219 18.984 139.219 16.992ZM155.455 17.064C155.455 15.696 155.167 14.508 154.591 13.5C154.039 12.492 153.307 11.724 152.395 11.196C151.483 10.668 150.499 10.404 149.443 10.404C148.387 10.404 147.403 10.668 146.491 11.196C145.579 11.7 144.835 12.456 144.259 13.464C143.707 14.448 143.431 15.624 143.431 16.992C143.431 18.36 143.707 19.56 144.259 20.592C144.835 21.624 145.579 22.416 146.491 22.968C147.427 23.496 148.411 23.76 149.443 23.76C150.499 23.76 151.483 23.496 152.395 22.968C153.307 22.44 154.039 21.672 154.591 20.664C155.167 19.632 155.455 18.432 155.455 17.064ZM169.089 10.044C169.689 9.036 170.481 8.256 171.465 7.704C172.473 7.128 173.661 6.84 175.029 6.84V11.088H173.985C172.377 11.088 171.153 11.496 170.313 12.312C169.497 13.128 169.089 14.544 169.089 16.56V27H164.985V7.164H169.089V10.044ZM177.434 16.992C177.434 15 177.842 13.236 178.658 11.7C179.498 10.164 180.626 8.976 182.042 8.136C183.482 7.272 185.078 6.84 186.83 6.84C188.126 6.84 189.398 7.128 190.646 7.704C191.918 8.256 192.926 9 193.67 9.936V0.36H197.81V27H193.67V24.012C192.998 24.972 192.062 25.764 190.862 26.388C189.686 27.012 188.33 27.324 186.794 27.324C185.066 27.324 183.482 26.892 182.042 26.028C180.626 25.14 179.498 23.916 178.658 22.356C177.842 20.772 177.434 18.984 177.434 16.992ZM193.67 17.064C193.67 15.696 193.382 14.508 192.806 13.5C192.254 12.492 191.522 11.724 190.61 11.196C189.698 10.668 188.714 10.404 187.658 10.404C186.602 10.404 185.618 10.668 184.706 11.196C183.794 11.7 183.05 12.456 182.474 13.464C181.922 14.448 181.646 15.624 181.646 16.992C181.646 18.36 181.922 19.56 182.474 20.592C183.05 21.624 183.794 22.416 184.706 22.968C185.642 23.496 186.626 23.76 187.658 23.76C188.714 23.76 189.698 23.496 190.61 22.968C191.522 22.44 192.254 21.672 192.806 20.664C193.382 19.632 193.67 18.432 193.67 17.064Z" fill="#79DAE8"/>
</svg>
