<svg width="158" height="29" viewBox="0 0 158 29" fill="none" xmlns="http://www.w3.org/2000/svg">
<path d="M90.088 22.112C89.56 22.384 88.792 22.64 87.784 22.88C86.792 23.104 85.776 23.216 84.736 23.216C82.128 23.216 80.16 22.448 78.832 20.912C77.504 19.376 76.84 17.424 76.84 15.056C76.84 13.232 77.216 11.608 77.968 10.184C78.848 8.504 80.168 7.336 81.928 6.68C82.904 6.328 83.92 6.152 84.976 6.152C86.032 6.152 87.048 6.232 88.024 6.392C89 6.552 89.64 6.696 89.944 6.824C90.04 7.416 90.088 8.04 90.088 8.696C90.088 9.336 90.072 10.056 90.04 10.856L88.672 11.048C88.32 9.192 88.008 8.168 87.736 7.976C87.592 7.864 87.216 7.744 86.608 7.616C86.016 7.488 85.424 7.424 84.832 7.424C83.072 7.424 81.744 8.072 80.848 9.368C79.952 10.664 79.504 12.368 79.504 14.48C79.504 16.976 80.072 18.832 81.208 20.048C82.344 21.264 83.752 21.872 85.432 21.872C86.312 21.872 87.088 21.744 87.76 21.488V18.152C87.76 17.656 87.664 17.32 87.472 17.144C87.296 16.968 86.784 16.808 85.936 16.664L86.08 15.728H91.696L91.792 16.664L90.568 16.952C90.248 17.016 90.088 17.224 90.088 17.576V22.112ZM92.6719 23L92.5039 22.04C93.1119 21.88 93.4799 21.752 93.6079 21.656C93.7519 21.56 93.8879 21.344 94.0159 21.008L99.3919 6.152H101.384L106.88 21.392C106.96 21.632 107.432 21.832 108.296 21.992L108.2 23H102.608L102.464 22.04C103.584 21.816 104.144 21.552 104.144 21.248C104.144 21.12 104.112 20.952 104.048 20.744L102.992 17.624H96.7759L95.5519 21.032C95.4879 21.224 95.4559 21.36 95.4559 21.44C95.4559 21.504 95.5039 21.544 95.5999 21.56L97.3039 22.016L97.2079 23H92.6719ZM97.2319 16.352H102.584L100.232 9.608C100.12 9.272 100.064 9.04 100.064 8.912H99.8239L97.2319 16.352ZM109.446 23L109.302 22.064C110.166 21.904 110.71 21.736 110.934 21.56C111.174 21.384 111.294 21.056 111.294 20.576V8.792C111.294 8.296 111.198 7.96 111.006 7.784C110.83 7.608 110.318 7.448 109.47 7.304L109.614 6.368H114.654L119.262 18.992C119.342 19.248 119.398 19.448 119.43 19.592H119.67C119.686 19.416 119.726 19.256 119.79 19.112L124.47 6.368H128.814L128.91 7.304L127.902 7.592C127.598 7.688 127.446 7.872 127.446 8.144V21.152C127.446 21.504 127.606 21.712 127.926 21.776L129.414 22.064L129.318 23H123.39L123.246 22.064C124.03 21.92 124.534 21.768 124.758 21.608C124.998 21.432 125.118 21.152 125.118 20.768V9.8C125.118 9.432 125.142 9.128 125.19 8.888H124.998L119.934 22.52H118.206L113.094 8.84H112.902V20.6C112.902 20.984 112.974 21.272 113.118 21.464C113.278 21.656 113.558 21.784 113.958 21.848L115.134 22.064L115.038 23H109.446ZM131.528 23L131.384 22.064C132.232 21.92 132.744 21.76 132.92 21.584C133.112 21.408 133.208 21.072 133.208 20.576V8.792C133.208 8.296 133.112 7.96 132.92 7.784C132.744 7.608 132.232 7.448 131.384 7.304L131.528 6.368H142.712C142.808 6.96 142.856 7.552 142.856 8.144C142.856 8.72 142.84 9.376 142.808 10.112L141.44 10.28C141.216 9.176 141.056 8.488 140.96 8.216C140.864 7.928 140.752 7.776 140.624 7.76C140.24 7.712 139.752 7.68 139.16 7.664L135.536 7.592V14.048H139.136C139.344 14.048 139.6 13.48 139.904 12.344L140.648 12.416C140.648 13.584 140.664 14.4 140.696 14.864C140.744 15.328 140.768 15.608 140.768 15.704C140.784 15.8 140.816 16.032 140.864 16.4C140.928 16.768 140.968 17.024 140.984 17.168L140.12 17.312C139.864 16.4 139.688 15.84 139.592 15.632C139.512 15.424 139.416 15.32 139.304 15.32H135.536V21.776L137.672 21.752C139.48 21.752 140.584 21.656 140.984 21.464C141.032 21.432 141.064 21.416 141.08 21.416C141.352 21.336 141.704 20.392 142.136 18.584L143.456 18.704C143.472 18.976 143.48 19.464 143.48 20.168C143.48 20.856 143.392 21.8 143.216 23H131.528ZM147.699 21.032C147.971 21.224 148.411 21.416 149.019 21.608C149.643 21.784 150.339 21.872 151.107 21.872C151.875 21.872 152.515 21.64 153.027 21.176C153.539 20.712 153.795 20.088 153.795 19.304C153.795 18.088 153.107 17.096 151.731 16.328C151.379 16.152 150.835 15.912 150.099 15.608C149.363 15.288 148.843 15.056 148.539 14.912C148.235 14.752 147.875 14.536 147.459 14.264C147.059 13.976 146.747 13.688 146.523 13.4C145.963 12.712 145.683 11.872 145.683 10.88C145.683 9.424 146.219 8.272 147.291 7.424C148.379 6.576 149.787 6.152 151.515 6.152C152.827 6.152 154.059 6.368 155.211 6.8C155.259 7.184 155.283 7.696 155.283 8.336C155.283 8.96 155.195 9.8 155.019 10.856L153.627 11.024C153.451 9.216 153.235 8.208 152.979 8C152.595 7.664 151.891 7.496 150.867 7.496C149.859 7.496 149.075 7.704 148.515 8.12C147.955 8.52 147.675 9.112 147.675 9.896C147.675 10.344 147.763 10.744 147.939 11.096C148.115 11.448 148.435 11.776 148.899 12.08C149.363 12.384 149.731 12.6 150.003 12.728C150.403 12.936 150.963 13.192 151.683 13.496C152.403 13.8 152.963 14.064 153.363 14.288C153.763 14.512 154.195 14.808 154.659 15.176C155.555 15.928 156.003 17.016 156.003 18.44C156.003 19.864 155.491 21.016 154.467 21.896C153.459 22.776 152.075 23.216 150.315 23.216C149.371 23.216 148.427 23.104 147.483 22.88C146.555 22.64 145.875 22.408 145.443 22.184C145.395 21.992 145.371 21.536 145.371 20.816C145.371 20.096 145.467 19.224 145.659 18.2L147.027 18.128C147.155 19.28 147.259 20.024 147.339 20.36C147.435 20.696 147.555 20.92 147.699 21.032Z" fill="#79DAE8"/>
<path d="M0.86 22L0.74 21.22C1.46 21.0867 1.91333 20.9467 2.1 20.8C2.3 20.6533 2.4 20.38 2.4 19.98V10.16C2.4 9.74667 2.32 9.46667 2.16 9.32C2.01333 9.17333 1.58667 9.04 0.88 8.92L1 8.14H5.2L9.04 18.66C9.10667 18.8733 9.15333 19.04 9.18 19.16H9.38C9.39333 19.0133 9.42667 18.88 9.48 18.76L13.38 8.14H17L17.08 8.92L16.24 9.16C15.9867 9.24 15.86 9.39333 15.86 9.62V20.46C15.86 20.7533 15.9933 20.9267 16.26 20.98L17.5 21.22L17.42 22H12.48L12.36 21.22C13.0133 21.1 13.4333 20.9733 13.62 20.84C13.82 20.6933 13.92 20.46 13.92 20.14V11C13.92 10.6933 13.94 10.44 13.98 10.24H13.82L9.6 21.6H8.16L3.9 10.2H3.74V20C3.74 20.32 3.8 20.56 3.92 20.72C4.05333 20.88 4.28667 20.9867 4.62 21.04L5.6 21.22L5.52 22H0.86ZM23.3817 22.18C21.9417 22.18 20.8351 21.7533 20.0617 20.9C19.2884 20.0467 18.9017 18.8533 18.9017 17.32C18.9017 15.7867 19.3084 14.56 20.1217 13.64C20.9484 12.7067 22.0817 12.24 23.5217 12.24C24.9751 12.24 26.0884 12.6733 26.8617 13.54C27.6351 14.3933 28.0217 15.5867 28.0217 17.12C28.0217 18.6533 27.6084 19.88 26.7817 20.8C25.9684 21.72 24.8351 22.18 23.3817 22.18ZM20.8417 17.06C20.8417 18.2467 21.0817 19.22 21.5617 19.98C22.0417 20.74 22.6951 21.12 23.5217 21.12C24.3484 21.12 24.9351 20.92 25.2817 20.52C25.5217 20.2533 25.7151 19.8333 25.8617 19.26C26.0084 18.6733 26.0817 18.04 26.0817 17.36C26.0817 16.1733 25.8417 15.2 25.3617 14.44C24.8817 13.68 24.2284 13.3 23.4017 13.3C22.5751 13.3 21.9884 13.5 21.6417 13.9C21.4017 14.1667 21.2084 14.5933 21.0617 15.18C20.9151 15.7533 20.8417 16.38 20.8417 17.06ZM35.8523 20.68C35.079 21.68 34.1523 22.18 33.0723 22.18C31.9923 22.18 31.1057 21.7533 30.4123 20.9C29.719 20.0333 29.3723 18.8533 29.3723 17.36C29.3723 15.8667 29.7657 14.64 30.5523 13.68C31.339 12.72 32.439 12.24 33.8523 12.24C34.8257 12.24 35.5457 12.4133 36.0123 12.76L36.1523 12.7C36.099 12.4867 36.0723 12.1933 36.0723 11.82V8.46C36.0723 8.18 35.9323 7.97333 35.6523 7.84C35.3857 7.69333 34.899 7.57333 34.1923 7.48L34.3123 6.84C35.739 6.65333 36.8523 6.56 37.6523 6.56L37.8723 6.76V20.04C37.8723 20.3867 37.9523 20.6333 38.1123 20.78C38.2857 20.9133 38.7123 21.0467 39.3923 21.18L39.2723 21.82L36.8723 22.08C36.739 22.08 36.5923 21.9467 36.4323 21.68C36.2723 21.4133 36.1923 21.1733 36.1923 20.96C36.1923 20.7467 36.199 20.5867 36.2123 20.48L36.0523 20.42L35.8523 20.68ZM31.3123 16.88C31.3123 18.2 31.519 19.1733 31.9323 19.8C32.359 20.4267 32.8923 20.74 33.5323 20.74C34.1723 20.74 34.839 20.5133 35.5323 20.06C35.8923 19.82 36.0723 19.5133 36.0723 19.14V14.36C35.5257 13.7067 34.6723 13.38 33.5123 13.38C32.939 13.38 32.4857 13.5667 32.1523 13.94C31.5923 14.5667 31.3123 15.5467 31.3123 16.88ZM41.8791 19.52V14.24C41.8791 13.96 41.7724 13.76 41.5591 13.64C41.3457 13.5067 40.9457 13.38 40.3591 13.26L40.4791 12.62C41.9057 12.4333 42.8991 12.34 43.4591 12.34L43.6791 12.54V18.66C43.6791 20.0467 44.2057 20.74 45.2591 20.74C45.9391 20.74 46.6457 20.48 47.3791 19.96C47.5524 19.84 47.6657 19.7267 47.7191 19.62C47.7724 19.5 47.7991 19.3067 47.7991 19.04V14.24C47.7991 13.96 47.6924 13.76 47.4791 13.64C47.2657 13.5067 46.8657 13.38 46.2791 13.26L46.3991 12.62C47.8257 12.4333 48.8191 12.34 49.3791 12.34L49.5991 12.54V20.02C49.5991 20.3667 49.6791 20.6133 49.8391 20.76C50.0124 20.8933 50.4391 21.0267 51.1191 21.16L50.9991 21.8L48.4191 22.08C48.3257 22.0933 48.2257 21.92 48.1191 21.56C48.0257 21.1867 47.9791 20.8667 47.9791 20.6V20.48L47.8191 20.42L47.5791 20.7C46.7391 21.6867 45.7124 22.18 44.4991 22.18C43.6857 22.18 43.0457 21.9667 42.5791 21.54C42.1124 21.1 41.8791 20.4267 41.8791 19.52ZM52.382 22L52.262 21.22C52.9154 21.0867 53.3087 20.9533 53.442 20.82C53.5887 20.6733 53.662 20.4267 53.662 20.08V8.46C53.662 8.18 53.5554 7.98 53.342 7.86C53.1287 7.72667 52.7287 7.6 52.142 7.48L52.262 6.84C53.6887 6.65333 54.682 6.56 55.242 6.56L55.462 6.76V20.56C55.462 20.72 55.4954 20.8267 55.562 20.88C55.642 20.92 55.742 20.9533 55.862 20.98L56.842 21.22L56.762 22H52.382ZM62.5567 22.18C61.2101 22.18 60.1634 21.72 59.4167 20.8C58.6834 19.88 58.3167 18.72 58.3167 17.32C58.3167 15.9067 58.7434 14.7067 59.5967 13.72C60.4501 12.7333 61.5767 12.24 62.9767 12.24C65.2434 12.24 66.4301 13.6333 66.5367 16.42L66.0167 16.8L60.2167 17.12C60.2167 19.5867 61.2701 20.82 63.3767 20.82C64.2967 20.82 65.1967 20.5933 66.0767 20.14L66.4967 20.8C66.0567 21.16 65.4834 21.48 64.7767 21.76C64.0701 22.04 63.3301 22.18 62.5567 22.18ZM60.2767 16.2L64.4167 15.84C64.5501 15.8267 64.6167 15.7 64.6167 15.46C64.6167 14.8733 64.4567 14.3667 64.1367 13.94C63.8301 13.5133 63.3034 13.3 62.5567 13.3C61.8101 13.3 61.2634 13.5533 60.9167 14.06C60.5834 14.5533 60.3701 15.2667 60.2767 16.2Z" fill="#79DAE8"/>
</svg>
